<svg version="1" xmlns="http://www.w3.org/2000/svg" width="400" height="400" viewBox="0 0 300.000000 300.000000"><path d="M142.5.7c-19.5 3.6-33.2 15.6-38.7 33.6-2.7 8.9-2.1 21.4 1.3 29.7 9.2 22.2 32.6 34 55.4 27.8 13-3.6 23-11.6 29.3-23.5l3.7-7.1 5.2 2c10 3.7 18.7 14.1 21.9 26.1 1.8 7 1.2 19.9-1.4 26.5-3.5 9-10.1 16.5-17.9 20.2-4.6 2.1-8.3 2.6-8.3 1 0-2.8-6-13-10.6-17.9-9.2-9.9-20.8-15.1-33.9-15.1-17.3 0-34.4 10.9-41.8 26.5-1.6 3.3-3.2 6.7-3.6 7.5-.4.8-2.5 1.8-4.7 2.3-6.1 1.2-17.4 7.3-23.2 12.3-12.5 10.9-20.2 28.6-20.4 46.9-.2 13.7 1.4 21 7 32.5 7.3 14.8 21.1 26 36.9 30 3.8.9 4.3 1.5 5.8 5.9C109.1 282 122 294 136.8 298c5 1.3 14.9 1.6 20.4.7 21.7-3.8 38.3-24.4 37.7-46.7-.4-12.9-4.7-23-14-32.2-14-14.1-34.7-17.5-52.6-8.7-9.7 4.7-21 16.7-22.9 24.3-.3 1.5-1 2.8-1.4 3.1-.4.3-3.5-.9-6.9-2.6-13.9-7-21.6-24.5-18.5-42.5 2.1-12.6 9.2-22.7 19.6-28l4.7-2.4 3.5 7.3c7.9 16.5 24 26.7 42 26.7 9.8 0 22.3-4 27.2-8.6.7-.6 2.5-2.1 4.1-3.5 4.8-4.1 9.3-10.3 11.8-16.4l2.3-5.8 7.2-1.8c27.7-7.1 45.3-32.9 43.8-64.3-1.1-21.7-10.8-39.5-27.5-50.2-6.1-4-13.2-6.9-18.9-7.8-3.9-.7-4.3-1-5.3-4.9-1.2-4.8-7-14.9-10.9-19-4.2-4.5-12.3-9.5-18.6-11.8C158.1 1 147.1-.2 142.5.7zM155.9 25c12.2 3.3 19.3 18.8 14.1 30.8-4.3 9.9-13 14.9-24.1 13.9-8.7-.8-15-5.4-18.8-13.7-5.6-12.2 1.7-27.5 14.9-31.4 4.6-1.3 7.8-1.3 13.9.4zm2.8 104.8c5.6 2.9 10 7.7 11.8 13.1 5.5 16.1-6.8 31.8-24 30.5-14.1-1-24.2-14.9-20.6-28.4 3.9-14.5 19.8-21.8 32.8-15.2zm-1.4 101.5c11.7 5 17.7 19.1 12.8 30.3-4 8.9-10.6 13.5-20.1 14-14.4.7-25.3-9.8-24.6-23.5.8-16.3 17.2-26.9 31.9-20.8z"/></svg>