<?xml version="1.0" encoding="UTF-8" standalone="no"?>
<!DOCTYPE svg PUBLIC "-//W3C//DTD SVG 1.1//EN" "http://www.w3.org/Graphics/SVG/1.1/DTD/svg11.dtd">
<svg xmlns="http://www.w3.org/2000/svg" version="1.1" viewBox="535 1680 1027 354" width="1027"
    height="354">
  <defs>
    <marker orient="auto" overflow="visible" markerUnits="strokeWidth" id="StickArrow_Marker"
        stroke-linejoin="miter" stroke-miterlimit="10" viewBox="-1 -4 10 8" markerWidth="10"
        markerHeight="8" color="white">
      <g>
        <path d="M 8 0 L 0 0 M 0 -3 L 8 0 L 0 3" fill="none" stroke="currentColor"
            stroke-width="1"/>
      </g>
    </marker>
  </defs>
  <g id="Authorities_(dark)" stroke="none" stroke-dasharray="none" fill-opacity="1" fill="none"
      stroke-opacity="1">
    <title>Authorities (dark)</title>
    <g id="Authorities_(dark)_Layer_1">
      <title>Layer 1</title>
      <g id="Graphic_16">
        <path
            d="M 988.2047 1802.8347 L 1087.7428 1802.8347 C 1091.0565 1802.8347 1093.7428 1805.521 1093.7428 1808.8347 L 1093.7428 1845.0236 C 1093.7428 1848.3373 1091.0565 1851.0236 1087.7428 1851.0236 L 988.2047 1851.0236 C 984.891 1851.0236 982.2047 1848.3373 982.2047 1845.0236 L 982.2047 1808.8347 C 982.2047 1805.521 984.891 1802.8347 988.2047 1802.8347 Z"
            fill="#d33682" fill-opacity=".2"/>
        <path
            d="M 988.2047 1802.8347 L 1087.7428 1802.8347 C 1091.0565 1802.8347 1093.7428 1805.521 1093.7428 1808.8347 L 1093.7428 1845.0236 C 1093.7428 1848.3373 1091.0565 1851.0236 1087.7428 1851.0236 L 988.2047 1851.0236 C 984.891 1851.0236 982.2047 1848.3373 982.2047 1845.0236 L 982.2047 1808.8347 C 982.2047 1805.521 984.891 1802.8347 988.2047 1802.8347 Z"
            stroke="#012b36" stroke-linecap="round" stroke-linejoin="round" stroke-width="1"/>
        <text transform="translate(987.2047 1817.4292)" fill="white">
          <tspan font-family="Meslo LG M" font-size="14" fill="white" x="17.054195"
              y="14">pathling
          </tspan>
        </text>
      </g>
      <g id="Graphic_21">
        <path
            d="M 873.4016 1895.811 L 1018.8924 1895.811 C 1022.2061 1895.811 1024.8924 1898.4973 1024.8924 1901.811 L 1024.8924 1938 C 1024.8924 1941.3137 1022.2061 1944 1018.8924 1944 L 873.4016 1944 C 870.0879 1944 867.4016 1941.3137 867.4016 1938 L 867.4016 1901.811 C 867.4016 1898.4973 870.0879 1895.811 873.4016 1895.811 Z"
            fill="#cb4b16" fill-opacity=".2"/>
        <path
            d="M 873.4016 1895.811 L 1018.8924 1895.811 C 1022.2061 1895.811 1024.8924 1898.4973 1024.8924 1901.811 L 1024.8924 1938 C 1024.8924 1941.3137 1022.2061 1944 1018.8924 1944 L 873.4016 1944 C 870.0879 1944 867.4016 1941.3137 867.4016 1938 L 867.4016 1901.811 C 867.4016 1898.4973 870.0879 1895.811 873.4016 1895.811 Z"
            stroke="#012b36" stroke-linecap="round" stroke-linejoin="round" stroke-width="1"/>
        <text transform="translate(872.4016 1910.4055)" fill="white">
          <tspan font-family="Meslo LG M" font-size="14" fill="white" x="18.958794"
              y="14">pathling:read
          </tspan>
        </text>
      </g>
      <g id="Line_22">
        <path d="M 1010.0893 1851.0236 C 1003.1423 1863.6872 994.9653 1870.6795 988.6883 1886.4323"
            marker-end="url(#StickArrow_Marker)" stroke="white" stroke-linecap="round"
            stroke-linejoin="round" stroke-width="1"/>
      </g>
      <g id="Graphic_23">
        <path
            d="M 1056.2362 1895.811 L 1214.315 1895.811 C 1217.6287 1895.811 1220.315 1898.4973 1220.315 1901.811 L 1220.315 1938 C 1220.315 1941.3137 1217.6287 1944 1214.315 1944 L 1056.2362 1944 C 1052.9225 1944 1050.2362 1941.3137 1050.2362 1938 L 1050.2362 1901.811 C 1050.2362 1898.4973 1052.9225 1895.811 1056.2362 1895.811 Z"
            fill="#cb4b16" fill-opacity=".2"/>
        <path
            d="M 1056.2362 1895.811 L 1214.315 1895.811 C 1217.6287 1895.811 1220.315 1898.4973 1220.315 1901.811 L 1220.315 1938 C 1220.315 1941.3137 1217.6287 1944 1214.315 1944 L 1056.2362 1944 C 1052.9225 1944 1050.2362 1941.3137 1050.2362 1938 L 1050.2362 1901.811 C 1050.2362 1898.4973 1052.9225 1895.811 1056.2362 1895.811 Z"
            stroke="#012b36" stroke-linecap="round" stroke-linejoin="round" stroke-width="1"/>
        <text transform="translate(1055.2362 1910.4055)" fill="white">
          <tspan font-family="Meslo LG M" font-size="14" fill="white" x="21.03839"
              y="14">pathling:write
          </tspan>
        </text>
      </g>
      <g id="Line_24">
        <path d="M 1065.8583 1851.0236 C 1073.5178 1863.7775 1082.7902 1870.0492 1089.5419 1886.452"
            marker-end="url(#StickArrow_Marker)" stroke="white" stroke-linecap="round"
            stroke-linejoin="round" stroke-width="1"/>
      </g>
      <g id="Graphic_25">
        <path
            d="M 570.2625 1895.811 L 836.0578 1895.811 C 839.3715 1895.811 842.0578 1898.4973 842.0578 1901.811 L 842.0578 1938 C 842.0578 1941.3137 839.3715 1944 836.0578 1944 L 570.2625 1944 C 566.9488 1944 564.2625 1941.3137 564.2625 1938 L 564.2625 1901.811 C 564.2625 1898.4973 566.9488 1895.811 570.2625 1895.811 Z"
            fill="#b58900" fill-opacity=".2"/>
        <path
            d="M 570.2625 1895.811 L 836.0578 1895.811 C 839.3715 1895.811 842.0578 1898.4973 842.0578 1901.811 L 842.0578 1938 C 842.0578 1941.3137 839.3715 1944 836.0578 1944 L 570.2625 1944 C 566.9488 1944 564.2625 1941.3137 564.2625 1938 L 564.2625 1901.811 C 564.2625 1898.4973 566.9488 1895.811 570.2625 1895.811 Z"
            stroke="#012b36" stroke-linecap="round" stroke-linejoin="round" stroke-width="1"/>
        <text transform="translate(569.2625 1910.4055)" fill="white">
          <tspan font-family="Meslo LG M" font-size="14" fill="white" x="11.681335"
              y="14">pathling:read:[resource type]
          </tspan>
        </text>
      </g>
      <g id="Graphic_26">
        <path
            d="M 1251.6588 1895.811 L 1527.3753 1895.811 C 1530.689 1895.811 1533.3753 1898.4973 1533.3753 1901.811 L 1533.3753 1938 C 1533.3753 1941.3137 1530.689 1944 1527.3753 1944 L 1251.6588 1944 C 1248.3451 1944 1245.6588 1941.3137 1245.6588 1938 L 1245.6588 1901.811 C 1245.6588 1898.4973 1248.3451 1895.811 1251.6588 1895.811 Z"
            fill="#b58900" fill-opacity=".2"/>
        <path
            d="M 1251.6588 1895.811 L 1527.3753 1895.811 C 1530.689 1895.811 1533.3753 1898.4973 1533.3753 1901.811 L 1533.3753 1938 C 1533.3753 1941.3137 1530.689 1944 1527.3753 1944 L 1251.6588 1944 C 1248.3451 1944 1245.6588 1941.3137 1245.6588 1938 L 1245.6588 1901.811 C 1245.6588 1898.4973 1248.3451 1895.811 1251.6588 1895.811 Z"
            stroke="#012b36" stroke-linecap="round" stroke-linejoin="round" stroke-width="1"/>
        <text transform="translate(1250.6588 1910.4055)" fill="white">
          <tspan font-family="Meslo LG M" font-size="14" fill="white" x="12.427612"
              y="14">pathling:write:[resource type]
          </tspan>
        </text>
      </g>
      <g id="Line_27">
        <line x1="867.4016" y1="1919.9055" x2="851.9578" y2="1919.9055"
            marker-end="url(#StickArrow_Marker)" stroke="white" stroke-linecap="round"
            stroke-linejoin="round" stroke-width="1"/>
      </g>
      <g id="Line_28">
        <line x1="1220.315" y1="1919.9055" x2="1235.7588" y2="1919.9055"
            marker-end="url(#StickArrow_Marker)" stroke="white" stroke-linecap="round"
            stroke-linejoin="round" stroke-width="1"/>
      </g>
      <g id="Line_32">
        <path d="M 982.2047 1826.9292 C 896.7244 1804.843 782.1209 1822.5365 722.4362 1765.2158"
            marker-end="url(#StickArrow_Marker)" stroke="white" stroke-linecap="round"
            stroke-linejoin="round" stroke-width="1"/>
      </g>
      <g id="Line_33">
        <path d="M 982.2047 1814.882 C 946.0908 1797.2894 897.5384 1798.6748 871.199 1766.1688"
            marker-end="url(#StickArrow_Marker)" stroke="white" stroke-linecap="round"
            stroke-linejoin="round" stroke-width="1"/>
      </g>
      <g id="Line_34">
        <path d="M 1037.9738 1802.8347 C 1043.585 1790.0603 1050.5952 1784.625 1055.4132 1767.6895"
            marker-end="url(#StickArrow_Marker)" stroke="white" stroke-linecap="round"
            stroke-linejoin="round" stroke-width="1"/>
      </g>
      <g id="Line_36">
        <line x1="564.2625" y1="1991.5827" x2="589.3625" y2="1991.5827"
            marker-end="url(#StickArrow_Marker)" stroke="white" stroke-linecap="round"
            stroke-linejoin="round" stroke-width="1"/>
      </g>
      <g id="Graphic_35">
        <text transform="translate(607.2625 1983.5827)" fill="white">
          <tspan font-family="Open Sans" font-size="12" fill="white" x="0" y="13">includes</tspan>
        </text>
      </g>
      <g id="Graphic_29">
        <path
            d="M 603.4921 1709.8583 L 748.98295 1709.8583 C 752.2967 1709.8583 754.98295 1712.5446 754.98295 1715.8583 L 754.98295 1752.0473 C 754.98295 1755.361 752.2967 1758.0473 748.98295 1758.0473 L 603.4921 1758.0473 C 600.1784 1758.0473 597.4921 1755.361 597.4921 1752.0473 L 597.4921 1715.8583 C 597.4921 1712.5446 600.1784 1709.8583 603.4921 1709.8583 Z"
            fill="#6c71c4" fill-opacity=".2"/>
        <path
            d="M 603.4921 1709.8583 L 748.98295 1709.8583 C 752.2967 1709.8583 754.98295 1712.5446 754.98295 1715.8583 L 754.98295 1752.0473 C 754.98295 1755.361 752.2967 1758.0473 748.98295 1758.0473 L 603.4921 1758.0473 C 600.1784 1758.0473 597.4921 1755.361 597.4921 1752.0473 L 597.4921 1715.8583 C 597.4921 1712.5446 600.1784 1709.8583 603.4921 1709.8583 Z"
            stroke="#012b36" stroke-linecap="round" stroke-linejoin="round" stroke-width="1"/>
        <text transform="translate(602.4921 1724.4528)" fill="white">
          <tspan font-family="Meslo LG M" font-size="14" fill="white" x="10.530083"
              y="14">pathling:import
          </tspan>
        </text>
      </g>
      <g id="Graphic_30">
        <path
            d="M 780.8255 1709.8583 L 950.2428 1709.8583 C 953.5565 1709.8583 956.2428 1712.5446 956.2428 1715.8583 L 956.2428 1752.0473 C 956.2428 1755.361 953.5565 1758.0473 950.2428 1758.0473 L 780.8255 1758.0473 C 777.5118 1758.0473 774.8255 1755.361 774.8255 1752.0473 L 774.8255 1715.8583 C 774.8255 1712.5446 777.5118 1709.8583 780.8255 1709.8583 Z"
            fill="#6c71c4" fill-opacity=".2"/>
        <path
            d="M 780.8255 1709.8583 L 950.2428 1709.8583 C 953.5565 1709.8583 956.2428 1712.5446 956.2428 1715.8583 L 956.2428 1752.0473 C 956.2428 1755.361 953.5565 1758.0473 950.2428 1758.0473 L 780.8255 1758.0473 C 777.5118 1758.0473 774.8255 1755.361 774.8255 1752.0473 L 774.8255 1715.8583 C 774.8255 1712.5446 777.5118 1709.8583 780.8255 1709.8583 Z"
            stroke="#012b36" stroke-linecap="round" stroke-linejoin="round" stroke-width="1"/>
        <text transform="translate(779.8255 1724.4528)" fill="white">
          <tspan font-family="Meslo LG M" font-size="14" fill="white" x="9.850266"
              y="14">pathling:aggregate
          </tspan>
        </text>
      </g>
      <g id="Graphic_31">
        <path
            d="M 982.0853 1709.8583 L 1133.2087 1709.8583 C 1136.5224 1709.8583 1139.2087 1712.5446 1139.2087 1715.8583 L 1139.2087 1752.0473 C 1139.2087 1755.361 1136.5224 1758.0473 1133.2087 1758.0473 L 982.0853 1758.0473 C 978.7716 1758.0473 976.0853 1755.361 976.0853 1752.0473 L 976.0853 1715.8583 C 976.0853 1712.5446 978.7716 1709.8583 982.0853 1709.8583 Z"
            fill="#6c71c4" fill-opacity=".2"/>
        <path
            d="M 982.0853 1709.8583 L 1133.2087 1709.8583 C 1136.5224 1709.8583 1139.2087 1712.5446 1139.2087 1715.8583 L 1139.2087 1752.0473 C 1139.2087 1755.361 1136.5224 1758.0473 1133.2087 1758.0473 L 982.0853 1758.0473 C 978.7716 1758.0473 976.0853 1755.361 976.0853 1752.0473 L 976.0853 1715.8583 C 976.0853 1712.5446 978.7716 1709.8583 982.0853 1709.8583 Z"
            stroke="#012b36" stroke-linecap="round" stroke-linejoin="round" stroke-width="1"/>
        <text transform="translate(981.0853 1724.4528)" fill="white">
          <tspan font-family="Meslo LG M" font-size="14" fill="white" x="13.346344"
              y="14">pathling:search
          </tspan>
        </text>
      </g>
      <g id="Graphic_37">
        <path
            d="M 1165.0512 1709.2914 L 1316.1745 1709.2914 C 1319.4882 1709.2914 1322.1745 1711.9776 1322.1745 1715.2914 L 1322.1745 1751.4803 C 1322.1745 1754.794 1319.4882 1757.4803 1316.1745 1757.4803 L 1165.0512 1757.4803 C 1161.7375 1757.4803 1159.0512 1754.794 1159.0512 1751.4803 L 1159.0512 1715.2914 C 1159.0512 1711.9776 1161.7375 1709.2914 1165.0512 1709.2914 Z"
            fill="#6c71c4" fill-opacity=".2"/>
        <path
            d="M 1165.0512 1709.2914 L 1316.1745 1709.2914 C 1319.4882 1709.2914 1322.1745 1711.9776 1322.1745 1715.2914 L 1322.1745 1751.4803 C 1322.1745 1754.794 1319.4882 1757.4803 1316.1745 1757.4803 L 1165.0512 1757.4803 C 1161.7375 1757.4803 1159.0512 1754.794 1159.0512 1751.4803 L 1159.0512 1715.2914 C 1159.0512 1711.9776 1161.7375 1709.2914 1165.0512 1709.2914 Z"
            stroke="#012b36" stroke-linecap="round" stroke-linejoin="round" stroke-width="1"/>
        <text transform="translate(1164.0512 1723.8858)" fill="white">
          <tspan font-family="Meslo LG M" font-size="14" fill="white" x="13.346344"
              y="14">pathling:update
          </tspan>
        </text>
      </g>
      <g id="Graphic_38">
        <path
            d="M 1348.017 1709.2914 L 1493.5079 1709.2914 C 1496.8216 1709.2914 1499.5079 1711.9776 1499.5079 1715.2914 L 1499.5079 1751.4803 C 1499.5079 1754.794 1496.8216 1757.4803 1493.5079 1757.4803 L 1348.017 1757.4803 C 1344.7033 1757.4803 1342.017 1754.794 1342.017 1751.4803 L 1342.017 1715.2914 C 1342.017 1711.9776 1344.7033 1709.2914 1348.017 1709.2914 Z"
            fill="#6c71c4" fill-opacity=".2"/>
        <path
            d="M 1348.017 1709.2914 L 1493.5079 1709.2914 C 1496.8216 1709.2914 1499.5079 1711.9776 1499.5079 1715.2914 L 1499.5079 1751.4803 C 1499.5079 1754.794 1496.8216 1757.4803 1493.5079 1757.4803 L 1348.017 1757.4803 C 1344.7033 1757.4803 1342.017 1754.794 1342.017 1751.4803 L 1342.017 1715.2914 C 1342.017 1711.9776 1344.7033 1709.2914 1348.017 1709.2914 Z"
            stroke="#012b36" stroke-linecap="round" stroke-linejoin="round" stroke-width="1"/>
        <text transform="translate(1347.017 1723.8858)" fill="white">
          <tspan font-family="Meslo LG M" font-size="14" fill="white" x="14.744438"
              y="14">pathling:batch
          </tspan>
        </text>
      </g>
      <g id="Line_39">
        <path d="M 1093.7428 1814.882 C 1126.3103 1797.2606 1175.443 1797.7776 1195.374 1766.3197"
            marker-end="url(#StickArrow_Marker)" stroke="white" stroke-linecap="round"
            stroke-linejoin="round" stroke-width="1"/>
      </g>
      <g id="Line_40">
        <path d="M 1093.7428 1826.9292 C 1199.154 1804.543 1350.6143 1836.7401 1414.5328 1765.172"
            marker-end="url(#StickArrow_Marker)" stroke="white" stroke-linecap="round"
            stroke-linejoin="round" stroke-width="1"/>
      </g>
    </g>
  </g>
</svg>
