<?xml version="1.0" encoding="UTF-8" standalone="no"?>
<!DOCTYPE svg PUBLIC "-//W3C//DTD SVG 1.1//EN" "http://www.w3.org/Graphics/SVG/1.1/DTD/svg11.dtd">
<svg xmlns="http://www.w3.org/2000/svg" version="1.1" viewBox="802 1689 595 529" width="595"
    height="529">
  <defs/>
  <g id="Canvas_extract_Operation_(no_text)" stroke="none" stroke-dasharray="none" fill-opacity="1"
      fill="none" stroke-opacity="1">
    <title>$extract Operation (no text)</title>
    <g id="Canvas_extract_Operation_(no_text)_Layer_1">
      <title>Layer 1</title>
      <g id="Line_21">
        <path d="M 859.6063 1765.9843 L 859.6063 1809.9213 L 890.5092 1809.9213" stroke="#073642"
            stroke-linecap="round" stroke-linejoin="round" stroke-width="1"/>
      </g>
      <g id="Graphic_2">
        <path
            d="M 836.5512 1717.7953 L 940.7717 1717.7953 C 944.0854 1717.7953 946.7717 1720.4816 946.7717 1723.7953 L 946.7717 1759.9843 C 946.7717 1763.298 944.0854 1765.9843 940.7717 1765.9843 L 836.5512 1765.9843 C 833.2375 1765.9843 830.5512 1763.298 830.5512 1759.9843 L 830.5512 1723.7953 C 830.5512 1720.4816 833.2375 1717.7953 836.5512 1717.7953 Z"
            fill="#b58900" fill-opacity=".2"/>
        <path
            d="M 836.5512 1717.7953 L 940.7717 1717.7953 C 944.0854 1717.7953 946.7717 1720.4816 946.7717 1723.7953 L 946.7717 1759.9843 C 946.7717 1763.298 944.0854 1765.9843 940.7717 1765.9843 L 836.5512 1765.9843 C 833.2375 1765.9843 830.5512 1763.298 830.5512 1759.9843 L 830.5512 1723.7953 C 830.5512 1720.4816 833.2375 1717.7953 836.5512 1717.7953 Z"
            stroke="#012b36" stroke-linecap="round" stroke-linejoin="round" stroke-width="1"/>
        <text transform="translate(835.5512 1730.8898)" fill="black">
          <tspan font-family="Open Sans" font-size="16" fill="black" x="22.723518" y="17">Request
          </tspan>
        </text>
      </g>
      <g id="Graphic_20">
        <path
            d="M 896.5092 1785.8268 L 1013.4856 1785.8268 C 1016.7993 1785.8268 1019.4856 1788.513 1019.4856 1791.8268 L 1019.4856 1828.0158 C 1019.4856 1831.3295 1016.7993 1834.0158 1013.4856 1834.0158 L 896.5092 1834.0158 C 893.1955 1834.0158 890.5092 1831.3295 890.5092 1828.0158 L 890.5092 1791.8268 C 890.5092 1788.513 893.1955 1785.8268 896.5092 1785.8268 Z"
            fill="#f2f2f2"/>
        <path
            d="M 896.5092 1785.8268 L 1013.4856 1785.8268 C 1016.7993 1785.8268 1019.4856 1788.513 1019.4856 1791.8268 L 1019.4856 1828.0158 C 1019.4856 1831.3295 1016.7993 1834.0158 1013.4856 1834.0158 L 896.5092 1834.0158 C 893.1955 1834.0158 890.5092 1831.3295 890.5092 1828.0158 L 890.5092 1791.8268 C 890.5092 1788.513 893.1955 1785.8268 896.5092 1785.8268 Z"
            stroke="#012b36" stroke-linecap="round" stroke-linejoin="round" stroke-width="1"/>
        <text transform="translate(895.5092 1798.9213)" fill="black">
          <tspan font-family="Open Sans" font-size="16" fill="black" x="16.191315"
              y="17">Parameters
          </tspan>
        </text>
      </g>
      <g id="Graphic_32">
        <path
            d="M 1178.126 1717.7953 L 1282.3465 1717.7953 C 1285.6602 1717.7953 1288.3465 1720.4816 1288.3465 1723.7953 L 1288.3465 1759.9843 C 1288.3465 1763.298 1285.6602 1765.9843 1282.3465 1765.9843 L 1178.126 1765.9843 C 1174.8123 1765.9843 1172.126 1763.298 1172.126 1759.9843 L 1172.126 1723.7953 C 1172.126 1720.4816 1174.8123 1717.7953 1178.126 1717.7953 Z"
            fill="#cdd6a6"/>
        <path
            d="M 1178.126 1717.7953 L 1282.3465 1717.7953 C 1285.6602 1717.7953 1288.3465 1720.4816 1288.3465 1723.7953 L 1288.3465 1759.9843 C 1288.3465 1763.298 1285.6602 1765.9843 1282.3465 1765.9843 L 1178.126 1765.9843 C 1174.8123 1765.9843 1172.126 1763.298 1172.126 1759.9843 L 1172.126 1723.7953 C 1172.126 1720.4816 1174.8123 1717.7953 1178.126 1717.7953 Z"
            stroke="#012b36" stroke-linecap="round" stroke-linejoin="round" stroke-width="1"/>
        <text transform="translate(1177.126 1730.8898)" fill="black">
          <tspan font-family="Open Sans" font-size="16" fill="black" x="16.95008" y="17">Response
          </tspan>
        </text>
      </g>
      <g id="Graphic_33">
        <path
            d="M 1237.6536 1785.8268 L 1347.1129 1785.8268 C 1350.4266 1785.8268 1353.1129 1788.513 1353.1129 1791.8268 L 1353.1129 1828.0158 C 1353.1129 1831.3295 1350.4266 1834.0158 1347.1129 1834.0158 L 1237.6536 1834.0158 C 1234.3398 1834.0158 1231.6536 1831.3295 1231.6536 1828.0158 L 1231.6536 1791.8268 C 1231.6536 1788.513 1234.3398 1785.8268 1237.6536 1785.8268 Z"
            fill="#f2f2f2"/>
        <path
            d="M 1237.6536 1785.8268 L 1347.1129 1785.8268 C 1350.4266 1785.8268 1353.1129 1788.513 1353.1129 1791.8268 L 1353.1129 1828.0158 C 1353.1129 1831.3295 1350.4266 1834.0158 1347.1129 1834.0158 L 1237.6536 1834.0158 C 1234.3398 1834.0158 1231.6536 1831.3295 1231.6536 1828.0158 L 1231.6536 1791.8268 C 1231.6536 1788.513 1234.3398 1785.8268 1237.6536 1785.8268 Z"
            stroke="#012b36" stroke-linecap="round" stroke-linejoin="round" stroke-width="1"/>
        <text transform="translate(1236.6536 1798.9213)" fill="black">
          <tspan font-family="Open Sans" font-size="16" fill="black" x="12.432793"
              y="17">Parameters
          </tspan>
        </text>
      </g>
      <g id="Line_34">
        <path d="M 1201.1811 1765.9843 L 1201.1811 1809.9213 L 1231.6536 1809.9213" stroke="#073642"
            stroke-linecap="round" stroke-linejoin="round" stroke-width="1"/>
      </g>
      <g id="Line_36">
        <path d="M 922.7533 1834.0158 L 922.7533 1883.622 L 963.7795 1883.622" stroke="#073642"
            stroke-linecap="round" stroke-linejoin="round" stroke-width="1"/>
      </g>
      <g id="Line_38">
        <path d="M 986.4567 1907.7166 L 986.4567 1952.071 L 1041.2402 1952.071" stroke="#073642"
            stroke-linecap="round" stroke-linejoin="round" stroke-width="1"/>
      </g>
      <g id="Graphic_44">
        <text transform="translate(876.6478 1786.5748)" fill="black">
          <tspan font-family="Open Sans" font-size="12" fill="black" x="0" y="13">1</tspan>
        </text>
      </g>
      <g id="Graphic_46">
        <text transform="translate(938.0041 1858.8583)" fill="black">
          <tspan font-family="Open Sans" font-size="12" fill="black" x="0" y="13">1..*</tspan>
        </text>
      </g>
      <g id="Graphic_47">
        <text transform="translate(1026.8898 1928.307)" fill="black">
          <tspan font-family="Open Sans" font-size="12" fill="black" x="0" y="13">1</tspan>
        </text>
      </g>
      <g id="Graphic_48">
        <text transform="translate(1218.2284 1786.5748)" fill="black">
          <tspan font-family="Open Sans" font-size="12" fill="black" x="0" y="13">1</tspan>
        </text>
      </g>
      <g id="Graphic_35">
        <path
            d="M 969.7795 1859.5276 L 1048.4882 1859.5276 C 1051.8019 1859.5276 1054.4882 1862.2139 1054.4882 1865.5276 L 1054.4882 1901.7166 C 1054.4882 1905.0303 1051.8019 1907.7166 1048.4882 1907.7166 L 969.7795 1907.7166 C 966.4658 1907.7166 963.7795 1905.0303 963.7795 1901.7166 L 963.7795 1865.5276 C 963.7795 1862.2139 966.4658 1859.5276 969.7795 1859.5276 Z"
            fill="#cb4b16" fill-opacity=".2"/>
        <path
            d="M 969.7795 1859.5276 L 1048.4882 1859.5276 C 1051.8019 1859.5276 1054.4882 1862.2139 1054.4882 1865.5276 L 1054.4882 1901.7166 C 1054.4882 1905.0303 1051.8019 1907.7166 1048.4882 1907.7166 L 969.7795 1907.7166 C 966.4658 1907.7166 963.7795 1905.0303 963.7795 1901.7166 L 963.7795 1865.5276 C 963.7795 1862.2139 966.4658 1859.5276 969.7795 1859.5276 Z"
            stroke="#012b36" stroke-linecap="round" stroke-linejoin="round" stroke-width="1"/>
        <text transform="translate(968.7795 1872.622)" fill="black">
          <tspan font-family="Open Sans" font-size="16" fill="black" x="12.47152" y="17">column
          </tspan>
        </text>
      </g>
      <g id="Graphic_37">
        <path
            d="M 1047.2402 1927.9764 L 1145.7913 1927.9764 C 1149.105 1927.9764 1151.7913 1930.6627 1151.7913 1933.9764 L 1151.7913 1970.1654 C 1151.7913 1973.479 1149.105 1976.1654 1145.7913 1976.1654 L 1047.2402 1976.1654 C 1043.9264 1976.1654 1041.2402 1973.479 1041.2402 1970.1654 L 1041.2402 1933.9764 C 1041.2402 1930.6627 1043.9264 1927.9764 1047.2402 1927.9764 Z"
            fill="#cb4b16" fill-opacity=".2"/>
        <path
            d="M 1047.2402 1927.9764 L 1145.7913 1927.9764 C 1149.105 1927.9764 1151.7913 1930.6627 1151.7913 1933.9764 L 1151.7913 1970.1654 C 1151.7913 1973.479 1149.105 1976.1654 1145.7913 1976.1654 L 1047.2402 1976.1654 C 1043.9264 1976.1654 1041.2402 1973.479 1041.2402 1970.1654 L 1041.2402 1933.9764 C 1041.2402 1930.6627 1043.9264 1927.9764 1047.2402 1927.9764 Z"
            stroke="#012b36" stroke-linecap="round" stroke-linejoin="round" stroke-width="1"/>
        <text transform="translate(1046.2402 1941.0709)" fill="black">
          <tspan font-family="Open Sans" font-size="16" fill="black" x="9.576374"
              y="17">expression
          </tspan>
        </text>
      </g>
      <g id="Graphic_49">
        <path
            d="M 1047.7323 1996.6732 L 1115.1024 1996.6732 C 1118.4161 1996.6732 1121.1024 1999.3595 1121.1024 2002.6732 L 1121.1024 2038.8622 C 1121.1024 2042.176 1118.4161 2044.8622 1115.1024 2044.8622 L 1047.7323 2044.8622 C 1044.4186 2044.8622 1041.7323 2042.176 1041.7323 2038.8622 L 1041.7323 2002.6732 C 1041.7323 1999.3595 1044.4186 1996.6732 1047.7323 1996.6732 Z"
            fill="#cb4b16" fill-opacity=".2"/>
        <path
            d="M 1047.7323 1996.6732 L 1115.1024 1996.6732 C 1118.4161 1996.6732 1121.1024 1999.3595 1121.1024 2002.6732 L 1121.1024 2038.8622 C 1121.1024 2042.176 1118.4161 2044.8622 1115.1024 2044.8622 L 1047.7323 2044.8622 C 1044.4186 2044.8622 1041.7323 2042.176 1041.7323 2038.8622 L 1041.7323 2002.6732 C 1041.7323 1999.3595 1044.4186 1996.6732 1047.7323 1996.6732 Z"
            stroke="#012b36" stroke-linecap="round" stroke-linejoin="round" stroke-width="1"/>
        <text transform="translate(1046.7323 2009.7677)" fill="black">
          <tspan font-family="Open Sans" font-size="16" fill="black" x="16.813946" y="17">label
          </tspan>
        </text>
      </g>
      <g id="Line_50">
        <path d="M 986.4567 1907.7166 L 986.4567 2020.7677 L 1041.7323 2020.7677" stroke="#073642"
            stroke-linecap="round" stroke-linejoin="round" stroke-width="1"/>
      </g>
      <g id="Graphic_51">
        <text transform="translate(1014.2159 1996.6732)" fill="black">
          <tspan font-family="Open Sans" font-size="12" fill="black" x="0" y="13">0..1</tspan>
        </text>
      </g>
      <g id="Line_103">
        <path d="M 1262.0184 1834.0158 L 1262.0184 1883.622 L 1304.7905 1883.622" stroke="#073642"
            stroke-linecap="round" stroke-linejoin="round" stroke-width="1"/>
      </g>
      <g id="Graphic_102">
        <text transform="translate(1291.9291 1858.8583)" fill="black">
          <tspan font-family="Open Sans" font-size="12" fill="black" x="0" y="13">1</tspan>
        </text>
      </g>
      <g id="Graphic_101">
        <path
            d="M 1310.7905 1859.5276 L 1361.8376 1859.5276 C 1365.1513 1859.5276 1367.8376 1862.2139 1367.8376 1865.5276 L 1367.8376 1901.7166 C 1367.8376 1905.0303 1365.1513 1907.7166 1361.8376 1907.7166 L 1310.7905 1907.7166 C 1307.4768 1907.7166 1304.7905 1905.0303 1304.7905 1901.7166 L 1304.7905 1865.5276 C 1304.7905 1862.2139 1307.4768 1859.5276 1310.7905 1859.5276 Z"
            fill="#2aa198" fill-opacity=".2"/>
        <path
            d="M 1310.7905 1859.5276 L 1361.8376 1859.5276 C 1365.1513 1859.5276 1367.8376 1862.2139 1367.8376 1865.5276 L 1367.8376 1901.7166 C 1367.8376 1905.0303 1365.1513 1907.7166 1361.8376 1907.7166 L 1310.7905 1907.7166 C 1307.4768 1907.7166 1304.7905 1905.0303 1304.7905 1901.7166 L 1304.7905 1865.5276 C 1304.7905 1862.2139 1307.4768 1859.5276 1310.7905 1859.5276 Z"
            stroke="#012b36" stroke-linecap="round" stroke-linejoin="round" stroke-width="1"/>
        <text transform="translate(1309.7905 1872.622)" fill="black">
          <tspan font-family="Open Sans" font-size="16" fill="black" x="16.328226" y="17">url
          </tspan>
        </text>
      </g>
      <g id="Line_108">
        <path d="M 922.7533 1834.0158 L 922.7533 2095.134 L 964.1524 2095.134" stroke="#073642"
            stroke-linecap="round" stroke-linejoin="round" stroke-width="1"/>
      </g>
      <g id="Graphic_105">
        <text transform="translate(937.6922 2070.37)" fill="black">
          <tspan font-family="Open Sans" font-size="12" fill="black" x="0" y="13">0..*</tspan>
        </text>
      </g>
      <g id="Graphic_104">
        <path
            d="M 970.1524 2071.0394 L 1037.5225 2071.0394 C 1040.8362 2071.0394 1043.5225 2073.7257 1043.5225 2077.0394 L 1043.5225 2113.2284 C 1043.5225 2116.542 1040.8362 2119.2284 1037.5225 2119.2284 L 970.1524 2119.2284 C 966.8387 2119.2284 964.1524 2116.542 964.1524 2113.2284 L 964.1524 2077.0394 C 964.1524 2073.7257 966.8387 2071.0394 970.1524 2071.0394 Z"
            fill="#cb4b16" fill-opacity=".2"/>
        <path
            d="M 970.1524 2071.0394 L 1037.5225 2071.0394 C 1040.8362 2071.0394 1043.5225 2073.7257 1043.5225 2077.0394 L 1043.5225 2113.2284 C 1043.5225 2116.542 1040.8362 2119.2284 1037.5225 2119.2284 L 970.1524 2119.2284 C 966.8387 2119.2284 964.1524 2116.542 964.1524 2113.2284 L 964.1524 2077.0394 C 964.1524 2073.7257 966.8387 2071.0394 970.1524 2071.0394 Z"
            stroke="#012b36" stroke-linecap="round" stroke-linejoin="round" stroke-width="1"/>
        <text transform="translate(969.1524 2084.134)" fill="black">
          <tspan font-family="Open Sans" font-size="16" fill="black" x="17.34129" y="17">filter
          </tspan>
        </text>
      </g>
      <g id="Graphic_110">
        <text transform="translate(937.5984 2138.819)" fill="black">
          <tspan font-family="Open Sans" font-size="12" fill="black" x="0" y="13">0..1</tspan>
        </text>
      </g>
      <g id="Graphic_109">
        <path
            d="M 970.3106 2141.063 L 1037.6807 2141.063 C 1040.9944 2141.063 1043.6807 2143.7493 1043.6807 2147.063 L 1043.6807 2183.252 C 1043.6807 2186.5657 1040.9944 2189.252 1037.6807 2189.252 L 970.3106 2189.252 C 966.9969 2189.252 964.3106 2186.5657 964.3106 2183.252 L 964.3106 2147.063 C 964.3106 2143.7493 966.9969 2141.063 970.3106 2141.063 Z"
            fill="#cb4b16" fill-opacity=".2"/>
        <path
            d="M 970.3106 2141.063 L 1037.6807 2141.063 C 1040.9944 2141.063 1043.6807 2143.7493 1043.6807 2147.063 L 1043.6807 2183.252 C 1043.6807 2186.5657 1040.9944 2189.252 1037.6807 2189.252 L 970.3106 2189.252 C 966.9969 2189.252 964.3106 2186.5657 964.3106 2183.252 L 964.3106 2147.063 C 964.3106 2143.7493 966.9969 2141.063 970.3106 2141.063 Z"
            stroke="#012b36" stroke-linecap="round" stroke-linejoin="round" stroke-width="1"/>
        <text transform="translate(969.3106 2154.1575)" fill="black">
          <tspan font-family="Open Sans" font-size="16" fill="black" x="18.368633" y="17">limit
          </tspan>
        </text>
      </g>
      <g id="Line_113">
        <path d="M 922.7533 1834.0158 L 922.7533 2165.1575 L 964.3106 2165.1575" stroke="#073642"
            stroke-linecap="round" stroke-linejoin="round" stroke-width="1"/>
      </g>
    </g>
  </g>
</svg>
