<?xml version="1.0" encoding="UTF-8"?>
<svg height="299px" version="1.1" viewBox="0 0 685 299" width="685px"
    xmlns="http://www.w3.org/2000/svg">
  <g fill="none" fill-rule="evenodd" id="logo-colour-dark" stroke="none" stroke-width="1">
    <path
        d="M103.5,24.5 C120.344767,24.5 134.328454,36.7497404 137.028839,52.8269996 C189.718472,58.5692837 189.655951,139.629576 136.844363,145.199011 C133.732365,160.765761 119.986521,172.5 103.5,172.5 C87.42702,172.5 73.9589505,161.347052 70.4125861,146.35795 C37.9333574,153.56511 37.8634458,204.200657 70.2003801,211.598873 C73.3909346,196.129267 87.0873869,184.5 103.5,184.5 C122.277681,184.5 137.5,199.722319 137.5,218.5 C137.5,237.277681 122.277681,252.5 103.5,252.5 C86.8961692,252.5 73.072158,240.598178 70.0939351,224.860501 C20.6946318,217.11502 20.6358601,141.07546 69.9163146,133.164368 C72.4760119,116.921751 86.5373783,104.5 103.5,104.5 C120.074293,104.5 133.878648,116.359514 136.890067,132.055544 C172.436157,126.553252 172.369081,71.2281342 136.691149,65.9102175 C133.305548,81.1267339 119.730958,92.5 103.5,92.5 C84.7223185,92.5 69.5,77.2776815 69.5,58.5 C69.5,39.7223185 84.7223185,24.5 103.5,24.5 Z M103.5,197.5 C91.9020203,197.5 82.5,206.90202 82.5,218.5 C82.5,230.09798 91.9020203,239.5 103.5,239.5 C115.09798,239.5 124.5,230.09798 124.5,218.5 C124.5,206.90202 115.09798,197.5 103.5,197.5 Z M103.5,117.5 C91.9020203,117.5 82.5,126.90202 82.5,138.5 C82.5,150.09798 91.9020203,159.5 103.5,159.5 C115.09798,159.5 124.5,150.09798 124.5,138.5 C124.5,126.90202 115.09798,117.5 103.5,117.5 Z M103.5,37.5 C91.9020203,37.5 82.5,46.9020203 82.5,58.5 C82.5,70.0979797 91.9020203,79.5 103.5,79.5 C115.09798,79.5 124.5,70.0979797 124.5,58.5 C124.5,46.9020203 115.09798,37.5 103.5,37.5 Z"
        fill="#2CA0B6" fill-rule="nonzero" id="Combined-Shape"></path>
    <path
        d="M171.699,246 L171.699,145.938 L203.217,145.938 C208.725028,145.938 213.850476,146.447995 218.5935,147.468 C223.336524,148.488005 227.441983,150.221988 230.91,152.67 C234.378017,155.118012 237.08099,158.30548 239.019,162.2325 C240.95701,166.15952 241.926,171.029971 241.926,176.844 C241.926,182.352028 240.95701,187.14598 239.019,191.226 C237.08099,195.30602 234.403517,198.697486 230.9865,201.4005 C227.569483,204.103514 223.540523,206.092494 218.8995,207.3675 C214.258477,208.642506 209.235027,209.28 203.829,209.28 L189.447,209.28 L189.447,246 L171.699,246 Z M189.447,195.051 L202.452,195.051 C217.140073,195.051 224.484,188.982061 224.484,176.844 C224.484,170.519968 222.571519,166.159512 218.7465,163.7625 C214.921481,161.365488 209.286037,160.167 201.84,160.167 L189.447,160.167 L189.447,195.051 Z M263.608,247.836 C256.977967,247.836 251.62302,245.82152 247.543,241.7925 C243.46298,237.76348 241.423,232.434033 241.423,225.804 C241.423,221.82598 242.264492,218.281516 243.9475,215.1705 C245.630508,212.059484 248.282482,209.382011 251.9035,207.138 C255.524518,204.893989 260.114472,203.007008 265.6735,201.477 C271.232528,199.946992 277.887961,198.774004 285.64,197.958 C285.537999,196.01999 285.257502,194.158509 284.7985,192.3735 C284.339498,190.588491 283.574505,189.007507 282.5035,187.6305 C281.432495,186.253493 280.030009,185.182504 278.296,184.4175 C276.561991,183.652496 274.420013,183.27 271.87,183.27 C268.197982,183.27 264.602518,183.983993 261.0835,185.412 C257.564482,186.840007 254.122017,188.57399 250.756,190.614 L244.33,178.833 C248.512021,176.180987 253.203974,173.88601 258.406,171.948 C263.608026,170.00999 269.21797,169.041 275.236,169.041 C284.620047,169.041 291.632477,171.820472 296.2735,177.3795 C300.914523,182.938528 303.235,190.970947 303.235,201.477 L303.235,246 L288.7,246 L287.476,237.738 L286.864,237.738 C283.497983,240.594014 279.902519,242.99099 276.0775,244.929 C272.252481,246.86701 268.096022,247.836 263.608,247.836 Z M269.269,234.066 C272.329015,234.066 275.108488,233.352007 277.6075,231.924 C280.106512,230.495993 282.783986,228.456013 285.64,225.804 L285.64,208.974 C280.539974,209.586003 276.256017,210.401995 272.788,211.422 C269.319983,212.442005 266.515011,213.589494 264.373,214.8645 C262.230989,216.139506 260.701005,217.592992 259.783,219.225 C258.864995,220.857008 258.406,222.590991 258.406,224.427 C258.406,227.793017 259.42599,230.240992 261.466,231.771 C263.50601,233.301008 266.106984,234.066 269.269,234.066 Z M340.37,247.836 C335.983978,247.836 332.286515,247.173007 329.2775,245.847 C326.268485,244.520993 323.820509,242.659512 321.9335,240.2625 C320.046491,237.865488 318.669504,235.009517 317.8025,231.6945 C316.935496,228.379483 316.502,224.68202 316.502,220.602 L316.502,184.8 L305.792,184.8 L305.792,171.642 L317.42,170.877 L319.562,150.375 L334.25,150.375 L334.25,170.877 L353.375,170.877 L353.375,184.8 L334.25,184.8 L334.25,220.602 C334.25,229.374044 337.768965,233.76 344.807,233.76 C346.133007,233.76 347.484493,233.607002 348.8615,233.301 C350.238507,232.994998 351.487994,232.587003 352.61,232.077 L355.67,245.082 C353.62999,245.796004 351.309513,246.433497 348.7085,246.9945 C346.107487,247.555503 343.328015,247.836 340.37,247.836 Z M361.134,246 L361.134,137.982 L378.729,137.982 L378.729,165.828 L378.117,180.363 C381.279016,177.404985 384.772481,174.778511 388.5975,172.4835 C392.422519,170.188489 396.935974,169.041 402.138,169.041 C410.19604,169.041 416.060982,171.616474 419.733,176.7675 C423.405018,181.918526 425.241,189.287952 425.241,198.876 L425.241,246 L407.646,246 L407.646,201.171 C407.646,194.948969 406.728009,190.563013 404.892,188.013 C403.055991,185.462987 400.047021,184.188 395.865,184.188 C392.600984,184.188 389.719512,184.978492 387.2205,186.5595 C384.721488,188.140508 381.891016,190.460985 378.729,193.521 L378.729,246 L361.134,246 Z M455.644,247.836 C449.319968,247.836 444.883013,245.949019 442.333,242.175 C439.782987,238.400981 438.508,233.250033 438.508,226.722 L438.508,137.982 L456.103,137.982 L456.103,227.64 C456.103,229.782011 456.510996,231.286496 457.327,232.1535 C458.143004,233.020504 459.009995,233.454 459.928,233.454 L461.0755,233.454 C461.432502,233.454 461.967996,233.352001 462.682,233.148 L464.977,246.306 C462.630988,247.326005 459.520019,247.836 455.644,247.836 Z M471.971,246 L471.971,170.877 L489.566,170.877 L489.566,246 L471.971,246 Z M480.845,157.719 C477.682984,157.719 475.08201,156.801009 473.042,154.965 C471.00199,153.128991 469.982,150.732015 469.982,147.774 C469.982,144.815985 471.00199,142.393509 473.042,140.5065 C475.08201,138.619491 477.682984,137.676 480.845,137.676 C484.007016,137.676 486.60799,138.619491 488.648,140.5065 C490.68801,142.393509 491.708,144.815985 491.708,147.774 C491.708,150.732015 490.68801,153.128991 488.648,154.965 C486.60799,156.801009 484.007016,157.719 480.845,157.719 Z M504.057,246 L504.057,170.877 L518.592,170.877 L519.816,180.975 L520.428,180.975 C523.794017,177.710984 527.44048,174.906012 531.3675,172.56 C535.29452,170.213988 539.858974,169.041 545.061,169.041 C553.11904,169.041 558.983982,171.616474 562.656,176.7675 C566.328018,181.918526 568.164,189.287952 568.164,198.876 L568.164,246 L550.569,246 L550.569,201.171 C550.569,194.948969 549.651009,190.563013 547.815,188.013 C545.978991,185.462987 542.970021,184.188 538.788,184.188 C535.523984,184.188 532.642512,184.978492 530.1435,186.5595 C527.644488,188.140508 524.814016,190.460985 521.652,193.521 L521.652,246 L504.057,246 Z M607.9,279.201 C603.411978,279.201 599.255519,278.793004 595.4305,277.977 C591.605481,277.160996 588.316014,275.937008 585.562,274.305 C582.807986,272.672992 580.640508,270.633012 579.0595,268.185 C577.478492,265.736988 576.688,262.881016 576.688,259.617 C576.688,256.454984 577.605991,253.522514 579.442,250.8195 C581.278009,248.116486 583.929983,245.694011 587.398,243.552 L587.398,242.94 C585.45999,241.715994 583.853506,240.08401 582.5785,238.044 C581.303494,236.00399 580.666,233.454015 580.666,230.394 C580.666,227.435985 581.507492,224.758512 583.1905,222.3615 C584.873508,219.964488 586.785989,218.001008 588.928,216.471 L588.928,215.859 C586.377987,213.92099 584.10851,211.243517 582.1195,207.8265 C580.13049,204.409483 579.136,200.457022 579.136,195.969 C579.136,191.684979 579.951992,187.860017 581.584,184.494 C583.216008,181.127983 585.383486,178.297511 588.0865,176.0025 C590.789514,173.707489 593.925982,171.973506 597.496,170.8005 C601.066018,169.627494 604.83998,169.041 608.818,169.041 C610.85801,169.041 612.821491,169.219498 614.7085,169.5765 C616.595509,169.933502 618.303992,170.366997 619.834,170.877 L646.762,170.877 L646.762,183.882 L632.992,183.882 C634.216006,185.310007 635.235996,187.120489 636.052,189.3135 C636.868004,191.506511 637.276,193.928987 637.276,196.581 C637.276,200.763021 636.536507,204.434984 635.0575,207.597 C633.578493,210.759016 631.564013,213.410989 629.014,215.553 C626.463987,217.695011 623.455017,219.326994 619.987,220.449 C616.518983,221.571006 612.79602,222.132 608.818,222.132 C607.185992,222.132 605.503009,221.979002 603.769,221.673 C602.034991,221.366998 600.301009,220.857004 598.567,220.143 C597.444994,221.163005 596.552503,222.182995 595.8895,223.203 C595.226497,224.223005 594.895,225.599991 594.895,227.334 C594.895,229.476011 595.787491,231.158994 597.5725,232.383 C599.357509,233.607006 602.544977,234.219 607.135,234.219 L620.446,234.219 C629.524045,234.219 636.383477,235.672485 641.0245,238.5795 C645.665523,241.486515 647.986,246.203967 647.986,252.732 C647.986,256.404018 647.042509,259.871984 645.1555,263.136 C643.268491,266.400016 640.591017,269.204988 637.123,271.551 C633.654983,273.897012 629.447525,275.758493 624.5005,277.1355 C619.553475,278.512507 614.020031,279.201 607.9,279.201 Z M608.818,211.116 C612.388018,211.116 615.447987,209.815513 617.998,207.2145 C620.548013,204.613487 621.823,200.865024 621.823,195.969 C621.823,191.276977 620.573512,187.630513 618.0745,185.0295 C615.575488,182.428487 612.490018,181.128 608.818,181.128 C605.145982,181.128 602.035013,182.402987 599.485,184.953 C596.934987,187.503013 595.66,191.174976 595.66,195.969 C595.66,200.865024 596.934987,204.613487 599.485,207.2145 C602.035013,209.815513 605.145982,211.116 608.818,211.116 Z M610.654,267.726 C616.774031,267.726 621.695481,266.527512 625.4185,264.1305 C629.141519,261.733488 631.003,258.903016 631.003,255.639 C631.003,252.680985 629.855511,250.692005 627.5605,249.672 C625.265489,248.651995 621.976021,248.142 617.692,248.142 L607.441,248.142 C603.36098,248.142 599.944014,247.785004 597.19,247.071 C593.313981,250.029015 591.376,253.343982 591.376,257.016 C591.376,260.382017 593.084483,263.008491 596.5015,264.8955 C599.918517,266.782509 604.63597,267.726 610.654,267.726 Z"
        fill="#FFFFFF" fill-rule="nonzero" id="Pathling"></path>
  </g>
  <title>logo-colour-dark</title>
</svg>
