<?xml version="1.0" encoding="UTF-8"?>
<svg width="645px" height="280px" viewBox="0 0 645 280" version="1.1" xmlns="http://www.w3.org/2000/svg" xmlns:xlink="http://www.w3.org/1999/xlink">
    <title>logo-colour-detail-outline</title>
    <g id="logo-colour-detail-outline" stroke="none" stroke-width="1" fill="none" fill-rule="evenodd">
        <rect fill="#333333" x="0" y="0" width="645" height="280"></rect>
        <path d="M84.9994986,-0.5 C96.8510452,-0.5 107.809856,3.68980699 116.387748,10.7236663 C122.00439,15.3293047 126.597541,21.1547036 129.755791,27.8197006 C130.119731,28.5877374 130.462975,29.3634604 130.786968,30.1457245 C131.599918,30.385329 132.413535,30.6448032 133.227516,30.9245873 C143.82027,34.5655594 152.249619,40.881186 158.588334,48.698192 C167.836733,60.1034682 172.572834,74.9402001 172.498385,89.8219014 C172.449198,99.6539396 170.295971,109.43504 166.144924,118.208672 L165.794381,118.937455 L186.217,118.938 C192.780917,118.938 198.885997,119.565663 204.536957,120.780924 C211.272893,122.229512 217.066443,124.76154 221.983565,128.23245 C226.908825,131.709104 230.859461,136.133174 233.796895,141.53799 C234.602789,143.020817 235.305256,144.527483 235.906201,146.056554 C237.50274,145.444279 239.111075,144.905058 240.730857,144.438037 C246.232205,142.85187 252.065178,142.041 258.236,142.041 C265.072116,142.041 270.985581,143.129896 276.066309,145.188018 L276.60749,145.412234 L287.721633,144.682741 L289.948364,123.374863 L330.133029,123.373848 L330.133683,110.982 L375.728807,110.982 L375.727796,142.499432 L382.671507,142.102895 C383.071245,142.082582 383.473888,142.067246 383.879451,142.056921 L384.489988,142.045195 L385.156394,142.041003 C394.304665,142.044 401.526348,144.282998 407.128629,148.429927 L407.508097,148.715625 L407.508013,110.982 L459.519082,110.982 C460.900423,110.779336 462.341845,110.676 463.845,110.676 C470.936319,110.676 476.629183,113.043108 481.154588,117.229108 C486.079494,121.784646 488.708,127.582663 488.708,134.774 C488.708,135.431226 488.68697,136.076629 488.64484,136.710339 L488.595675,137.340157 L488.008746,143.876671 L515.360939,143.87701 C519.146823,142.758978 522.783573,142.174837 526.643031,142.061573 L527.418002,142.04518 L528.079458,142.041003 C540.244766,142.045068 548.994193,146.068597 555.012535,153.043202 L555.311179,153.394386 L560.978234,153.250472 C565.26467,149.353944 570.300629,146.414058 576.125854,144.500056 C581.073853,142.874285 586.302274,142.041 591.818,142.041 C594.759786,142.041 597.590274,142.305788 600.310983,142.820517 C601.665953,143.076862 602.952673,143.365432 604.172045,143.683003 L604.895593,143.877 L643.762,143.877 L643.762,184.882 L634.392946,184.882 C633.952201,191.038647 632.890409,195.592129 631.156295,199.601131 L630.967923,200.028632 L630.729577,200.548367 C630.162625,201.75879 629.545735,202.921612 628.879175,204.037179 L628.47328,204.700851 L625.304768,209.763126 L630.352226,212.955189 C639.837227,218.953598 644.986,227.314507 644.986,239.732 C644.986,245.872412 643.433688,251.680727 640.275788,257.143041 C637.374092,262.16219 633.310526,266.532454 627.967331,270.146968 C623.369987,273.256936 617.821397,275.794909 611.254685,277.622757 C605.188896,279.311172 598.408595,280.201 590.9,280.201 C585.359065,280.201 580.230578,279.67605 575.509561,278.6689 C570.035451,277.501089 565.359782,275.680943 561.424767,273.349081 C556.686647,270.541307 553.013069,266.982865 550.298949,262.780356 C547.475038,258.407849 545.850833,253.371056 545.705762,247.582454 L545.696196,247.001084 L451.315927,247.001151 C447.896557,248.138542 443.695828,248.836 438.644,248.836 C434.250892,248.836 430.428835,248.258845 427.10839,247.176449 L426.588268,247.001356 L337.568753,247.000455 C336.632684,247.236785 335.663245,247.463458 334.66023,247.679795 C331.138489,248.439386 327.376377,248.836 323.37,248.836 C317.770155,248.836 312.947135,248.000899 308.84837,246.539338 L308.339792,246.353395 L300.228538,243.313754 L300.231,247 L259.047572,247 C255.458954,248.096738 251.822709,248.695104 248.030087,248.813883 L247.269446,248.83125 L246.587723,248.835996 C235.807134,248.831506 227.280168,245.246089 220.705961,238.754059 C214.367644,232.494971 210.733688,224.398835 210.442401,214.177019 C210.362059,211.35766 210.544808,208.685269 210.976398,206.155003 C208.331941,207.117088 205.70311,207.898101 203.091922,208.502451 C200.168565,209.179051 197.128056,209.666454 193.970222,209.957859 L192.913265,210.047726 L186.447,210.507304 L186.447,242 C186.447,242.904078 186.131571,243.696434 185.616262,244.393947 C184.724622,245.600855 183.362564,246.553669 181.773312,247.379283 C176.987259,249.865633 170.261315,251 163.573023,251 C156.884728,251 150.158779,249.865632 145.372717,247.379281 C143.783459,246.553665 142.421395,245.600848 141.529749,244.393938 C141.014436,243.696422 140.699003,242.904063 140.699,241.999982 C140.698989,238.476087 141.860364,225.65568 144.183124,203.538762 C130.572134,226.003875 122.511521,238.491549 120.001284,241.001786 C111.043546,249.959524 98.6685461,255.5 84.9994986,255.5 C73.4567944,255.5 62.7494631,251.522947 54.2666977,244.804838 C48.5500067,240.277381 43.8465972,234.504234 40.5745694,227.865106 C40.2254786,227.156781 39.8941298,226.441539 39.5799854,225.719934 C38.8320504,225.468436 38.0844947,225.1999 37.337584,224.913999 C27.2240415,221.042757 19.1484396,214.722452 13.0573288,206.999628 C4.31626078,195.916965 -0.279139309,181.770886 -0.479805753,167.518162 C-0.681591247,153.185955 3.56421417,138.860369 11.9903661,127.557584 C17.9916606,119.507486 26.077357,112.904896 36.2903681,108.854851 L36.9594505,108.594348 L39.8524416,107.508925 L41.1501618,105.000754 C43.3458194,100.819078 46.116905,97.0026572 49.3526467,93.6490972 L49.8962204,93.094473 L50.2521488,84.2538675 C41.3336814,75.3374676 35.8369356,63.426676 35.5145258,50.2325897 L35.503091,49.6033367 L35.4995014,48.9831233 C35.5040598,35.3207666 41.0436615,22.9522657 49.9977129,13.9982143 C58.955451,5.04047622 71.330451,-0.5 84.9994986,-0.5 Z" id="Outline" fill="#FFFFFF" fill-rule="nonzero"></path>
        <path d="M154.699,233 L154.699,132.938 L186.217,132.938 C191.725028,132.938 196.850476,133.447995 201.5935,134.468 C206.336524,135.488005 210.441983,137.221988 213.91,139.67 C217.378017,142.118012 220.08099,145.30548 222.019,149.2325 C223.95701,153.15952 224.926,158.029971 224.926,163.844 C224.926,169.352028 223.95701,174.14598 222.019,178.226 C220.08099,182.30602 217.403517,185.697486 213.9865,188.4005 C210.569483,191.103514 206.540523,193.092494 201.8995,194.3675 C197.258477,195.642506 192.235027,196.28 186.829,196.28 L172.447,196.28 L172.447,233 L154.699,233 Z M172.447,182.051 L185.452,182.051 C200.140073,182.051 207.484,175.982061 207.484,163.844 C207.484,157.519968 205.571519,153.159512 201.7465,150.7625 C197.921481,148.365488 192.286037,147.167 184.84,147.167 L172.447,147.167 L172.447,182.051 Z M246.608,234.836 C239.977967,234.836 234.62302,232.82152 230.543,228.7925 C226.46298,224.76348 224.423,219.434033 224.423,212.804 C224.423,208.82598 225.264492,205.281516 226.9475,202.1705 C228.630508,199.059484 231.282482,196.382011 234.9035,194.138 C238.524518,191.893989 243.114472,190.007008 248.6735,188.477 C254.232528,186.946992 260.887961,185.774004 268.64,184.958 C268.537999,183.01999 268.257502,181.158509 267.7985,179.3735 C267.339498,177.588491 266.574505,176.007507 265.5035,174.6305 C264.432495,173.253493 263.030009,172.182504 261.296,171.4175 C259.561991,170.652496 257.420013,170.27 254.87,170.27 C251.197982,170.27 247.602518,170.983993 244.0835,172.412 C240.564482,173.840007 237.122017,175.57399 233.756,177.614 L227.33,165.833 C231.512021,163.180987 236.203974,160.88601 241.406,158.948 C246.608026,157.00999 252.21797,156.041 258.236,156.041 C267.620047,156.041 274.632477,158.820472 279.2735,164.3795 C283.914523,169.938528 286.235,177.970947 286.235,188.477 L286.235,233 L271.7,233 L270.476,224.738 L269.864,224.738 C266.497983,227.594014 262.902519,229.99099 259.0775,231.929 C255.252481,233.86701 251.096022,234.836 246.608,234.836 Z M252.269,221.066 C255.329015,221.066 258.108488,220.352007 260.6075,218.924 C263.106512,217.495993 265.783986,215.456013 268.64,212.804 L268.64,195.974 C263.539974,196.586003 259.256017,197.401995 255.788,198.422 C252.319983,199.442005 249.515011,200.589494 247.373,201.8645 C245.230989,203.139506 243.701005,204.592992 242.783,206.225 C241.864995,207.857008 241.406,209.590991 241.406,211.427 C241.406,214.793017 242.42599,217.240992 244.466,218.771 C246.50601,220.301008 249.106984,221.066 252.269,221.066 Z M323.37,234.836 C318.983978,234.836 315.286515,234.173007 312.2775,232.847 C309.268485,231.520993 306.820509,229.659512 304.9335,227.2625 C303.046491,224.865488 301.669504,222.009517 300.8025,218.6945 C299.935496,215.379483 299.502,211.68202 299.502,207.602 L299.502,171.8 L288.792,171.8 L288.792,158.642 L300.42,157.877 L302.562,137.375 L317.25,137.375 L317.25,157.877 L336.375,157.877 L336.375,171.8 L317.25,171.8 L317.25,207.602 C317.25,216.374044 320.768965,220.76 327.807,220.76 C329.133007,220.76 330.484493,220.607002 331.8615,220.301 C333.238507,219.994998 334.487994,219.587003 335.61,219.077 L338.67,232.082 C336.62999,232.796004 334.309513,233.433497 331.7085,233.9945 C329.107487,234.555503 326.328015,234.836 323.37,234.836 Z M344.134,233 L344.134,124.982 L361.729,124.982 L361.729,152.828 L361.117,167.363 C364.279016,164.404985 367.772481,161.778511 371.5975,159.4835 C375.422519,157.188489 379.935974,156.041 385.138,156.041 C393.19604,156.041 399.060982,158.616474 402.733,163.7675 C406.405018,168.918526 408.241,176.287952 408.241,185.876 L408.241,233 L390.646,233 L390.646,188.171 C390.646,181.948969 389.728009,177.563013 387.892,175.013 C386.055991,172.462987 383.047021,171.188 378.865,171.188 C375.600984,171.188 372.719512,171.978492 370.2205,173.5595 C367.721488,175.140508 364.891016,177.460985 361.729,180.521 L361.729,233 L344.134,233 Z M438.644,234.836 C432.319968,234.836 427.883013,232.949019 425.333,229.175 C422.782987,225.400981 421.508,220.250033 421.508,213.722 L421.508,124.982 L439.103,124.982 L439.103,214.64 C439.103,216.782011 439.510996,218.286496 440.327,219.1535 C441.143004,220.020504 442.009995,220.454 442.928,220.454 L444.0755,220.454 C444.432502,220.454 444.967996,220.352001 445.682,220.148 L447.977,233.306 C445.630988,234.326005 442.520019,234.836 438.644,234.836 Z M454.971,233 L454.971,157.877 L472.566,157.877 L472.566,233 L454.971,233 Z M463.845,144.719 C460.682984,144.719 458.08201,143.801009 456.042,141.965 C454.00199,140.128991 452.982,137.732015 452.982,134.774 C452.982,131.815985 454.00199,129.393509 456.042,127.5065 C458.08201,125.619491 460.682984,124.676 463.845,124.676 C467.007016,124.676 469.60799,125.619491 471.648,127.5065 C473.68801,129.393509 474.708,131.815985 474.708,134.774 C474.708,137.732015 473.68801,140.128991 471.648,141.965 C469.60799,143.801009 467.007016,144.719 463.845,144.719 Z M487.057,233 L487.057,157.877 L501.592,157.877 L502.816,167.975 L503.428,167.975 C506.794017,164.710984 510.44048,161.906012 514.3675,159.56 C518.29452,157.213988 522.858974,156.041 528.061,156.041 C536.11904,156.041 541.983982,158.616474 545.656,163.7675 C549.328018,168.918526 551.164,176.287952 551.164,185.876 L551.164,233 L533.569,233 L533.569,188.171 C533.569,181.948969 532.651009,177.563013 530.815,175.013 C528.978991,172.462987 525.970021,171.188 521.788,171.188 C518.523984,171.188 515.642512,171.978492 513.1435,173.5595 C510.644488,175.140508 507.814016,177.460985 504.652,180.521 L504.652,233 L487.057,233 Z M590.9,266.201 C586.411978,266.201 582.255519,265.793004 578.4305,264.977 C574.605481,264.160996 571.316014,262.937008 568.562,261.305 C565.807986,259.672992 563.640508,257.633012 562.0595,255.185 C560.478492,252.736988 559.688,249.881016 559.688,246.617 C559.688,243.454984 560.605991,240.522514 562.442,237.8195 C564.278009,235.116486 566.929983,232.694011 570.398,230.552 L570.398,229.94 C568.45999,228.715994 566.853506,227.08401 565.5785,225.044 C564.303494,223.00399 563.666,220.454015 563.666,217.394 C563.666,214.435985 564.507492,211.758512 566.1905,209.3615 C567.873508,206.964488 569.785989,205.001008 571.928,203.471 L571.928,202.859 C569.377987,200.92099 567.10851,198.243517 565.1195,194.8265 C563.13049,191.409483 562.136,187.457022 562.136,182.969 C562.136,178.684979 562.951992,174.860017 564.584,171.494 C566.216008,168.127983 568.383486,165.297511 571.0865,163.0025 C573.789514,160.707489 576.925982,158.973506 580.496,157.8005 C584.066018,156.627494 587.83998,156.041 591.818,156.041 C593.85801,156.041 595.821491,156.219498 597.7085,156.5765 C599.595509,156.933502 601.303992,157.366997 602.834,157.877 L629.762,157.877 L629.762,170.882 L615.992,170.882 C617.216006,172.310007 618.235996,174.120489 619.052,176.3135 C619.868004,178.506511 620.276,180.928987 620.276,183.581 C620.276,187.763021 619.536507,191.434984 618.0575,194.597 C616.578493,197.759016 614.564013,200.410989 612.014,202.553 C609.463987,204.695011 606.455017,206.326994 602.987,207.449 C599.518983,208.571006 595.79602,209.132 591.818,209.132 C590.185992,209.132 588.503009,208.979002 586.769,208.673 C585.034991,208.366998 583.301009,207.857004 581.567,207.143 C580.444994,208.163005 579.552503,209.182995 578.8895,210.203 C578.226497,211.223005 577.895,212.599991 577.895,214.334 C577.895,216.476011 578.787491,218.158994 580.5725,219.383 C582.357509,220.607006 585.544977,221.219 590.135,221.219 L603.446,221.219 C612.524045,221.219 619.383477,222.672485 624.0245,225.5795 C628.665523,228.486515 630.986,233.203967 630.986,239.732 C630.986,243.404018 630.042509,246.871984 628.1555,250.136 C626.268491,253.400016 623.591017,256.204988 620.123,258.551 C616.654983,260.897012 612.447525,262.758493 607.5005,264.1355 C602.553475,265.512507 597.020031,266.201 590.9,266.201 Z M591.818,198.116 C595.388018,198.116 598.447987,196.815513 600.998,194.2145 C603.548013,191.613487 604.823,187.865024 604.823,182.969 C604.823,178.276977 603.573512,174.630513 601.0745,172.0295 C598.575488,169.428487 595.490018,168.128 591.818,168.128 C588.145982,168.128 585.035013,169.402987 582.485,171.953 C579.934987,174.503013 578.66,178.174976 578.66,182.969 C578.66,187.865024 579.934987,191.613487 582.485,194.2145 C585.035013,196.815513 588.145982,198.116 591.818,198.116 Z M593.654,254.726 C599.774031,254.726 604.695481,253.527512 608.4185,251.1305 C612.141519,248.733488 614.003,245.903016 614.003,242.639 C614.003,239.680985 612.855511,237.692005 610.5605,236.672 C608.265489,235.651995 604.976021,235.142 600.692,235.142 L590.441,235.142 C586.36098,235.142 582.944014,234.785004 580.19,234.071 C576.313981,237.029015 574.376,240.343982 574.376,244.016 C574.376,247.382017 576.084483,250.008491 579.5015,251.8955 C582.918517,253.782509 587.63597,254.726 593.654,254.726 Z" id="Pathling" fill="#000000" fill-rule="nonzero"></path>
        <g id="Group" transform="translate(13.499978, 13.500000)" fill-rule="nonzero">
            <path d="M71.500022,0.5 C88.1305233,0.5 101.88776,12.8019094 104.168183,28.8021798 C155.395581,34.2824996 155.276152,114.101181 103.812513,119.240516 C100.700577,134.232246 87.4161621,145.5 71.500022,145.5 C55.4860441,145.5 42.1362453,134.093293 39.13236,118.961612 C6.98342234,125.696853 7.05193599,176.533512 39.3359725,183.084972 C42.7021625,168.429282 55.824757,157.5 71.500022,157.5 C89.7254188,157.5 104.500022,172.274603 104.500022,190.5 C104.500022,208.725397 89.7254188,223.5 71.500022,223.5 C55.1341744,223.5 41.5508704,211.586514 38.9494164,195.958849 C-9.71110284,188.84598 -9.64836329,112.949491 39.133639,106.007762 C42.1509683,90.8941314 55.4948742,79.5 71.500022,79.5 C87.6354794,79.5 101.066184,91.0804226 103.934256,106.383387 C138.733505,101.210676 138.592024,46.3246583 103.51214,41.5513473 C99.9156322,55.8863166 86.9473064,66.5 71.500022,66.5 C53.2746253,66.5 38.500022,51.7253967 38.500022,33.5 C38.500022,15.2746033 53.2746253,0.5 71.500022,0.5 Z M71.500022,170.117647 C60.2431593,170.117647 51.1176691,179.243137 51.1176691,190.5 C51.1176691,201.756863 60.2431593,210.882353 71.500022,210.882353 C82.7568847,210.882353 91.882375,201.756863 91.882375,190.5 C91.882375,179.243137 82.7568847,170.117647 71.500022,170.117647 Z M71.500022,92.1176471 C60.2431593,92.1176471 51.1176691,101.243137 51.1176691,112.5 C51.1176691,123.756863 60.2431593,132.882353 71.500022,132.882353 C82.7568847,132.882353 91.882375,123.756863 91.882375,112.5 C91.882375,101.243137 82.7568847,92.1176471 71.500022,92.1176471 Z M71.500022,13.1176471 C60.2431593,13.1176471 51.1176691,22.2431373 51.1176691,33.5 C51.1176691,44.7568627 60.2431593,53.8823529 71.500022,53.8823529 C82.7568847,53.8823529 91.882375,44.7568627 91.882375,33.5 C91.882375,22.2431373 82.7568847,13.1176471 71.500022,13.1176471 Z" id="Combined-Shape" fill="#2CA0B6"></path>
            <path d="M71.4995206,0 C88.5737296,0 103.064366,12.1253307 106.31985,28.552622 C158.101687,36.0004993 157.840213,116.527621 105.84476,123.519319 C101.808101,138.94899 87.7866884,150 71.4995206,150 C55.376336,150 41.48517,139.172583 37.2867272,124.00658 C10.8898857,131.916962 11.0202681,174.400448 37.5543001,182.0761 C42.0609051,167.363063 55.7304714,157 71.4995206,157 C91.1056292,157 106.999521,172.893891 106.999521,192.5 C106.999521,212.106109 91.1056292,228 71.4995206,228 C54.8595414,228 40.6399884,216.475992 36.9336854,200.624842 L36.8245982,200.14318 C-11.8890707,191.255001 -12.2469015,116.081731 35.6027012,106.0891 L37.067459,105.806377 C40.9895605,90.216009 55.0901386,79 71.4995206,79 C87.8060451,79 101.815407,90.0723692 105.844246,105.483106 C134.850183,98.8685399 134.574162,52.5093526 105.297742,46.393495 C100.638054,60.8767189 87.0824818,71 71.4995206,71 C51.893412,71 35.9995206,55.1061086 35.9995206,35.5 C35.9995206,15.8938914 51.893412,0 71.4995206,0 Z M71.4995206,5 C54.6548357,5 40.9995206,18.6553151 40.9995206,35.5 C40.9995206,52.3446849 54.6548357,66 71.4995206,66 C85.5655467,66 97.7111952,56.397435 101.086791,42.9429762 L101.631353,40.7724598 L103.848707,41.0741745 C141.739135,46.2299155 142.016984,105.249999 104.301326,110.856218 L101.920022,111.210185 L101.476538,108.843917 C98.7938686,94.5301894 86.2374814,84 71.4995206,84 C56.890896,84 44.4092505,94.349486 41.5847574,108.49721 L41.2381389,110.233403 L39.485342,110.482828 C-6.41242969,117.014128 -6.51930461,188.786042 39.3105056,195.485136 L41.1154498,195.748971 L41.4149805,197.548336 C43.845324,212.148092 56.5343506,223 71.4995206,223 C88.3442055,223 101.999521,209.344685 101.999521,192.5 C101.999521,175.655315 88.3442055,162 71.4995206,162 C57.211884,162 44.9279339,171.904449 41.7720267,185.644612 L41.2265092,188.019681 L38.8382757,187.535033 C3.91684095,180.44836 3.78750923,125.812021 38.6192345,118.514733 L41.092055,117.996674 L41.5840074,120.474821 C44.3954697,134.637195 56.8809073,145 71.4995206,145 C86.0217963,145 98.4500459,134.771282 101.364191,120.732406 L101.737234,118.935276 L103.563588,118.75289 C151.982473,113.917614 152.193051,38.4542111 103.901748,33.2879955 L101.96721,33.0810381 L101.692692,31.1549252 C99.5653027,16.2283925 86.7271233,5 71.4995206,5 Z M71.4995206,169.617647 C84.1370952,169.617647 94.3818735,179.862425 94.3818735,192.5 C94.3818735,205.137575 84.1370952,215.382353 71.4995206,215.382353 C58.861946,215.382353 48.6171677,205.137575 48.6171677,192.5 C48.6171677,179.862425 58.861946,169.617647 71.4995206,169.617647 Z M71.4995206,174.617647 C61.6233698,174.617647 53.6171677,182.623849 53.6171677,192.5 C53.6171677,202.376151 61.6233698,210.382353 71.4995206,210.382353 C81.3756714,210.382353 89.3818735,202.376151 89.3818735,192.5 C89.3818735,182.623849 81.3756714,174.617647 71.4995206,174.617647 Z M71.4995206,91.6176471 C84.1370952,91.6176471 94.3818735,101.862425 94.3818735,114.5 C94.3818735,127.137575 84.1370952,137.382353 71.4995206,137.382353 C58.861946,137.382353 48.6171677,127.137575 48.6171677,114.5 C48.6171677,101.862425 58.861946,91.6176471 71.4995206,91.6176471 Z M71.4995206,96.6176471 C61.6233698,96.6176471 53.6171677,104.623849 53.6171677,114.5 C53.6171677,124.376151 61.6233698,132.382353 71.4995206,132.382353 C81.3756714,132.382353 89.3818735,124.376151 89.3818735,114.5 C89.3818735,104.623849 81.3756714,96.6176471 71.4995206,96.6176471 Z M71.4995206,12.6176471 C84.1370952,12.6176471 94.3818735,22.8624254 94.3818735,35.5 C94.3818735,48.1375746 84.1370952,58.3823529 71.4995206,58.3823529 C58.861946,58.3823529 48.6171677,48.1375746 48.6171677,35.5 C48.6171677,22.8624254 58.861946,12.6176471 71.4995206,12.6176471 Z M71.4995206,17.6176471 C61.6233698,17.6176471 53.6171677,25.6238492 53.6171677,35.5 C53.6171677,45.3761508 61.6233698,53.3823529 71.4995206,53.3823529 C81.3756714,53.3823529 89.3818735,45.3761508 89.3818735,35.5 C89.3818735,25.6238492 81.3756714,17.6176471 71.4995206,17.6176471 Z" id="Combined-Shape" fill="#164E59"></path>
        </g>
    </g>
</svg>