<svg xmlns="http://www.w3.org/2000/svg" width="615" height="256" viewBox="0 0 615 256">
  <g fill="none" fill-rule="evenodd">
    <path fill="#333" fill-rule="nonzero" d="M70.5,0.5 C87.344767,0.5 101.328454,12.7497404 104.028839,28.8269996 C156.718472,34.5692837 156.655951,115.629576 103.844363,121.199011 C100.732365,136.765761 86.9865214,148.5 70.5,148.5 C54.42702,148.5 40.9589505,137.347052 37.4125861,122.35795 C4.93335744,129.56511 4.86344584,180.200657 37.2003801,187.598873 C40.3909346,172.129267 54.0873869,160.5 70.5,160.5 C89.2776815,160.5 104.5,175.722319 104.5,194.5 C104.5,213.277681 89.2776815,228.5 70.5,228.5 C53.8961692,228.5 40.072158,216.598178 37.0939351,200.860501 C-12.3053682,193.11502 -12.3641399,117.07546 36.9163146,109.164368 C39.4760119,92.9217511 53.5373783,80.5 70.5,80.5 C87.0742929,80.5 100.878648,92.3595138 103.890067,108.055544 C139.436157,102.553252 139.369081,47.2281342 103.691149,41.9102175 C100.305548,57.1267339 86.7309584,68.5 70.5,68.5 C51.7223185,68.5 36.5,53.2776815 36.5,34.5 C36.5,15.7223185 51.7223185,0.5 70.5,0.5 Z M70.5,173.5 C58.9020203,173.5 49.5,182.90202 49.5,194.5 C49.5,206.09798 58.9020203,215.5 70.5,215.5 C82.0979797,215.5 91.5,206.09798 91.5,194.5 C91.5,182.90202 82.0979797,173.5 70.5,173.5 Z M70.5,93.5 C58.9020203,93.5 49.5,102.90202 49.5,114.5 C49.5,126.09798 58.9020203,135.5 70.5,135.5 C82.0979797,135.5 91.5,126.09798 91.5,114.5 C91.5,102.90202 82.0979797,93.5 70.5,93.5 Z M70.5,13.5 C58.9020203,13.5 49.5,22.9020203 49.5,34.5 C49.5,46.0979797 58.9020203,55.5 70.5,55.5 C82.0979797,55.5 91.5,46.0979797 91.5,34.5 C91.5,22.9020203 82.0979797,13.5 70.5,13.5 Z"/>
    <path fill="#000" fill-rule="nonzero" d="M138.699,222 L138.699,121.938 L170.217,121.938 C175.725028,121.938 180.850476,122.447995 185.5935,123.468 C190.336524,124.488005 194.441983,126.221988 197.91,128.67 C201.378017,131.118012 204.08099,134.30548 206.019,138.2325 C207.95701,142.15952 208.926,147.029971 208.926,152.844 C208.926,158.352028 207.95701,163.14598 206.019,167.226 C204.08099,171.30602 201.403517,174.697486 197.9865,177.4005 C194.569483,180.103514 190.540523,182.092494 185.8995,183.3675 C181.258477,184.642506 176.235027,185.28 170.829,185.28 L156.447,185.28 L156.447,222 L138.699,222 Z M156.447,171.051 L169.452,171.051 C184.140073,171.051 191.484,164.982061 191.484,152.844 C191.484,146.519968 189.571519,142.159512 185.7465,139.7625 C181.921481,137.365488 176.286037,136.167 168.84,136.167 L156.447,136.167 L156.447,171.051 Z M230.608,223.836 C223.977967,223.836 218.62302,221.82152 214.543,217.7925 C210.46298,213.76348 208.423,208.434033 208.423,201.804 C208.423,197.82598 209.264492,194.281516 210.9475,191.1705 C212.630508,188.059484 215.282482,185.382011 218.9035,183.138 C222.524518,180.893989 227.114472,179.007008 232.6735,177.477 C238.232528,175.946992 244.887961,174.774004 252.64,173.958 C252.537999,172.01999 252.257502,170.158509 251.7985,168.3735 C251.339498,166.588491 250.574505,165.007507 249.5035,163.6305 C248.432495,162.253493 247.030009,161.182504 245.296,160.4175 C243.561991,159.652496 241.420013,159.27 238.87,159.27 C235.197982,159.27 231.602518,159.983993 228.0835,161.412 C224.564482,162.840007 221.122017,164.57399 217.756,166.614 L211.33,154.833 C215.512021,152.180987 220.203974,149.88601 225.406,147.948 C230.608026,146.00999 236.21797,145.041 242.236,145.041 C251.620047,145.041 258.632477,147.820472 263.2735,153.3795 C267.914523,158.938528 270.235,166.970947 270.235,177.477 L270.235,222 L255.7,222 L254.476,213.738 L253.864,213.738 C250.497983,216.594014 246.902519,218.99099 243.0775,220.929 C239.252481,222.86701 235.096022,223.836 230.608,223.836 Z M236.269,210.066 C239.329015,210.066 242.108488,209.352007 244.6075,207.924 C247.106512,206.495993 249.783986,204.456013 252.64,201.804 L252.64,184.974 C247.539974,185.586003 243.256017,186.401995 239.788,187.422 C236.319983,188.442005 233.515011,189.589494 231.373,190.8645 C229.230989,192.139506 227.701005,193.592992 226.783,195.225 C225.864995,196.857008 225.406,198.590991 225.406,200.427 C225.406,203.793017 226.42599,206.240992 228.466,207.771 C230.50601,209.301008 233.106984,210.066 236.269,210.066 Z M307.37,223.836 C302.983978,223.836 299.286515,223.173007 296.2775,221.847 C293.268485,220.520993 290.820509,218.659512 288.9335,216.2625 C287.046491,213.865488 285.669504,211.009517 284.8025,207.6945 C283.935496,204.379483 283.502,200.68202 283.502,196.602 L283.502,160.8 L272.792,160.8 L272.792,147.642 L284.42,146.877 L286.562,126.375 L301.25,126.375 L301.25,146.877 L320.375,146.877 L320.375,160.8 L301.25,160.8 L301.25,196.602 C301.25,205.374044 304.768965,209.76 311.807,209.76 C313.133007,209.76 314.484493,209.607002 315.8615,209.301 C317.238507,208.994998 318.487994,208.587003 319.61,208.077 L322.67,221.082 C320.62999,221.796004 318.309513,222.433497 315.7085,222.9945 C313.107487,223.555503 310.328015,223.836 307.37,223.836 Z M328.134,222 L328.134,113.982 L345.729,113.982 L345.729,141.828 L345.117,156.363 C348.279016,153.404985 351.772481,150.778511 355.5975,148.4835 C359.422519,146.188489 363.935974,145.041 369.138,145.041 C377.19604,145.041 383.060982,147.616474 386.733,152.7675 C390.405018,157.918526 392.241,165.287952 392.241,174.876 L392.241,222 L374.646,222 L374.646,177.171 C374.646,170.948969 373.728009,166.563013 371.892,164.013 C370.055991,161.462987 367.047021,160.188 362.865,160.188 C359.600984,160.188 356.719512,160.978492 354.2205,162.5595 C351.721488,164.140508 348.891016,166.460985 345.729,169.521 L345.729,222 L328.134,222 Z M422.644,223.836 C416.319968,223.836 411.883013,221.949019 409.333,218.175 C406.782987,214.400981 405.508,209.250033 405.508,202.722 L405.508,113.982 L423.103,113.982 L423.103,203.64 C423.103,205.782011 423.510996,207.286496 424.327,208.1535 C425.143004,209.020504 426.009995,209.454 426.928,209.454 L428.0755,209.454 C428.432502,209.454 428.967996,209.352001 429.682,209.148 L431.977,222.306 C429.630988,223.326005 426.520019,223.836 422.644,223.836 Z M438.971,222 L438.971,146.877 L456.566,146.877 L456.566,222 L438.971,222 Z M447.845,133.719 C444.682984,133.719 442.08201,132.801009 440.042,130.965 C438.00199,129.128991 436.982,126.732015 436.982,123.774 C436.982,120.815985 438.00199,118.393509 440.042,116.5065 C442.08201,114.619491 444.682984,113.676 447.845,113.676 C451.007016,113.676 453.60799,114.619491 455.648,116.5065 C457.68801,118.393509 458.708,120.815985 458.708,123.774 C458.708,126.732015 457.68801,129.128991 455.648,130.965 C453.60799,132.801009 451.007016,133.719 447.845,133.719 Z M471.057,222 L471.057,146.877 L485.592,146.877 L486.816,156.975 L487.428,156.975 C490.794017,153.710984 494.44048,150.906012 498.3675,148.56 C502.29452,146.213988 506.858974,145.041 512.061,145.041 C520.11904,145.041 525.983982,147.616474 529.656,152.7675 C533.328018,157.918526 535.164,165.287952 535.164,174.876 L535.164,222 L517.569,222 L517.569,177.171 C517.569,170.948969 516.651009,166.563013 514.815,164.013 C512.978991,161.462987 509.970021,160.188 505.788,160.188 C502.523984,160.188 499.642512,160.978492 497.1435,162.5595 C494.644488,164.140508 491.814016,166.460985 488.652,169.521 L488.652,222 L471.057,222 Z M574.9,255.201 C570.411978,255.201 566.255519,254.793004 562.4305,253.977 C558.605481,253.160996 555.316014,251.937008 552.562,250.305 C549.807986,248.672992 547.640508,246.633012 546.0595,244.185 C544.478492,241.736988 543.688,238.881016 543.688,235.617 C543.688,232.454984 544.605991,229.522514 546.442,226.8195 C548.278009,224.116486 550.929983,221.694011 554.398,219.552 L554.398,218.94 C552.45999,217.715994 550.853506,216.08401 549.5785,214.044 C548.303494,212.00399 547.666,209.454015 547.666,206.394 C547.666,203.435985 548.507492,200.758512 550.1905,198.3615 C551.873508,195.964488 553.785989,194.001008 555.928,192.471 L555.928,191.859 C553.377987,189.92099 551.10851,187.243517 549.1195,183.8265 C547.13049,180.409483 546.136,176.457022 546.136,171.969 C546.136,167.684979 546.951992,163.860017 548.584,160.494 C550.216008,157.127983 552.383486,154.297511 555.0865,152.0025 C557.789514,149.707489 560.925982,147.973506 564.496,146.8005 C568.066018,145.627494 571.83998,145.041 575.818,145.041 C577.85801,145.041 579.821491,145.219498 581.7085,145.5765 C583.595509,145.933502 585.303992,146.366997 586.834,146.877 L613.762,146.877 L613.762,159.882 L599.992,159.882 C601.216006,161.310007 602.235996,163.120489 603.052,165.3135 C603.868004,167.506511 604.276,169.928987 604.276,172.581 C604.276,176.763021 603.536507,180.434984 602.0575,183.597 C600.578493,186.759016 598.564013,189.410989 596.014,191.553 C593.463987,193.695011 590.455017,195.326994 586.987,196.449 C583.518983,197.571006 579.79602,198.132 575.818,198.132 C574.185992,198.132 572.503009,197.979002 570.769,197.673 C569.034991,197.366998 567.301009,196.857004 565.567,196.143 C564.444994,197.163005 563.552503,198.182995 562.8895,199.203 C562.226497,200.223005 561.895,201.599991 561.895,203.334 C561.895,205.476011 562.787491,207.158994 564.5725,208.383 C566.357509,209.607006 569.544977,210.219 574.135,210.219 L587.446,210.219 C596.524045,210.219 603.383477,211.672485 608.0245,214.5795 C612.665523,217.486515 614.986,222.203967 614.986,228.732 C614.986,232.404018 614.042509,235.871984 612.1555,239.136 C610.268491,242.400016 607.591017,245.204988 604.123,247.551 C600.654983,249.897012 596.447525,251.758493 591.5005,253.1355 C586.553475,254.512507 581.020031,255.201 574.9,255.201 Z M575.818,187.116 C579.388018,187.116 582.447987,185.815513 584.998,183.2145 C587.548013,180.613487 588.823,176.865024 588.823,171.969 C588.823,167.276977 587.573512,163.630513 585.0745,161.0295 C582.575488,158.428487 579.490018,157.128 575.818,157.128 C572.145982,157.128 569.035013,158.402987 566.485,160.953 C563.934987,163.503013 562.66,167.174976 562.66,171.969 C562.66,176.865024 563.934987,180.613487 566.485,183.2145 C569.035013,185.815513 572.145982,187.116 575.818,187.116 Z M577.654,243.726 C583.774031,243.726 588.695481,242.527512 592.4185,240.1305 C596.141519,237.733488 598.003,234.903016 598.003,231.639 C598.003,228.680985 596.855511,226.692005 594.5605,225.672 C592.265489,224.651995 588.976021,224.142 584.692,224.142 L574.441,224.142 C570.36098,224.142 566.944014,223.785004 564.19,223.071 C560.313981,226.029015 558.376,229.343982 558.376,233.016 C558.376,236.382017 560.084483,239.008491 563.5015,240.8955 C566.918517,242.782509 571.63597,243.726 577.654,243.726 Z"/>
  </g>
</svg>
