<svg xmlns="http://www.w3.org/2000/svg" width="300" height="300" viewBox="0 0 300 300">
  <g fill="none" transform="translate(54)">
    <path fill="#2CA0B6" d="M95.0094571,0.501672241 C116.820439,0.501672241 134.863171,16.6080942 137.85436,37.5567904 C205.040368,44.7338029 204.883465,149.239425 137.387977,155.968284 C133.306411,175.597101 115.883695,190.349746 95.0094571,190.349746 C74.0063202,190.349746 56.4974627,175.414342 52.5582934,155.601848 C10.3945777,164.422224 10.484573,230.981617 52.8253389,239.559589 C57.2399686,220.371363 74.4507266,206.06131 95.0094571,206.06131 C118.912472,206.06131 138.289695,225.405655 138.289695,249.268113 C138.289695,273.130572 118.912472,292.474916 95.0094571,292.474916 C73.5453893,292.474916 55.7306534,276.87678 52.3186613,256.415675 C-11.5006688,247.102731 -11.4185321,147.731719 52.5599818,138.642709 C56.5175377,118.854425 74.0183603,103.93614 95.0094571,103.93614 C116.171546,103.93614 133.786266,119.098462 137.54772,139.134696 C183.188042,132.361925 183.002152,60.4986062 136.99295,54.2499291 C132.276807,73.0191064 115.268702,86.9152781 95.0094571,86.9152781 C71.1064418,86.9152781 51.7292194,67.5709335 51.7292194,43.7084752 C51.7292194,19.8460168 71.1064418,0.501672241 95.0094571,0.501672241 Z M95.0094571,222.581559 C80.24583,222.581559 68.2775456,234.529536 68.2775456,249.268113 C68.2775456,264.006691 80.24583,275.954668 95.0094571,275.954668 C109.773084,275.954668 121.741369,264.006691 121.741369,249.268113 C121.741369,234.529536 109.773084,222.581559 95.0094571,222.581559 Z M95.0094571,120.456388 C80.24583,120.456388 68.2775456,132.404366 68.2775456,147.142943 C68.2775456,161.88152 80.24583,173.829498 95.0094571,173.829498 C109.773084,173.829498 121.741369,161.88152 121.741369,147.142943 C121.741369,132.404366 109.773084,120.456388 95.0094571,120.456388 Z M95.0094571,17.0219204 C80.24583,17.0219204 68.2775456,28.969898 68.2775456,43.7084752 C68.2775456,58.4470524 80.24583,70.3950299 95.0094571,70.3950299 C109.773084,70.3950299 121.741369,58.4470524 121.741369,43.7084752 C121.741369,28.969898 109.773084,17.0219204 95.0094571,17.0219204 Z"/>
    <path fill="#164E59" d="M94.5045302,0.501672241 C116.95257,0.501672241 136.003899,16.4026956 140.283994,37.9452621 C208.363324,47.7123253 208.019556,153.314694 139.659377,162.483529 C134.352245,182.717827 115.91782,197.209998 94.5045302,197.209998 C73.3068346,197.209998 55.0436492,183.011045 49.5238147,163.122518 C14.8189951,173.496104 14.9904133,229.208473 49.8756018,239.274238 C55.8005876,219.979726 73.7724283,206.38972 94.5045302,206.38972 C120.281344,206.38972 141.17758,227.232792 141.17758,252.944024 C141.17758,278.655256 120.281344,299.498328 94.5045302,299.498328 C72.6273873,299.498328 53.9324604,284.385872 49.0596587,263.598851 L48.916238,262.967205 C-15.1292687,251.311346 -15.599721,152.729958 47.3097687,139.625734 L49.2355353,139.254975 C54.3920547,118.80994 72.9305612,104.101391 94.5045302,104.101391 C115.943269,104.101391 134.36185,118.621572 139.658701,138.83104 C177.793787,130.156772 177.430893,69.3618512 138.940195,61.3415838 C132.813945,80.334722 114.991976,93.6102799 94.5045302,93.6102799 C68.7277167,93.6102799 47.8314806,72.7672081 47.8314806,47.0559761 C47.8314806,21.344744 68.7277167,0.501672241 94.5045302,0.501672241 Z M94.5045302,7.05861644 C72.3582538,7.05861644 54.4051496,24.9660443 54.4051496,47.0559761 C54.4051496,69.1459078 72.3582538,87.0533357 94.5045302,87.0533357 C112.99761,87.0533357 128.965905,74.4606391 133.403915,56.8166119 L134.119869,53.970221 L137.035098,54.3658863 C186.850925,61.1270675 187.216222,138.525346 137.630173,145.877279 L134.499392,146.341468 L133.916328,143.23837 C130.389332,124.467508 113.881025,110.658335 94.5045302,110.658335 C75.2980778,110.658335 58.8880367,124.230535 55.1745802,142.783703 L54.7188691,145.060527 L52.4144078,145.38762 C-7.92894367,153.952694 -8.06945574,248.07358 52.1845445,256.858699 L54.5575657,257.204688 L54.9513687,259.564355 C58.1466234,278.710313 74.8293155,292.941384 94.5045302,292.941384 C116.650807,292.941384 134.603911,275.033956 134.603911,252.944024 C134.603911,230.854092 116.650807,212.946664 94.5045302,212.946664 C75.7200916,212.946664 59.5699672,225.935249 55.4207894,243.953945 L54.7035791,247.068584 L51.5636878,246.433021 C5.65129749,237.139638 5.48126071,165.490153 51.275707,155.920571 L54.5268076,155.241194 L55.1735941,158.491007 C58.8699187,177.063388 75.2849454,190.653054 94.5045302,190.653054 C113.597457,190.653054 129.937297,177.239228 133.768622,158.828802 L134.259073,156.472066 L136.660244,156.232887 C200.318187,149.89196 200.595042,50.9300956 137.104834,44.155178 L134.561431,43.8837764 L134.200513,41.3578935 C131.403562,21.7834051 114.524774,7.05861644 94.5045302,7.05861644 Z M94.5045302,222.936362 C111.119577,222.936362 124.588733,236.37125 124.588733,252.944024 C124.588733,269.516798 111.119577,282.951686 94.5045302,282.951686 C77.8894839,282.951686 64.4203276,269.516798 64.4203276,252.944024 C64.4203276,236.37125 77.8894839,222.936362 94.5045302,222.936362 Z M94.5045302,229.493306 C81.520021,229.493306 70.9939965,239.99255 70.9939965,252.944024 C70.9939965,265.895498 81.520021,276.394742 94.5045302,276.394742 C107.489039,276.394742 118.015064,265.895498 118.015064,252.944024 C118.015064,239.99255 107.489039,229.493306 94.5045302,229.493306 Z M94.5045302,120.648032 C111.119577,120.648032 124.588733,134.08292 124.588733,150.655694 C124.588733,167.228469 111.119577,180.663357 94.5045302,180.663357 C77.8894839,180.663357 64.4203276,167.228469 64.4203276,150.655694 C64.4203276,134.08292 77.8894839,120.648032 94.5045302,120.648032 Z M94.5045302,127.204976 C81.520021,127.204976 70.9939965,137.70422 70.9939965,150.655694 C70.9939965,163.607168 81.520021,174.106412 94.5045302,174.106412 C107.489039,174.106412 118.015064,163.607168 118.015064,150.655694 C118.015064,137.70422 107.489039,127.204976 94.5045302,127.204976 Z M94.5045302,17.0483138 C111.119577,17.0483138 124.588733,30.4832018 124.588733,47.0559761 C124.588733,63.6287503 111.119577,77.0636383 94.5045302,77.0636383 C77.8894839,77.0636383 64.4203276,63.6287503 64.4203276,47.0559761 C64.4203276,30.4832018 77.8894839,17.0483138 94.5045302,17.0483138 Z M94.5045302,23.605258 C81.520021,23.605258 70.9939965,34.1045021 70.9939965,47.0559761 C70.9939965,60.00745 81.520021,70.5066941 94.5045302,70.5066941 C107.489039,70.5066941 118.015064,60.00745 118.015064,47.0559761 C118.015064,34.1045021 107.489039,23.605258 94.5045302,23.605258 Z"/>
  </g>
</svg>
