<svg xmlns="http://www.w3.org/2000/svg" width="618" height="256" viewBox="0 0 618 256">
  <g fill="none" fill-rule="evenodd">
    <path fill="#000" fill-rule="nonzero" d="M141.699,222 L141.699,121.938 L173.217,121.938 C178.725028,121.938 183.850476,122.447995 188.5935,123.468 C193.336524,124.488005 197.441983,126.221988 200.91,128.67 C204.378017,131.118012 207.08099,134.30548 209.019,138.2325 C210.95701,142.15952 211.926,147.029971 211.926,152.844 C211.926,158.352028 210.95701,163.14598 209.019,167.226 C207.08099,171.30602 204.403517,174.697486 200.9865,177.4005 C197.569483,180.103514 193.540523,182.092494 188.8995,183.3675 C184.258477,184.642506 179.235027,185.28 173.829,185.28 L159.447,185.28 L159.447,222 L141.699,222 Z M159.447,171.051 L172.452,171.051 C187.140073,171.051 194.484,164.982061 194.484,152.844 C194.484,146.519968 192.571519,142.159512 188.7465,139.7625 C184.921481,137.365488 179.286037,136.167 171.84,136.167 L159.447,136.167 L159.447,171.051 Z M233.608,223.836 C226.977967,223.836 221.62302,221.82152 217.543,217.7925 C213.46298,213.76348 211.423,208.434033 211.423,201.804 C211.423,197.82598 212.264492,194.281516 213.9475,191.1705 C215.630508,188.059484 218.282482,185.382011 221.9035,183.138 C225.524518,180.893989 230.114472,179.007008 235.6735,177.477 C241.232528,175.946992 247.887961,174.774004 255.64,173.958 C255.537999,172.01999 255.257502,170.158509 254.7985,168.3735 C254.339498,166.588491 253.574505,165.007507 252.5035,163.6305 C251.432495,162.253493 250.030009,161.182504 248.296,160.4175 C246.561991,159.652496 244.420013,159.27 241.87,159.27 C238.197982,159.27 234.602518,159.983993 231.0835,161.412 C227.564482,162.840007 224.122017,164.57399 220.756,166.614 L214.33,154.833 C218.512021,152.180987 223.203974,149.88601 228.406,147.948 C233.608026,146.00999 239.21797,145.041 245.236,145.041 C254.620047,145.041 261.632477,147.820472 266.2735,153.3795 C270.914523,158.938528 273.235,166.970947 273.235,177.477 L273.235,222 L258.7,222 L257.476,213.738 L256.864,213.738 C253.497983,216.594014 249.902519,218.99099 246.0775,220.929 C242.252481,222.86701 238.096022,223.836 233.608,223.836 Z M239.269,210.066 C242.329015,210.066 245.108488,209.352007 247.6075,207.924 C250.106512,206.495993 252.783986,204.456013 255.64,201.804 L255.64,184.974 C250.539974,185.586003 246.256017,186.401995 242.788,187.422 C239.319983,188.442005 236.515011,189.589494 234.373,190.8645 C232.230989,192.139506 230.701005,193.592992 229.783,195.225 C228.864995,196.857008 228.406,198.590991 228.406,200.427 C228.406,203.793017 229.42599,206.240992 231.466,207.771 C233.50601,209.301008 236.106984,210.066 239.269,210.066 Z M310.37,223.836 C305.983978,223.836 302.286515,223.173007 299.2775,221.847 C296.268485,220.520993 293.820509,218.659512 291.9335,216.2625 C290.046491,213.865488 288.669504,211.009517 287.8025,207.6945 C286.935496,204.379483 286.502,200.68202 286.502,196.602 L286.502,160.8 L275.792,160.8 L275.792,147.642 L287.42,146.877 L289.562,126.375 L304.25,126.375 L304.25,146.877 L323.375,146.877 L323.375,160.8 L304.25,160.8 L304.25,196.602 C304.25,205.374044 307.768965,209.76 314.807,209.76 C316.133007,209.76 317.484493,209.607002 318.8615,209.301 C320.238507,208.994998 321.487994,208.587003 322.61,208.077 L325.67,221.082 C323.62999,221.796004 321.309513,222.433497 318.7085,222.9945 C316.107487,223.555503 313.328015,223.836 310.37,223.836 Z M331.134,222 L331.134,113.982 L348.729,113.982 L348.729,141.828 L348.117,156.363 C351.279016,153.404985 354.772481,150.778511 358.5975,148.4835 C362.422519,146.188489 366.935974,145.041 372.138,145.041 C380.19604,145.041 386.060982,147.616474 389.733,152.7675 C393.405018,157.918526 395.241,165.287952 395.241,174.876 L395.241,222 L377.646,222 L377.646,177.171 C377.646,170.948969 376.728009,166.563013 374.892,164.013 C373.055991,161.462987 370.047021,160.188 365.865,160.188 C362.600984,160.188 359.719512,160.978492 357.2205,162.5595 C354.721488,164.140508 351.891016,166.460985 348.729,169.521 L348.729,222 L331.134,222 Z M425.644,223.836 C419.319968,223.836 414.883013,221.949019 412.333,218.175 C409.782987,214.400981 408.508,209.250033 408.508,202.722 L408.508,113.982 L426.103,113.982 L426.103,203.64 C426.103,205.782011 426.510996,207.286496 427.327,208.1535 C428.143004,209.020504 429.009995,209.454 429.928,209.454 L431.0755,209.454 C431.432502,209.454 431.967996,209.352001 432.682,209.148 L434.977,222.306 C432.630988,223.326005 429.520019,223.836 425.644,223.836 Z M441.971,222 L441.971,146.877 L459.566,146.877 L459.566,222 L441.971,222 Z M450.845,133.719 C447.682984,133.719 445.08201,132.801009 443.042,130.965 C441.00199,129.128991 439.982,126.732015 439.982,123.774 C439.982,120.815985 441.00199,118.393509 443.042,116.5065 C445.08201,114.619491 447.682984,113.676 450.845,113.676 C454.007016,113.676 456.60799,114.619491 458.648,116.5065 C460.68801,118.393509 461.708,120.815985 461.708,123.774 C461.708,126.732015 460.68801,129.128991 458.648,130.965 C456.60799,132.801009 454.007016,133.719 450.845,133.719 Z M474.057,222 L474.057,146.877 L488.592,146.877 L489.816,156.975 L490.428,156.975 C493.794017,153.710984 497.44048,150.906012 501.3675,148.56 C505.29452,146.213988 509.858974,145.041 515.061,145.041 C523.11904,145.041 528.983982,147.616474 532.656,152.7675 C536.328018,157.918526 538.164,165.287952 538.164,174.876 L538.164,222 L520.569,222 L520.569,177.171 C520.569,170.948969 519.651009,166.563013 517.815,164.013 C515.978991,161.462987 512.970021,160.188 508.788,160.188 C505.523984,160.188 502.642512,160.978492 500.1435,162.5595 C497.644488,164.140508 494.814016,166.460985 491.652,169.521 L491.652,222 L474.057,222 Z M577.9,255.201 C573.411978,255.201 569.255519,254.793004 565.4305,253.977 C561.605481,253.160996 558.316014,251.937008 555.562,250.305 C552.807986,248.672992 550.640508,246.633012 549.0595,244.185 C547.478492,241.736988 546.688,238.881016 546.688,235.617 C546.688,232.454984 547.605991,229.522514 549.442,226.8195 C551.278009,224.116486 553.929983,221.694011 557.398,219.552 L557.398,218.94 C555.45999,217.715994 553.853506,216.08401 552.5785,214.044 C551.303494,212.00399 550.666,209.454015 550.666,206.394 C550.666,203.435985 551.507492,200.758512 553.1905,198.3615 C554.873508,195.964488 556.785989,194.001008 558.928,192.471 L558.928,191.859 C556.377987,189.92099 554.10851,187.243517 552.1195,183.8265 C550.13049,180.409483 549.136,176.457022 549.136,171.969 C549.136,167.684979 549.951992,163.860017 551.584,160.494 C553.216008,157.127983 555.383486,154.297511 558.0865,152.0025 C560.789514,149.707489 563.925982,147.973506 567.496,146.8005 C571.066018,145.627494 574.83998,145.041 578.818,145.041 C580.85801,145.041 582.821491,145.219498 584.7085,145.5765 C586.595509,145.933502 588.303992,146.366997 589.834,146.877 L616.762,146.877 L616.762,159.882 L602.992,159.882 C604.216006,161.310007 605.235996,163.120489 606.052,165.3135 C606.868004,167.506511 607.276,169.928987 607.276,172.581 C607.276,176.763021 606.536507,180.434984 605.0575,183.597 C603.578493,186.759016 601.564013,189.410989 599.014,191.553 C596.463987,193.695011 593.455017,195.326994 589.987,196.449 C586.518983,197.571006 582.79602,198.132 578.818,198.132 C577.185992,198.132 575.503009,197.979002 573.769,197.673 C572.034991,197.366998 570.301009,196.857004 568.567,196.143 C567.444994,197.163005 566.552503,198.182995 565.8895,199.203 C565.226497,200.223005 564.895,201.599991 564.895,203.334 C564.895,205.476011 565.787491,207.158994 567.5725,208.383 C569.357509,209.607006 572.544977,210.219 577.135,210.219 L590.446,210.219 C599.524045,210.219 606.383477,211.672485 611.0245,214.5795 C615.665523,217.486515 617.986,222.203967 617.986,228.732 C617.986,232.404018 617.042509,235.871984 615.1555,239.136 C613.268491,242.400016 610.591017,245.204988 607.123,247.551 C603.654983,249.897012 599.447525,251.758493 594.5005,253.1355 C589.553475,254.512507 584.020031,255.201 577.9,255.201 Z M578.818,187.116 C582.388018,187.116 585.447987,185.815513 587.998,183.2145 C590.548013,180.613487 591.823,176.865024 591.823,171.969 C591.823,167.276977 590.573512,163.630513 588.0745,161.0295 C585.575488,158.428487 582.490018,157.128 578.818,157.128 C575.145982,157.128 572.035013,158.402987 569.485,160.953 C566.934987,163.503013 565.66,167.174976 565.66,171.969 C565.66,176.865024 566.934987,180.613487 569.485,183.2145 C572.035013,185.815513 575.145982,187.116 578.818,187.116 Z M580.654,243.726 C586.774031,243.726 591.695481,242.527512 595.4185,240.1305 C599.141519,237.733488 601.003,234.903016 601.003,231.639 C601.003,228.680985 599.855511,226.692005 597.5605,225.672 C595.265489,224.651995 591.976021,224.142 587.692,224.142 L577.441,224.142 C573.36098,224.142 569.944014,223.785004 567.19,223.071 C563.313981,226.029015 561.376,229.343982 561.376,233.016 C561.376,236.382017 563.084483,239.008491 566.5015,240.8955 C569.918517,242.782509 574.63597,243.726 580.654,243.726 Z"/>
    <path fill="#999" fill-rule="nonzero" stroke="#444" stroke-width="5" d="M72,3 C88.6305013,3 102.387738,15.3019094 104.668161,31.3021798 C155.895559,36.7824996 155.77613,116.601181 104.312491,121.740516 C101.200555,136.732246 87.9161401,148 72,148 C55.986022,148 42.6362233,136.593293 39.632338,121.461612 C7.48340032,128.196853 7.55191397,179.033512 39.8359505,185.584972 C43.2021405,170.929282 56.3247349,160 72,160 C90.2253967,160 105,174.774603 105,193 C105,211.225397 90.2253967,226 72,226 C55.6341524,226 42.0508484,214.086514 39.4493944,198.458849 C-9.21112486,191.34598 -9.14838531,115.449491 39.633617,108.507762 C42.6509463,93.3941314 55.9948522,82 72,82 C88.1354574,82 101.566162,93.5804226 104.434234,108.883387 C139.233483,103.710676 139.092002,48.8246583 104.012118,44.0513473 C100.41561,58.3863166 87.4472844,69 72,69 C53.7746033,69 39,54.2253967 39,36 C39,17.7746033 53.7746033,3 72,3 Z M72,172.617647 C60.7431373,172.617647 51.6176471,181.743137 51.6176471,193 C51.6176471,204.256863 60.7431373,213.382353 72,213.382353 C83.2568627,213.382353 92.3823529,204.256863 92.3823529,193 C92.3823529,181.743137 83.2568627,172.617647 72,172.617647 Z M72,94.6176471 C60.7431373,94.6176471 51.6176471,103.743137 51.6176471,115 C51.6176471,126.256863 60.7431373,135.382353 72,135.382353 C83.2568627,135.382353 92.3823529,126.256863 92.3823529,115 C92.3823529,103.743137 83.2568627,94.6176471 72,94.6176471 Z M72,15.6176471 C60.7431373,15.6176471 51.6176471,24.7431373 51.6176471,36 C51.6176471,47.2568627 60.7431373,56.3823529 72,56.3823529 C83.2568627,56.3823529 92.3823529,47.2568627 92.3823529,36 C92.3823529,24.7431373 83.2568627,15.6176471 72,15.6176471 Z"/>
  </g>
</svg>
