<?xml version="1.0" encoding="UTF-8" standalone="no"?>
<!DOCTYPE svg PUBLIC "-//W3C//DTD SVG 1.1//EN" "http://www.w3.org/Graphics/SVG/1.1/DTD/svg11.dtd">
<svg version="1.1" xmlns="http://www.w3.org/2000/svg" viewBox="802 1689 667 454" width="667"
    height="454">
  <defs/>
  <g id="Canvas_aggregate_Operation_(no_text)_(dark)" fill-opacity="1" stroke="none"
      stroke-opacity="1" stroke-dasharray="none" fill="none">
    <title>$aggregate Operation (no text) (dark)</title>
    <g id="Canvas_aggregate_Operation_(no_text)_(dark)_Layer_1">
      <title>Layer 1</title>
      <g id="Line_21">
        <path d="M 859.6063 1765.9843 L 859.6063 1809.9213 L 890.5092 1809.9213" stroke="white"
            stroke-linecap="round" stroke-linejoin="round" stroke-width="1"/>
      </g>
      <g id="Graphic_2">
        <path
            d="M 836.5512 1717.7953 L 940.7717 1717.7953 C 944.0854 1717.7953 946.7717 1720.4816 946.7717 1723.7953 L 946.7717 1759.9843 C 946.7717 1763.298 944.0854 1765.9843 940.7717 1765.9843 L 836.5512 1765.9843 C 833.2375 1765.9843 830.5512 1763.298 830.5512 1759.9843 L 830.5512 1723.7953 C 830.5512 1720.4816 833.2375 1717.7953 836.5512 1717.7953 Z"
            fill="#b58900" fill-opacity=".2"/>
        <path
            d="M 836.5512 1717.7953 L 940.7717 1717.7953 C 944.0854 1717.7953 946.7717 1720.4816 946.7717 1723.7953 L 946.7717 1759.9843 C 946.7717 1763.298 944.0854 1765.9843 940.7717 1765.9843 L 836.5512 1765.9843 C 833.2375 1765.9843 830.5512 1763.298 830.5512 1759.9843 L 830.5512 1723.7953 C 830.5512 1720.4816 833.2375 1717.7953 836.5512 1717.7953 Z"
            stroke="#012b36" stroke-linecap="round" stroke-linejoin="round" stroke-width="1"/>
        <text transform="translate(835.5512 1732.3898)" fill="white">
          <tspan font-family="Roboto, sans-serif" font-size="16" fill="white" x="24.01258"
              y="15">Request
          </tspan>
        </text>
      </g>
      <g id="Graphic_20">
        <path
            d="M 896.5092 1785.8268 L 1013.4856 1785.8268 C 1016.7993 1785.8268 1019.4856 1788.513 1019.4856 1791.8268 L 1019.4856 1828.0158 C 1019.4856 1831.3295 1016.7993 1834.0158 1013.4856 1834.0158 L 896.5092 1834.0158 C 893.1955 1834.0158 890.5092 1831.3295 890.5092 1828.0158 L 890.5092 1791.8268 C 890.5092 1788.513 893.1955 1785.8268 896.5092 1785.8268 Z"
            fill="white" fill-opacity=".2"/>
        <path
            d="M 896.5092 1785.8268 L 1013.4856 1785.8268 C 1016.7993 1785.8268 1019.4856 1788.513 1019.4856 1791.8268 L 1019.4856 1828.0158 C 1019.4856 1831.3295 1016.7993 1834.0158 1013.4856 1834.0158 L 896.5092 1834.0158 C 893.1955 1834.0158 890.5092 1831.3295 890.5092 1828.0158 L 890.5092 1791.8268 C 890.5092 1788.513 893.1955 1785.8268 896.5092 1785.8268 Z"
            stroke="#012b36" stroke-linecap="round" stroke-linejoin="round" stroke-width="1"/>
        <text transform="translate(895.5092 1800.4213)" fill="white">
          <tspan font-family="Roboto, sans-serif" font-size="16" fill="white" x="18.296783"
              y="15">Parameters
          </tspan>
        </text>
      </g>
      <g id="Graphic_32">
        <path
            d="M 1134.189 1717.7953 L 1238.4095 1717.7953 C 1241.7232 1717.7953 1244.4095 1720.4816 1244.4095 1723.7953 L 1244.4095 1759.9843 C 1244.4095 1763.298 1241.7232 1765.9843 1238.4095 1765.9843 L 1134.189 1765.9843 C 1130.8753 1765.9843 1128.189 1763.298 1128.189 1759.9843 L 1128.189 1723.7953 C 1128.189 1720.4816 1130.8753 1717.7953 1134.189 1717.7953 Z"
            fill="#859901" fill-opacity=".2"/>
        <path
            d="M 1134.189 1717.7953 L 1238.4095 1717.7953 C 1241.7232 1717.7953 1244.4095 1720.4816 1244.4095 1723.7953 L 1244.4095 1759.9843 C 1244.4095 1763.298 1241.7232 1765.9843 1238.4095 1765.9843 L 1134.189 1765.9843 C 1130.8753 1765.9843 1128.189 1763.298 1128.189 1759.9843 L 1128.189 1723.7953 C 1128.189 1720.4816 1130.8753 1717.7953 1134.189 1717.7953 Z"
            stroke="#012b36" stroke-linecap="round" stroke-linejoin="round" stroke-width="1"/>
        <text transform="translate(1133.189 1732.3898)" fill="white">
          <tspan font-family="Roboto, sans-serif" font-size="16" fill="white" x="17.99305"
              y="15">Response
          </tspan>
        </text>
      </g>
      <g id="Graphic_33">
        <path
            d="M 1197.9685 1785.8268 L 1314.9449 1785.8268 C 1318.2586 1785.8268 1320.9449 1788.513 1320.9449 1791.8268 L 1320.9449 1828.0158 C 1320.9449 1831.3295 1318.2586 1834.0158 1314.9449 1834.0158 L 1197.9685 1834.0158 C 1194.6548 1834.0158 1191.9685 1831.3295 1191.9685 1828.0158 L 1191.9685 1791.8268 C 1191.9685 1788.513 1194.6548 1785.8268 1197.9685 1785.8268 Z"
            fill="white" fill-opacity=".2"/>
        <path
            d="M 1197.9685 1785.8268 L 1314.9449 1785.8268 C 1318.2586 1785.8268 1320.9449 1788.513 1320.9449 1791.8268 L 1320.9449 1828.0158 C 1320.9449 1831.3295 1318.2586 1834.0158 1314.9449 1834.0158 L 1197.9685 1834.0158 C 1194.6548 1834.0158 1191.9685 1831.3295 1191.9685 1828.0158 L 1191.9685 1791.8268 C 1191.9685 1788.513 1194.6548 1785.8268 1197.9685 1785.8268 Z"
            stroke="#012b36" stroke-linecap="round" stroke-linejoin="round" stroke-width="1"/>
        <text transform="translate(1196.9685 1800.4213)" fill="white">
          <tspan font-family="Roboto, sans-serif" font-size="16" fill="white" x="18.296783"
              y="15">Parameters
          </tspan>
        </text>
      </g>
      <g id="Line_34">
        <path d="M 1157.2441 1765.9843 L 1157.2441 1809.9213 L 1191.9685 1809.9213" stroke="white"
            stroke-linecap="round" stroke-linejoin="round" stroke-width="1"/>
      </g>
      <g id="Line_36">
        <path d="M 922.7533 1834.0158 L 922.7533 1890.1024 L 963.7795 1890.1024" stroke="white"
            stroke-linecap="round" stroke-linejoin="round" stroke-width="1"/>
      </g>
      <g id="Graphic_44">
        <text transform="translate(876.7709 1786.5748)" fill="white">
          <tspan font-family="Roboto, sans-serif" font-size="12" fill="white" x="0" y="11">1</tspan>
        </text>
      </g>
      <g id="Graphic_46">
        <text transform="translate(939.5569 1864.9132)" fill="white">
          <tspan font-family="Roboto, sans-serif" font-size="12" fill="white" x="0" y="11">1..*
          </tspan>
        </text>
      </g>
      <g id="Graphic_48">
        <text transform="translate(1178.2913 1785.8268)" fill="white">
          <tspan font-family="Roboto, sans-serif" font-size="12" fill="white" x="0" y="11">1</tspan>
        </text>
      </g>
      <g id="Graphic_35">
        <path
            d="M 969.7795 1866.008 L 1093.8425 1866.008 C 1097.1562 1866.008 1099.8425 1868.6942 1099.8425 1872.008 L 1099.8425 1908.1969 C 1099.8425 1911.5106 1097.1562 1914.1969 1093.8425 1914.1969 L 969.7795 1914.1969 C 966.4658 1914.1969 963.7795 1911.5106 963.7795 1908.1969 L 963.7795 1872.008 C 963.7795 1868.6942 966.4658 1866.008 969.7795 1866.008 Z"
            fill="#cb4b16" fill-opacity=".2"/>
        <path
            d="M 969.7795 1866.008 L 1093.8425 1866.008 C 1097.1562 1866.008 1099.8425 1868.6942 1099.8425 1872.008 L 1099.8425 1908.1969 C 1099.8425 1911.5106 1097.1562 1914.1969 1093.8425 1914.1969 L 969.7795 1914.1969 C 966.4658 1914.1969 963.7795 1911.5106 963.7795 1908.1969 L 963.7795 1872.008 C 963.7795 1868.6942 966.4658 1866.008 969.7795 1866.008 Z"
            stroke="#012b36" stroke-linecap="round" stroke-linejoin="round" stroke-width="1"/>
        <text transform="translate(968.7795 1880.6024)" fill="white">
          <tspan font-family="Roboto, sans-serif" font-size="16" fill="white" x="20.461185"
              y="15">aggregation
          </tspan>
        </text>
      </g>
      <g id="Line_67">
        <path d="M 922.7533 1834.0158 L 922.7533 1957.5877 L 963.7795 1957.5877" stroke="white"
            stroke-linecap="round" stroke-linejoin="round" stroke-width="1"/>
      </g>
      <g id="Graphic_61">
        <text transform="translate(939.2449 1933.0204)" fill="white">
          <tspan font-family="Roboto, sans-serif" font-size="12" fill="white" x="0" y="11">0..*
          </tspan>
        </text>
      </g>
      <g id="Graphic_59">
        <path
            d="M 969.7795 1933.4933 L 1074 1933.4933 C 1077.3137 1933.4933 1080 1936.1795 1080 1939.4933 L 1080 1975.6822 C 1080 1978.996 1077.3137 1981.6822 1074 1981.6822 L 969.7795 1981.6822 C 966.4658 1981.6822 963.7795 1978.996 963.7795 1975.6822 L 963.7795 1939.4933 C 963.7795 1936.1795 966.4658 1933.4933 969.7795 1933.4933 Z"
            fill="#cb4b16" fill-opacity=".2"/>
        <path
            d="M 969.7795 1933.4933 L 1074 1933.4933 C 1077.3137 1933.4933 1080 1936.1795 1080 1939.4933 L 1080 1975.6822 C 1080 1978.996 1077.3137 1981.6822 1074 1981.6822 L 969.7795 1981.6822 C 966.4658 1981.6822 963.7795 1978.996 963.7795 1975.6822 L 963.7795 1939.4933 C 963.7795 1936.1795 966.4658 1933.4933 969.7795 1933.4933 Z"
            stroke="#012b36" stroke-linecap="round" stroke-linejoin="round" stroke-width="1"/>
        <text transform="translate(968.7795 1948.0877)" fill="white">
          <tspan font-family="Roboto, sans-serif" font-size="16" fill="white" x="21.688362"
              y="15">grouping
          </tspan>
        </text>
      </g>
      <g id="Line_73">
        <path d="M 922.7533 1834.0158 L 922.7533 2024.5855 L 963.7795 2024.5855" stroke="white"
            stroke-linecap="round" stroke-linejoin="round" stroke-width="1"/>
      </g>
      <g id="Graphic_70">
        <text transform="translate(939.2449 1999.9786)" fill="white">
          <tspan font-family="Roboto, sans-serif" font-size="12" fill="white" x="0" y="11">0..*
          </tspan>
        </text>
      </g>
      <g id="Graphic_69">
        <path
            d="M 969.7795 2000.491 L 1037.1496 2000.491 C 1040.4633 2000.491 1043.1496 2003.1773 1043.1496 2006.491 L 1043.1496 2042.68 C 1043.1496 2045.9937 1040.4633 2048.68 1037.1496 2048.68 L 969.7795 2048.68 C 966.4658 2048.68 963.7795 2045.9937 963.7795 2042.68 L 963.7795 2006.491 C 963.7795 2003.1773 966.4658 2000.491 969.7795 2000.491 Z"
            fill="#cb4b16" fill-opacity=".2"/>
        <path
            d="M 969.7795 2000.491 L 1037.1496 2000.491 C 1040.4633 2000.491 1043.1496 2003.1773 1043.1496 2006.491 L 1043.1496 2042.68 C 1043.1496 2045.9937 1040.4633 2048.68 1037.1496 2048.68 L 969.7795 2048.68 C 966.4658 2048.68 963.7795 2045.9937 963.7795 2042.68 L 963.7795 2006.491 C 963.7795 2003.1773 966.4658 2000.491 969.7795 2000.491 Z"
            stroke="#012b36" stroke-linecap="round" stroke-linejoin="round" stroke-width="1"/>
        <text transform="translate(968.7795 2015.0855)" fill="white">
          <tspan font-family="Roboto, sans-serif" font-size="16" fill="white" x="18.755352"
              y="15">filter
          </tspan>
        </text>
      </g>
      <g id="Line_76">
        <path d="M 1224.2126 1834.0158 L 1224.2126 1889.0447 L 1261.4173 1889.0447" stroke="white"
            stroke-linecap="round" stroke-linejoin="round" stroke-width="1"/>
      </g>
      <g id="Graphic_75">
        <text transform="translate(1237.1947 1864.281)" fill="white">
          <tspan font-family="Roboto, sans-serif" font-size="12" fill="white" x="0" y="11">0..*
          </tspan>
        </text>
      </g>
      <g id="Graphic_74">
        <path
            d="M 1267.4173 1864.9502 L 1371.6378 1864.9502 C 1374.9515 1864.9502 1377.6378 1867.6365 1377.6378 1870.9502 L 1377.6378 1907.1392 C 1377.6378 1910.453 1374.9515 1913.1392 1371.6378 1913.1392 L 1267.4173 1913.1392 C 1264.1036 1913.1392 1261.4173 1910.453 1261.4173 1907.1392 L 1261.4173 1870.9502 C 1261.4173 1867.6365 1264.1036 1864.9502 1267.4173 1864.9502 Z"
            fill="#2aa198" fill-opacity=".2"/>
        <path
            d="M 1267.4173 1864.9502 L 1371.6378 1864.9502 C 1374.9515 1864.9502 1377.6378 1867.6365 1377.6378 1870.9502 L 1377.6378 1907.1392 C 1377.6378 1910.453 1374.9515 1913.1392 1371.6378 1913.1392 L 1267.4173 1913.1392 C 1264.1036 1913.1392 1261.4173 1910.453 1261.4173 1907.1392 L 1261.4173 1870.9502 C 1261.4173 1867.6365 1264.1036 1864.9502 1267.4173 1864.9502 Z"
            stroke="#012b36" stroke-linecap="round" stroke-linejoin="round" stroke-width="1"/>
        <text transform="translate(1266.4173 1879.5447)" fill="white">
          <tspan font-family="Roboto, sans-serif" font-size="16" fill="white" x="21.688362"
              y="15">grouping
          </tspan>
        </text>
      </g>
      <g id="Graphic_83">
        <path
            d="M 1344.7506 1932.9764 L 1412.1207 1932.9764 C 1415.4344 1932.9764 1418.1207 1935.6627 1418.1207 1938.9764 L 1418.1207 1975.1654 C 1418.1207 1978.479 1415.4344 1981.1654 1412.1207 1981.1654 L 1344.7506 1981.1654 C 1341.437 1981.1654 1338.7506 1978.479 1338.7506 1975.1654 L 1338.7506 1938.9764 C 1338.7506 1935.6627 1341.437 1932.9764 1344.7506 1932.9764 Z"
            fill="#2aa198" fill-opacity=".2"/>
        <path
            d="M 1344.7506 1932.9764 L 1412.1207 1932.9764 C 1415.4344 1932.9764 1418.1207 1935.6627 1418.1207 1938.9764 L 1418.1207 1975.1654 C 1418.1207 1978.479 1415.4344 1981.1654 1412.1207 1981.1654 L 1344.7506 1981.1654 C 1341.437 1981.1654 1338.7506 1978.479 1338.7506 1975.1654 L 1338.7506 1938.9764 C 1338.7506 1935.6627 1341.437 1932.9764 1344.7506 1932.9764 Z"
            stroke="#012b36" stroke-linecap="round" stroke-linejoin="round" stroke-width="1"/>
        <text transform="translate(1343.7506 1947.571)" fill="white">
          <tspan font-family="Roboto, sans-serif" font-size="16" fill="white" x="17.724102"
              y="15">label
          </tspan>
        </text>
      </g>
      <g id="Line_82">
        <path d="M 1290.4725 1913.1392 L 1290.4725 1957.071 L 1338.7506 1957.071" stroke="white"
            stroke-linecap="round" stroke-linejoin="round" stroke-width="1"/>
      </g>
      <g id="Graphic_81">
        <text transform="translate(1313.039 1932.9764)" fill="white">
          <tspan font-family="Roboto, sans-serif" font-size="12" fill="white" x="0" y="11">0..*
          </tspan>
        </text>
      </g>
      <g id="Graphic_87">
        <path
            d="M 1344.7506 1998.1654 L 1412.1207 1998.1654 C 1415.4344 1998.1654 1418.1207 2000.8517 1418.1207 2004.1654 L 1418.1207 2040.3543 C 1418.1207 2043.668 1415.4344 2046.3543 1412.1207 2046.3543 L 1344.7506 2046.3543 C 1341.437 2046.3543 1338.7506 2043.668 1338.7506 2040.3543 L 1338.7506 2004.1654 C 1338.7506 2000.8517 1341.437 1998.1654 1344.7506 1998.1654 Z"
            fill="#2aa198" fill-opacity=".2"/>
        <path
            d="M 1344.7506 1998.1654 L 1412.1207 1998.1654 C 1415.4344 1998.1654 1418.1207 2000.8517 1418.1207 2004.1654 L 1418.1207 2040.3543 C 1418.1207 2043.668 1415.4344 2046.3543 1412.1207 2046.3543 L 1344.7506 2046.3543 C 1341.437 2046.3543 1338.7506 2043.668 1338.7506 2040.3543 L 1338.7506 2004.1654 C 1338.7506 2000.8517 1341.437 1998.1654 1344.7506 1998.1654 Z"
            stroke="#012b36" stroke-linecap="round" stroke-linejoin="round" stroke-width="1"/>
        <text transform="translate(1343.7506 2012.7599)" fill="white">
          <tspan font-family="Roboto, sans-serif" font-size="16" fill="white" x="14.724102"
              y="15">result
          </tspan>
        </text>
      </g>
      <g id="Graphic_86">
        <text transform="translate(1313.4181 1998.987)" fill="white">
          <tspan font-family="Roboto, sans-serif" font-size="12" fill="white" x="0" y="11">1..*
          </tspan>
        </text>
      </g>
      <g id="Line_88">
        <path d="M 1290.4725 1913.1392 L 1290.4725 2022.2599 L 1338.7506 2022.2599" stroke="white"
            stroke-linecap="round" stroke-linejoin="round" stroke-width="1"/>
      </g>
      <g id="Graphic_93">
        <path
            d="M 1344.878 2065.3543 L 1434.1273 2065.3543 C 1437.441 2065.3543 1440.1273 2068.0406 1440.1273 2071.3543 L 1440.1273 2107.5433 C 1440.1273 2110.857 1437.441 2113.5433 1434.1273 2113.5433 L 1344.878 2113.5433 C 1341.5642 2113.5433 1338.878 2110.857 1338.878 2107.5433 L 1338.878 2071.3543 C 1338.878 2068.0406 1341.5642 2065.3543 1344.878 2065.3543 Z"
            fill="#2aa198" fill-opacity=".2"/>
        <path
            d="M 1344.878 2065.3543 L 1434.1273 2065.3543 C 1437.441 2065.3543 1440.1273 2068.0406 1440.1273 2071.3543 L 1440.1273 2107.5433 C 1440.1273 2110.857 1437.441 2113.5433 1434.1273 2113.5433 L 1344.878 2113.5433 C 1341.5642 2113.5433 1338.878 2110.857 1338.878 2107.5433 L 1338.878 2071.3543 C 1338.878 2068.0406 1341.5642 2065.3543 1344.878 2065.3543 Z"
            stroke="#012b36" stroke-linecap="round" stroke-linejoin="round" stroke-width="1"/>
        <text transform="translate(1343.878 2079.9488)" fill="white">
          <tspan font-family="Roboto, sans-serif" font-size="16" fill="white" x="12.34734"
              y="15">drillDown
          </tspan>
        </text>
      </g>
      <g id="Line_89">
        <path d="M 1290.4725 1913.1392 L 1290.4725 2089.4488 L 1338.878 2089.4488" stroke="white"
            stroke-linecap="round" stroke-linejoin="round" stroke-width="1"/>
      </g>
      <g id="Graphic_94">
        <text transform="translate(1313.1926 2064.9977)" fill="white">
          <tspan font-family="Roboto, sans-serif" font-size="12" fill="white" x="0" y="11">0..*
          </tspan>
        </text>
      </g>
    </g>
  </g>
</svg>
