<?xml version="1.0" encoding="UTF-8" standalone="no"?>
<!DOCTYPE svg PUBLIC "-//W3C//DTD SVG 1.1//EN" "http://www.w3.org/Graphics/SVG/1.1/DTD/svg11.dtd">
<svg xmlns:dc="http://purl.org/dc/elements/1.1/" xmlns:xl="http://www.w3.org/1999/xlink" xmlns="http://www.w3.org/2000/svg" version="1.1" viewBox="471 1680 914 351" width="914" height="351">
  <defs>
    <marker orient="auto" overflow="visible" markerUnits="strokeWidth" id="StickArrow_Marker" stroke-linejoin="miter" stroke-miterlimit="10" viewBox="-1 -4 10 8" markerWidth="10" markerHeight="8" color="#424242">
      <g>
        <path d="M 8 0 L 0 0 M 0 -3 L 8 0 L 0 3" fill="none" stroke="currentColor" stroke-width="1"/>
      </g>
    </marker>
    <marker orient="auto" overflow="visible" markerUnits="strokeWidth" id="StickArrow_Marker_2" stroke-linejoin="miter" stroke-miterlimit="10" viewBox="-1 -4 10 8" markerWidth="10" markerHeight="8" color="black">
      <g>
        <path d="M 8 0 L 0 0 M 0 -3 L 8 0 L 0 3" fill="none" stroke="currentColor" stroke-width="1"/>
      </g>
    </marker>
    <marker orient="auto" overflow="visible" markerUnits="strokeWidth" id="StickArrow_Marker_3" stroke-linejoin="miter" stroke-miterlimit="10" viewBox="-1 -4 10 8" markerWidth="10" markerHeight="8" color="#424242">
      <g>
        <path d="M 8 0 L 0 0 M 0 -3 L 8 0 L 0 3" fill="none" stroke="currentColor" stroke-width="1"/>
      </g>
    </marker>
  </defs>
  <g id="Authorities" stroke="none" fill="none" stroke-dasharray="none" stroke-opacity="1" fill-opacity="1">
    <title>Authorities</title>
    <g id="Authorities_Layer_1">
      <title>Layer 1</title>
      <g id="Graphic_16">
        <path d="M 891.0903 1802.8347 L 964.711 1802.8347 C 968.0247 1802.8347 970.711 1805.521 970.711 1808.8347 L 970.711 1845.0236 C 970.711 1848.3373 968.0247 1851.0236 964.711 1851.0236 L 891.0903 1851.0236 C 887.7765 1851.0236 885.0903 1848.3373 885.0903 1845.0236 L 885.0903 1808.8347 C 885.0903 1805.521 887.7765 1802.8347 891.0903 1802.8347 Z" fill="#d33682" fill-opacity=".2"/>
        <path d="M 891.0903 1802.8347 L 964.711 1802.8347 C 968.0247 1802.8347 970.711 1805.521 970.711 1808.8347 L 970.711 1845.0236 C 970.711 1848.3373 968.0247 1851.0236 964.711 1851.0236 L 891.0903 1851.0236 C 887.7765 1851.0236 885.0903 1848.3373 885.0903 1845.0236 L 885.0903 1808.8347 C 885.0903 1805.521 887.7765 1802.8347 891.0903 1802.8347 Z" stroke="#012b36" stroke-linecap="round" stroke-linejoin="round" stroke-width="1"/>
        <text transform="translate(890.0903 1818.9292)" fill="black">
          <tspan font-family="Roboto, sans-serif" font-size="14" fill="black" x="12.746391" y="13">pathling</tspan>
        </text>
      </g>
      <g id="Graphic_21">
        <path d="M 802.9632 1895.811 L 911.8589 1895.811 C 915.1726 1895.811 917.8589 1898.4973 917.8589 1901.811 L 917.8589 1938 C 917.8589 1941.3137 915.1726 1944 911.8589 1944 L 802.9632 1944 C 799.6494 1944 796.9632 1941.3137 796.9632 1938 L 796.9632 1901.811 C 796.9632 1898.4973 799.6494 1895.811 802.9632 1895.811 Z" fill="#cb4b16" fill-opacity=".2"/>
        <path d="M 802.9632 1895.811 L 911.8589 1895.811 C 915.1726 1895.811 917.8589 1898.4973 917.8589 1901.811 L 917.8589 1938 C 917.8589 1941.3137 915.1726 1944 911.8589 1944 L 802.9632 1944 C 799.6494 1944 796.9632 1941.3137 796.9632 1938 L 796.9632 1901.811 C 796.9632 1898.4973 799.6494 1895.811 802.9632 1895.811 Z" stroke="#012b36" stroke-linecap="round" stroke-linejoin="round" stroke-width="1"/>
        <text transform="translate(801.9632 1911.9055)" fill="black">
          <tspan font-family="Roboto, sans-serif" font-size="14" fill="black" x="14.921005" y="13">pathling:read</tspan>
        </text>
      </g>
      <g id="Line_22">
        <path d="M 906.4954 1851.0236 C 899.5637 1863.6595 895.497 1870.649 890.482 1886.329" marker-end="url(#StickArrow_Marker)" stroke="#424242" stroke-linecap="round" stroke-linejoin="round" stroke-width="1"/>
      </g>
      <g id="Graphic_23">
        <path d="M 943.3137 1895.811 L 1061.8724 1895.811 C 1065.1861 1895.811 1067.8724 1898.4973 1067.8724 1901.811 L 1067.8724 1938 C 1067.8724 1941.3137 1065.1861 1944 1061.8724 1944 L 943.3137 1944 C 940 1944 937.3137 1941.3137 937.3137 1938 L 937.3137 1901.811 C 937.3137 1898.4973 940 1895.811 943.3137 1895.811 Z" fill="#cb4b16" fill-opacity=".2"/>
        <path d="M 943.3137 1895.811 L 1061.8724 1895.811 C 1065.1861 1895.811 1067.8724 1898.4973 1067.8724 1901.811 L 1067.8724 1938 C 1067.8724 1941.3137 1065.1861 1944 1061.8724 1944 L 943.3137 1944 C 940 1944 937.3137 1941.3137 937.3137 1938 L 937.3137 1901.811 C 937.3137 1898.4973 940 1895.811 943.3137 1895.811 Z" stroke="#012b36" stroke-linecap="round" stroke-linejoin="round" stroke-width="1"/>
        <text transform="translate(942.3137 1911.9055)" fill="black">
          <tspan font-family="Roboto, sans-serif" font-size="14" fill="black" x="18.197304" y="13">pathling:write</tspan>
        </text>
      </g>
      <g id="Line_24">
        <path d="M 949.3058 1851.0236 C 956.9478 1863.7484 961.6547 1870.0205 967.0615 1886.3396" marker-end="url(#StickArrow_Marker)" stroke="#424242" stroke-linecap="round" stroke-linejoin="round" stroke-width="1"/>
      </g>
      <g id="Graphic_25">
        <path d="M 570.2625 1895.811 L 771.5083 1895.811 C 774.822 1895.811 777.5083 1898.4973 777.5083 1901.811 L 777.5083 1938 C 777.5083 1941.3137 774.822 1944 771.5083 1944 L 570.2625 1944 C 566.9488 1944 564.2625 1941.3137 564.2625 1938 L 564.2625 1901.811 C 564.2625 1898.4973 566.9488 1895.811 570.2625 1895.811 Z" fill="#b58900" fill-opacity=".2"/>
        <path d="M 570.2625 1895.811 L 771.5083 1895.811 C 774.822 1895.811 777.5083 1898.4973 777.5083 1901.811 L 777.5083 1938 C 777.5083 1941.3137 774.822 1944 771.5083 1944 L 570.2625 1944 C 566.9488 1944 564.2625 1941.3137 564.2625 1938 L 564.2625 1901.811 C 564.2625 1898.4973 566.9488 1895.811 570.2625 1895.811 Z" stroke="#012b36" stroke-linecap="round" stroke-linejoin="round" stroke-width="1"/>
        <text transform="translate(569.2625 1911.9055)" fill="black">
          <tspan font-family="Roboto, sans-serif" font-size="14" fill="black" x="13.572617" y="13">pathling:read:[resource type]</tspan>
        </text>
      </g>
      <g id="Graphic_26">
        <path d="M 1093.3272 1895.811 L 1302.189 1895.811 C 1305.5027 1895.811 1308.189 1898.4973 1308.189 1901.811 L 1308.189 1938 C 1308.189 1941.3137 1305.5027 1944 1302.189 1944 L 1093.3272 1944 C 1090.0135 1944 1087.3272 1941.3137 1087.3272 1938 L 1087.3272 1901.811 C 1087.3272 1898.4973 1090.0135 1895.811 1093.3272 1895.811 Z" fill="#b58900" fill-opacity=".2"/>
        <path d="M 1093.3272 1895.811 L 1302.189 1895.811 C 1305.5027 1895.811 1308.189 1898.4973 1308.189 1901.811 L 1308.189 1938 C 1308.189 1941.3137 1305.5027 1944 1302.189 1944 L 1093.3272 1944 C 1090.0135 1944 1087.3272 1941.3137 1087.3272 1938 L 1087.3272 1901.811 C 1087.3272 1898.4973 1090.0135 1895.811 1093.3272 1895.811 Z" stroke="#012b36" stroke-linecap="round" stroke-linejoin="round" stroke-width="1"/>
        <text transform="translate(1092.3272 1911.9055)" fill="black">
          <tspan font-family="Roboto, sans-serif" font-size="14" fill="black" x="15.825409" y="13">pathling:write:[resource type]</tspan>
        </text>
      </g>
      <g id="Line_27">
        <line x1="796.9632" y1="1919.9055" x2="787.4083" y2="1919.9055" marker-end="url(#StickArrow_Marker)" stroke="#424242" stroke-linecap="round" stroke-linejoin="round" stroke-width="1"/>
      </g>
      <g id="Line_28">
        <line x1="1067.8724" y1="1919.9055" x2="1077.4272" y2="1919.9055" marker-end="url(#StickArrow_Marker)" stroke="#424242" stroke-linecap="round" stroke-linejoin="round" stroke-width="1"/>
      </g>
      <g id="Line_32">
        <path d="M 885.0903 1826.9292 C 799.5839 1804.8363 659.1187 1822.5473 597.4978 1765.1635" marker-end="url(#StickArrow_Marker)" stroke="#424242" stroke-linecap="round" stroke-linejoin="round" stroke-width="1"/>
      </g>
      <g id="Line_33">
        <path d="M 885.0903 1814.882 C 848.8434 1797.2247 749.5855 1798.6853 716.4515 1765.8085" marker-end="url(#StickArrow_Marker)" stroke="#424242" stroke-linecap="round" stroke-linejoin="round" stroke-width="1"/>
      </g>
      <g id="Line_34">
        <path d="M 906.4954 1802.8347 C 912.09 1790.0982 872.6566 1784.6572 863.8378 1767.84" marker-end="url(#StickArrow_Marker)" stroke="#424242" stroke-linecap="round" stroke-linejoin="round" stroke-width="1"/>
      </g>
      <g id="Line_36">
        <line x1="499.9381" y1="1991.5827" x2="525.0381" y2="1991.5827" marker-end="url(#StickArrow_Marker_2)" stroke="black" stroke-linecap="round" stroke-linejoin="round" stroke-width="1"/>
      </g>
      <g id="Graphic_35">
        <text transform="translate(542.9381 1983.5827)" fill="black">
          <tspan font-family="Roboto, sans-serif" font-size="12" fill="black" x="0" y="11">includes</tspan>
        </text>
      </g>
      <g id="Graphic_29">
        <path d="M 505.9381 1709.8583 L 614.83384 1709.8583 C 618.14755 1709.8583 620.83384 1712.5446 620.83384 1715.8583 L 620.83384 1752.0473 C 620.83384 1755.361 618.14755 1758.0473 614.83384 1758.0473 L 505.9381 1758.0473 C 502.6244 1758.0473 499.9381 1755.361 499.9381 1752.0473 L 499.9381 1715.8583 C 499.9381 1712.5446 502.6244 1709.8583 505.9381 1709.8583 Z" fill="#6c71c4" fill-opacity=".2"/>
        <path d="M 505.9381 1709.8583 L 614.83384 1709.8583 C 618.14755 1709.8583 620.83384 1712.5446 620.83384 1715.8583 L 620.83384 1752.0473 C 620.83384 1755.361 618.14755 1758.0473 614.83384 1758.0473 L 505.9381 1758.0473 C 502.6244 1758.0473 499.9381 1755.361 499.9381 1752.0473 L 499.9381 1715.8583 C 499.9381 1712.5446 502.6244 1709.8583 505.9381 1709.8583 Z" stroke="#012b36" stroke-linecap="round" stroke-linejoin="round" stroke-width="1"/>
        <text transform="translate(504.9381 1725.9528)" fill="black">
          <tspan font-family="Roboto, sans-serif" font-size="14" fill="black" x="8.108994" y="13">pathling:import</tspan>
        </text>
      </g>
      <g id="Graphic_30">
        <path d="M 646.6764 1709.8583 L 773.9389 1709.8583 C 777.25265 1709.8583 779.9389 1712.5446 779.9389 1715.8583 L 779.9389 1752.0473 C 779.9389 1755.361 777.25265 1758.0473 773.9389 1758.0473 L 646.6764 1758.0473 C 643.36265 1758.0473 640.6764 1755.361 640.6764 1752.0473 L 640.6764 1715.8583 C 640.6764 1712.5446 643.36265 1709.8583 646.6764 1709.8583 Z" fill="#6c71c4" fill-opacity=".2"/>
        <path d="M 646.6764 1709.8583 L 773.9389 1709.8583 C 777.25265 1709.8583 779.9389 1712.5446 779.9389 1715.8583 L 779.9389 1752.0473 C 779.9389 1755.361 777.25265 1758.0473 773.9389 1758.0473 L 646.6764 1758.0473 C 643.36265 1758.0473 640.6764 1755.361 640.6764 1752.0473 L 640.6764 1715.8583 C 640.6764 1712.5446 643.36265 1709.8583 646.6764 1709.8583 Z" stroke="#012b36" stroke-linecap="round" stroke-linejoin="round" stroke-width="1"/>
        <text transform="translate(645.6764 1725.9528)" fill="black">
          <tspan font-family="Roboto, sans-serif" font-size="14" fill="black" x="6.4677124" y="13">pathling:aggregate</tspan>
        </text>
      </g>
      <g id="Graphic_31">
        <path d="M 805.7815 1709.8583 L 919.0009 1709.8583 C 922.3146 1709.8583 925.0009 1712.5446 925.0009 1715.8583 L 925.0009 1752.0473 C 925.0009 1755.361 922.3146 1758.0473 919.0009 1758.0473 L 805.7815 1758.0473 C 802.4678 1758.0473 799.7815 1755.361 799.7815 1752.0473 L 799.7815 1715.8583 C 799.7815 1712.5446 802.4678 1709.8583 805.7815 1709.8583 Z" fill="#6c71c4" fill-opacity=".2"/>
        <path d="M 805.7815 1709.8583 L 919.0009 1709.8583 C 922.3146 1709.8583 925.0009 1712.5446 925.0009 1715.8583 L 925.0009 1752.0473 C 925.0009 1755.361 922.3146 1758.0473 919.0009 1758.0473 L 805.7815 1758.0473 C 802.4678 1758.0473 799.7815 1755.361 799.7815 1752.0473 L 799.7815 1715.8583 C 799.7815 1712.5446 802.4678 1709.8583 805.7815 1709.8583 Z" stroke="#012b36" stroke-linecap="round" stroke-linejoin="round" stroke-width="1"/>
        <text transform="translate(804.7815 1725.9528)" fill="black">
          <tspan font-family="Roboto, sans-serif" font-size="14" fill="black" x="9.901718" y="13">pathling:search</tspan>
        </text>
      </g>
      <g id="Graphic_37">
        <path d="M 1095.9054 1709.2914 L 1209.1249 1709.2914 C 1212.4386 1709.2914 1215.1249 1711.9776 1215.1249 1715.2914 L 1215.1249 1751.4803 C 1215.1249 1754.794 1212.4386 1757.4803 1209.1249 1757.4803 L 1095.9054 1757.4803 C 1092.5917 1757.4803 1089.9054 1754.794 1089.9054 1751.4803 L 1089.9054 1715.2914 C 1089.9054 1711.9776 1092.5917 1709.2914 1095.9054 1709.2914 Z" fill="#6c71c4" fill-opacity=".2"/>
        <path d="M 1095.9054 1709.2914 L 1209.1249 1709.2914 C 1212.4386 1709.2914 1215.1249 1711.9776 1215.1249 1715.2914 L 1215.1249 1751.4803 C 1215.1249 1754.794 1212.4386 1757.4803 1209.1249 1757.4803 L 1095.9054 1757.4803 C 1092.5917 1757.4803 1089.9054 1754.794 1089.9054 1751.4803 L 1089.9054 1715.2914 C 1089.9054 1711.9776 1092.5917 1709.2914 1095.9054 1709.2914 Z" stroke="#012b36" stroke-linecap="round" stroke-linejoin="round" stroke-width="1"/>
        <text transform="translate(1094.9054 1725.3858)" fill="black">
          <tspan font-family="Roboto, sans-serif" font-size="14" fill="black" x="9.313828" y="13">pathling:update</tspan>
        </text>
      </g>
      <g id="Graphic_38">
        <path d="M 1240.9674 1709.2914 L 1349.8631 1709.2914 C 1353.1768 1709.2914 1355.8631 1711.9776 1355.8631 1715.2914 L 1355.8631 1751.4803 C 1355.8631 1754.794 1353.1768 1757.4803 1349.8631 1757.4803 L 1240.9674 1757.4803 C 1237.6537 1757.4803 1234.9674 1754.794 1234.9674 1751.4803 L 1234.9674 1715.2914 C 1234.9674 1711.9776 1237.6537 1709.2914 1240.9674 1709.2914 Z" fill="#6c71c4" fill-opacity=".2"/>
        <path d="M 1240.9674 1709.2914 L 1349.8631 1709.2914 C 1353.1768 1709.2914 1355.8631 1711.9776 1355.8631 1715.2914 L 1355.8631 1751.4803 C 1355.8631 1754.794 1353.1768 1757.4803 1349.8631 1757.4803 L 1240.9674 1757.4803 C 1237.6537 1757.4803 1234.9674 1754.794 1234.9674 1751.4803 L 1234.9674 1715.2914 C 1234.9674 1711.9776 1237.6537 1709.2914 1240.9674 1709.2914 Z" stroke="#012b36" stroke-linecap="round" stroke-linejoin="round" stroke-width="1"/>
        <text transform="translate(1239.9674 1725.3858)" fill="black">
          <tspan font-family="Roboto, sans-serif" font-size="14" fill="black" x="11.147568" y="13">pathling:batch</tspan>
        </text>
      </g>
      <g id="Line_39">
        <path d="M 970.711 1814.882 C 1003.3804 1797.2055 1090.6209 1797.781 1116.2046 1766.0236" marker-end="url(#StickArrow_Marker_3)" stroke="#424242" stroke-linecap="round" stroke-linejoin="round" stroke-width="1"/>
      </g>
      <g id="Line_40">
        <path d="M 970.711 1826.9292 C 1076.1194 1804.5437 1225.4097 1836.7385 1289.1882 1765.1774" marker-end="url(#StickArrow_Marker_3)" stroke="#424242" stroke-linecap="round" stroke-linejoin="round" stroke-width="1"/>
      </g>
      <g id="Graphic_41">
        <path d="M 950.8434 1709.8583 L 1064.0629 1709.8583 C 1067.3766 1709.8583 1070.0629 1712.5446 1070.0629 1715.8583 L 1070.0629 1752.0473 C 1070.0629 1755.361 1067.3766 1758.0473 1064.0629 1758.0473 L 950.8434 1758.0473 C 947.5297 1758.0473 944.8434 1755.361 944.8434 1752.0473 L 944.8434 1715.8583 C 944.8434 1712.5446 947.5297 1709.8583 950.8434 1709.8583 Z" fill="#6c71c4" fill-opacity=".2"/>
        <path d="M 950.8434 1709.8583 L 1064.0629 1709.8583 C 1067.3766 1709.8583 1070.0629 1712.5446 1070.0629 1715.8583 L 1070.0629 1752.0473 C 1070.0629 1755.361 1067.3766 1758.0473 1064.0629 1758.0473 L 950.8434 1758.0473 C 947.5297 1758.0473 944.8434 1755.361 944.8434 1752.0473 L 944.8434 1715.8583 C 944.8434 1712.5446 947.5297 1709.8583 950.8434 1709.8583 Z" stroke="#012b36" stroke-linecap="round" stroke-linejoin="round" stroke-width="1"/>
        <text transform="translate(949.8434 1725.9528)" fill="black">
          <tspan font-family="Roboto, sans-serif" font-size="14" fill="black" x="9.395859" y="13">pathling:extract</tspan>
        </text>
      </g>
      <g id="Line_42">
        <path d="M 949.3058 1802.8347 C 954.9798 1789.9175 990.8871 1784.5042 1003.4723 1767.117" marker-end="url(#StickArrow_Marker_3)" stroke="#424242" stroke-linecap="round" stroke-linejoin="round" stroke-width="1"/>
      </g>
    </g>
  </g>
</svg>
