<?xml version="1.0" encoding="UTF-8" standalone="no"?>
<!DOCTYPE svg PUBLIC "-//W3C//DTD SVG 1.1//EN" "http://www.w3.org/Graphics/SVG/1.1/DTD/svg11.dtd">
<svg version="1.1" xmlns="http://www.w3.org/2000/svg" viewBox="802 1689 668 447" width="668"
    height="447">
  <defs/>
  <g id="Canvas_import_Operation_(no_text)" fill-opacity="1" stroke="none" stroke-opacity="1"
      stroke-dasharray="none" fill="none">
    <title>$import Operation (no text)</title>
    <g id="Canvas_import_Operation_(no_text)_Layer_1">
      <title>Layer 1</title>
      <g id="Line_9">
        <path d="M 922.7533 1834.0158 L 922.7533 1877.9528 L 963.7795 1877.9528" stroke="#073642"
            stroke-linecap="round" stroke-linejoin="round" stroke-width="1"/>
      </g>
      <g id="Line_21">
        <path d="M 859.6063 1765.9843 L 859.6063 1809.9213 L 890.5092 1809.9213" stroke="#073642"
            stroke-linecap="round" stroke-linejoin="round" stroke-width="1"/>
      </g>
      <g id="Graphic_2">
        <path
            d="M 836.5512 1717.7953 L 940.7717 1717.7953 C 944.0854 1717.7953 946.7717 1720.4816 946.7717 1723.7953 L 946.7717 1759.9843 C 946.7717 1763.298 944.0854 1765.9843 940.7717 1765.9843 L 836.5512 1765.9843 C 833.2375 1765.9843 830.5512 1763.298 830.5512 1759.9843 L 830.5512 1723.7953 C 830.5512 1720.4816 833.2375 1717.7953 836.5512 1717.7953 Z"
            fill="#b58900" fill-opacity=".2"/>
        <path
            d="M 836.5512 1717.7953 L 940.7717 1717.7953 C 944.0854 1717.7953 946.7717 1720.4816 946.7717 1723.7953 L 946.7717 1759.9843 C 946.7717 1763.298 944.0854 1765.9843 940.7717 1765.9843 L 836.5512 1765.9843 C 833.2375 1765.9843 830.5512 1763.298 830.5512 1759.9843 L 830.5512 1723.7953 C 830.5512 1720.4816 833.2375 1717.7953 836.5512 1717.7953 Z"
            stroke="#012b36" stroke-linecap="round" stroke-linejoin="round" stroke-width="1"/>
        <text transform="translate(835.5512 1732.3898)" fill="black">
          <tspan font-family="Roboto, sans-serif" font-size="16" fill="black" x="24.01258"
              y="15">Request
          </tspan>
        </text>
      </g>
      <g id="Graphic_6">
        <path
            d="M 969.7795 1853.8583 L 1052.7402 1853.8583 C 1056.0539 1853.8583 1058.7402 1856.5446 1058.7402 1859.8583 L 1058.7402 1896.0473 C 1058.7402 1899.361 1056.0539 1902.0473 1052.7402 1902.0473 L 969.7795 1902.0473 C 966.4658 1902.0473 963.7795 1899.361 963.7795 1896.0473 L 963.7795 1859.8583 C 963.7795 1856.5446 966.4658 1853.8583 969.7795 1853.8583 Z"
            fill="#cb4b16" fill-opacity=".2"/>
        <path
            d="M 969.7795 1853.8583 L 1052.7402 1853.8583 C 1056.0539 1853.8583 1058.7402 1856.5446 1058.7402 1859.8583 L 1058.7402 1896.0473 C 1058.7402 1899.361 1056.0539 1902.0473 1052.7402 1902.0473 L 969.7795 1902.0473 C 966.4658 1902.0473 963.7795 1899.361 963.7795 1896.0473 L 963.7795 1859.8583 C 963.7795 1856.5446 966.4658 1853.8583 969.7795 1853.8583 Z"
            stroke="#012b36" stroke-linecap="round" stroke-linejoin="round" stroke-width="1"/>
        <text transform="translate(968.7795 1868.4528)" fill="black">
          <tspan font-family="Roboto, sans-serif" font-size="16" fill="black" x="18.324066"
              y="15">source
          </tspan>
        </text>
      </g>
      <g id="Graphic_20">
        <path
            d="M 896.5092 1785.8268 L 1013.4856 1785.8268 C 1016.7993 1785.8268 1019.4856 1788.513 1019.4856 1791.8268 L 1019.4856 1828.0158 C 1019.4856 1831.3295 1016.7993 1834.0158 1013.4856 1834.0158 L 896.5092 1834.0158 C 893.1955 1834.0158 890.5092 1831.3295 890.5092 1828.0158 L 890.5092 1791.8268 C 890.5092 1788.513 893.1955 1785.8268 896.5092 1785.8268 Z"
            fill="#f2f2f2"/>
        <path
            d="M 896.5092 1785.8268 L 1013.4856 1785.8268 C 1016.7993 1785.8268 1019.4856 1788.513 1019.4856 1791.8268 L 1019.4856 1828.0158 C 1019.4856 1831.3295 1016.7993 1834.0158 1013.4856 1834.0158 L 896.5092 1834.0158 C 893.1955 1834.0158 890.5092 1831.3295 890.5092 1828.0158 L 890.5092 1791.8268 C 890.5092 1788.513 893.1955 1785.8268 896.5092 1785.8268 Z"
            stroke="#012b36" stroke-linecap="round" stroke-linejoin="round" stroke-width="1"/>
        <text transform="translate(895.5092 1800.4213)" fill="black">
          <tspan font-family="Roboto, sans-serif" font-size="16" fill="black" x="18.296783"
              y="15">Parameters
          </tspan>
        </text>
      </g>
      <g id="Graphic_32">
        <path
            d="M 1206.4725 1717.7953 L 1310.693 1717.7953 C 1314.0066 1717.7953 1316.693 1720.4816 1316.693 1723.7953 L 1316.693 1759.9843 C 1316.693 1763.298 1314.0066 1765.9843 1310.693 1765.9843 L 1206.4725 1765.9843 C 1203.1587 1765.9843 1200.4725 1763.298 1200.4725 1759.9843 L 1200.4725 1723.7953 C 1200.4725 1720.4816 1203.1587 1717.7953 1206.4725 1717.7953 Z"
            fill="#cdd6a6"/>
        <path
            d="M 1206.4725 1717.7953 L 1310.693 1717.7953 C 1314.0066 1717.7953 1316.693 1720.4816 1316.693 1723.7953 L 1316.693 1759.9843 C 1316.693 1763.298 1314.0066 1765.9843 1310.693 1765.9843 L 1206.4725 1765.9843 C 1203.1587 1765.9843 1200.4725 1763.298 1200.4725 1759.9843 L 1200.4725 1723.7953 C 1200.4725 1720.4816 1203.1587 1717.7953 1206.4725 1717.7953 Z"
            stroke="#012b36" stroke-linecap="round" stroke-linejoin="round" stroke-width="1"/>
        <text transform="translate(1205.4725 1732.3898)" fill="black">
          <tspan font-family="Roboto, sans-serif" font-size="16" fill="black" x="17.99305"
              y="15">Response
          </tspan>
        </text>
      </g>
      <g id="Graphic_33">
        <path
            d="M 1266.4304 1800 L 1434.5748 1800 C 1437.8885 1800 1440.5748 1802.6863 1440.5748 1806 L 1440.5748 1842.189 C 1440.5748 1845.5027 1437.8885 1848.189 1434.5748 1848.189 L 1266.4304 1848.189 C 1263.1167 1848.189 1260.4304 1845.5027 1260.4304 1842.189 L 1260.4304 1806 C 1260.4304 1802.6863 1263.1167 1800 1266.4304 1800 Z"
            fill="#f2f2f2"/>
        <path
            d="M 1266.4304 1800 L 1434.5748 1800 C 1437.8885 1800 1440.5748 1802.6863 1440.5748 1806 L 1440.5748 1842.189 C 1440.5748 1845.5027 1437.8885 1848.189 1434.5748 1848.189 L 1266.4304 1848.189 C 1263.1167 1848.189 1260.4304 1845.5027 1260.4304 1842.189 L 1260.4304 1806 C 1260.4304 1802.6863 1263.1167 1800 1266.4304 1800 Z"
            stroke="#012b36" stroke-linecap="round" stroke-linejoin="round" stroke-width="1"/>
        <text transform="translate(1265.4304 1814.5945)" fill="black">
          <tspan font-family="Roboto, sans-serif" font-size="16" fill="black" x="17.888596"
              y="15">OperationOutcome
          </tspan>
        </text>
      </g>
      <g id="Line_34">
        <path d="M 1229.5276 1765.9843 L 1229.5276 1824.0945 L 1260.4304 1824.0945" stroke="#073642"
            stroke-linecap="round" stroke-linejoin="round" stroke-width="1"/>
      </g>
      <g id="Line_36">
        <path d="M 987.5197 1902.0473 L 987.5197 1945.9843 L 1041.7323 1945.9843" stroke="#073642"
            stroke-linecap="round" stroke-linejoin="round" stroke-width="1"/>
      </g>
      <g id="Line_38">
        <path d="M 987.5197 1902.0473 L 987.5197 2014.0158 L 1041.7323 2014.0158" stroke="#073642"
            stroke-linecap="round" stroke-linejoin="round" stroke-width="1"/>
      </g>
      <g id="Graphic_44">
        <text transform="translate(876.7709 1786.5748)" fill="black">
          <tspan font-family="Roboto, sans-serif" font-size="12" fill="black" x="0" y="11">1</tspan>
        </text>
      </g>
      <g id="Graphic_45">
        <text transform="translate(939.5569 1854.9528)" fill="black">
          <tspan font-family="Roboto, sans-serif" font-size="12" fill="black" x="0" y="11">1..*
          </tspan>
        </text>
      </g>
      <g id="Graphic_46">
        <text transform="translate(1027.8474 1921.8032)" fill="black">
          <tspan font-family="Roboto, sans-serif" font-size="12" fill="black" x="0" y="11">1</tspan>
        </text>
      </g>
      <g id="Graphic_47">
        <text transform="translate(1027.505 1990.252)" fill="black">
          <tspan font-family="Roboto, sans-serif" font-size="12" fill="black" x="0" y="11">1</tspan>
        </text>
      </g>
      <g id="Graphic_48">
        <text transform="translate(1246.5748 1800.3307)" fill="black">
          <tspan font-family="Roboto, sans-serif" font-size="12" fill="black" x="0" y="11">1</tspan>
        </text>
      </g>
      <g id="Graphic_35">
        <path
            d="M 1047.7323 1921.8898 L 1171.7953 1921.8898 C 1175.109 1921.8898 1177.7953 1924.576 1177.7953 1927.8898 L 1177.7953 1964.0788 C 1177.7953 1967.3925 1175.109 1970.0788 1171.7953 1970.0788 L 1047.7323 1970.0788 C 1044.4186 1970.0788 1041.7323 1967.3925 1041.7323 1964.0788 L 1041.7323 1927.8898 C 1041.7323 1924.576 1044.4186 1921.8898 1047.7323 1921.8898 Z"
            fill="#cb4b16" fill-opacity=".2"/>
        <path
            d="M 1047.7323 1921.8898 L 1171.7953 1921.8898 C 1175.109 1921.8898 1177.7953 1924.576 1177.7953 1927.8898 L 1177.7953 1964.0788 C 1177.7953 1967.3925 1175.109 1970.0788 1171.7953 1970.0788 L 1047.7323 1970.0788 C 1044.4186 1970.0788 1041.7323 1967.3925 1041.7323 1964.0788 L 1041.7323 1927.8898 C 1041.7323 1924.576 1044.4186 1921.8898 1047.7323 1921.8898 Z"
            stroke="#012b36" stroke-linecap="round" stroke-linejoin="round" stroke-width="1"/>
        <text transform="translate(1046.7323 1936.4843)" fill="black">
          <tspan font-family="Roboto, sans-serif" font-size="16" fill="black" x="15.000248"
              y="15">resourceType
          </tspan>
        </text>
      </g>
      <g id="Graphic_37">
        <path
            d="M 1047.7323 1989.9213 L 1095.2599 1989.9213 C 1098.5736 1989.9213 1101.2599 1992.6076 1101.2599 1995.9213 L 1101.2599 2032.1103 C 1101.2599 2035.424 1098.5736 2038.1103 1095.2599 2038.1103 L 1047.7323 2038.1103 C 1044.4186 2038.1103 1041.7323 2035.424 1041.7323 2032.1103 L 1041.7323 1995.9213 C 1041.7323 1992.6076 1044.4186 1989.9213 1047.7323 1989.9213 Z"
            fill="#cb4b16" fill-opacity=".2"/>
        <path
            d="M 1047.7323 1989.9213 L 1095.2599 1989.9213 C 1098.5736 1989.9213 1101.2599 1992.6076 1101.2599 1995.9213 L 1101.2599 2032.1103 C 1101.2599 2035.424 1098.5736 2038.1103 1095.2599 2038.1103 L 1047.7323 2038.1103 C 1044.4186 2038.1103 1041.7323 2035.424 1041.7323 2032.1103 L 1041.7323 1995.9213 C 1041.7323 1992.6076 1044.4186 1989.9213 1047.7323 1989.9213 Z"
            stroke="#012b36" stroke-linecap="round" stroke-linejoin="round" stroke-width="1"/>
        <text transform="translate(1046.7323 2004.5158)" fill="black">
          <tspan font-family="Roboto, sans-serif" font-size="16" fill="black" x="15.705187"
              y="15">url
          </tspan>
        </text>
      </g>
      <g id="Graphic_50">
        <text transform="translate(1014.3682 2057.9528)" fill="black">
          <tspan font-family="Roboto, sans-serif" font-size="12" fill="black" x="0" y="11">0..1
          </tspan>
        </text>
      </g>
      <g id="Graphic_49">
        <path
            d="M 1047.6503 2059.0984 L 1116.4377 2059.0984 C 1119.7514 2059.0984 1122.4377 2061.7847 1122.4377 2065.0984 L 1122.4377 2101.2874 C 1122.4377 2104.6011 1119.7514 2107.2874 1116.4377 2107.2874 L 1047.6503 2107.2874 C 1044.3366 2107.2874 1041.6503 2104.6011 1041.6503 2101.2874 L 1041.6503 2065.0984 C 1041.6503 2061.7847 1044.3366 2059.0984 1047.6503 2059.0984 Z"
            fill="#cb4b16" fill-opacity=".2"/>
        <path
            d="M 1047.6503 2059.0984 L 1116.4377 2059.0984 C 1119.7514 2059.0984 1122.4377 2061.7847 1122.4377 2065.0984 L 1122.4377 2101.2874 C 1122.4377 2104.6011 1119.7514 2107.2874 1116.4377 2107.2874 L 1047.6503 2107.2874 C 1044.3366 2107.2874 1041.6503 2104.6011 1041.6503 2101.2874 L 1041.6503 2065.0984 C 1041.6503 2061.7847 1044.3366 2059.0984 1047.6503 2059.0984 Z"
            stroke="#012b36" stroke-linecap="round" stroke-linejoin="round" stroke-width="1"/>
        <text transform="translate(1046.6503 2073.693)" fill="black">
          <tspan font-family="Roboto, sans-serif" font-size="16" fill="black" x="15.06948"
              y="15">mode
          </tspan>
        </text>
      </g>
      <g id="Line_53">
        <path d="M 987.5197 1902.0473 L 987.5197 2083.193 L 1041.6503 2083.193" stroke="#073642"
            stroke-linecap="round" stroke-linejoin="round" stroke-width="1"/>
      </g>
    </g>
  </g>
</svg>
