<?xml version="1.0" encoding="UTF-8" standalone="no"?>
<!DOCTYPE svg PUBLIC "-//W3C//DTD SVG 1.1//EN" "http://www.w3.org/Graphics/SVG/1.1/DTD/svg11.dtd">
<svg version="1.1" xmlns="http://www.w3.org/2000/svg" viewBox="816 1691 534 359" width="534"
    height="359">
  <defs/>
  <g id="Pathling_features_(no_text)" fill-opacity="1" stroke="none" stroke-opacity="1"
      stroke-dasharray="none" fill="none">
    <title>Pathling features (no text)</title>
    <g id="Pathling_features_(no_text)_Features">
      <title>Features</title>
      <g id="Line_62">
        <path d="M 851 1762.0864 L 851 1814.936 L 888.6614 1814.936" stroke="black"
            stroke-linecap="round" stroke-linejoin="round" stroke-dasharray="4.0,4.0"
            stroke-width="1"/>
      </g>
      <g id="Line_4">
        <path d="M 1132.2949 1839.433 L 1132.2949 1886.2252 L 1183.5883 1886.2252" stroke="black"
            stroke-linecap="round" stroke-linejoin="round" stroke-dasharray="4.0,4.0"
            stroke-width="1"/>
      </g>
      <g id="Line_8">
        <path d="M 1132.2949 1839.433 L 1132.2949 1948.5874 L 1183.5883 1948.5874" stroke="black"
            stroke-linecap="round" stroke-linejoin="round" stroke-dasharray="4.0,4.0"
            stroke-width="1"/>
      </g>
      <g id="Line_9">
        <path d="M 915.8053 1839.433 L 915.8053 1885.0599 L 967.4466 1885.0599" stroke="black"
            stroke-linecap="round" stroke-linejoin="round" stroke-dasharray="4.0,4.0"
            stroke-width="1"/>
      </g>
      <g id="Line_40">
        <path d="M 1132.2949 1839.433 L 1132.2949 2010.9496 L 1184.297 2010.9496" stroke="black"
            stroke-linecap="round" stroke-linejoin="round" stroke-dasharray="4.0,4.0"
            stroke-width="1"/>
      </g>
      <g id="Line_57">
        <path d="M 915.8053 1839.433 L 915.8053 1947.422 L 968.1553 1947.422" stroke="black"
            stroke-linecap="round" stroke-linejoin="round" stroke-dasharray="4.0,4.0"
            stroke-width="1"/>
      </g>
      <g id="Line_58">
        <path d="M 915.8053 1839.433 L 915.8053 2009.7843 L 967.4466 2009.7843" stroke="black"
            stroke-linecap="round" stroke-linejoin="round" stroke-dasharray="4.0,4.0"
            stroke-width="1"/>
      </g>
      <g id="Graphic_3">
        <path
            d="M 1189.5883 1862.1307 L 1260.5017 1862.1307 C 1263.8154 1862.1307 1266.5017 1864.817 1266.5017 1868.1307 L 1266.5017 1904.3197 C 1266.5017 1907.6334 1263.8154 1910.3197 1260.5017 1910.3197 L 1189.5883 1910.3197 C 1186.2746 1910.3197 1183.5883 1907.6334 1183.5883 1904.3197 L 1183.5883 1868.1307 C 1183.5883 1864.817 1186.2746 1862.1307 1189.5883 1862.1307 Z"
            fill="#d33682" fill-opacity=".5"/>
        <path
            d="M 1189.5883 1862.1307 L 1260.5017 1862.1307 C 1263.8154 1862.1307 1266.5017 1864.817 1266.5017 1868.1307 L 1266.5017 1904.3197 C 1266.5017 1907.6334 1263.8154 1910.3197 1260.5017 1910.3197 L 1189.5883 1910.3197 C 1186.2746 1910.3197 1183.5883 1907.6334 1183.5883 1904.3197 L 1183.5883 1868.1307 C 1183.5883 1864.817 1186.2746 1862.1307 1189.5883 1862.1307 Z"
            stroke="#012b36" stroke-linecap="round" stroke-linejoin="round" stroke-width="1"/>
        <text transform="translate(1188.5883 1876.7252)" fill="black">
          <tspan font-family="Roboto, sans-serif" font-size="16" fill="black" x="12.93716"
              y="15">import
          </tspan>
        </text>
      </g>
      <g id="Graphic_6">
        <path
            d="M 973.4466 1860.9654 L 1038.6907 1860.9654 C 1042.0044 1860.9654 1044.6907 1863.6517 1044.6907 1866.9654 L 1044.6907 1903.1543 C 1044.6907 1906.468 1042.0044 1909.1543 1038.6907 1909.1543 L 973.4466 1909.1543 C 970.1329 1909.1543 967.4466 1906.468 967.4466 1903.1543 L 967.4466 1866.9654 C 967.4466 1863.6517 970.1329 1860.9654 973.4466 1860.9654 Z"
            fill="#cb4b16" fill-opacity=".5"/>
        <path
            d="M 973.4466 1860.9654 L 1038.6907 1860.9654 C 1042.0044 1860.9654 1044.6907 1863.6517 1044.6907 1866.9654 L 1044.6907 1903.1543 C 1044.6907 1906.468 1042.0044 1909.1543 1038.6907 1909.1543 L 973.4466 1909.1543 C 970.1329 1909.1543 967.4466 1906.468 967.4466 1903.1543 L 967.4466 1866.9654 C 967.4466 1863.6517 970.1329 1860.9654 973.4466 1860.9654 Z"
            stroke="#012b36" stroke-linecap="round" stroke-linejoin="round" stroke-width="1"/>
        <text transform="translate(972.4466 1875.5599)" fill="black">
          <tspan font-family="Roboto, sans-serif" font-size="16" fill="black" x="9.680641"
              y="15">search
          </tspan>
        </text>
      </g>
      <g id="Graphic_5">
        <path
            d="M 1189.5883 1924.493 L 1282.4702 1924.493 C 1285.784 1924.493 1288.4702 1927.1792 1288.4702 1930.493 L 1288.4702 1966.682 C 1288.4702 1969.9956 1285.784 1972.682 1282.4702 1972.682 L 1189.5883 1972.682 C 1186.2746 1972.682 1183.5883 1969.9956 1183.5883 1966.682 L 1183.5883 1930.493 C 1183.5883 1927.1792 1186.2746 1924.493 1189.5883 1924.493 Z"
            fill="#d33682" fill-opacity=".5"/>
        <path
            d="M 1189.5883 1924.493 L 1282.4702 1924.493 C 1285.784 1924.493 1288.4702 1927.1792 1288.4702 1930.493 L 1288.4702 1966.682 C 1288.4702 1969.9956 1285.784 1972.682 1282.4702 1972.682 L 1189.5883 1972.682 C 1186.2746 1972.682 1183.5883 1969.9956 1183.5883 1966.682 L 1183.5883 1930.493 C 1183.5883 1927.1792 1186.2746 1924.493 1189.5883 1924.493 Z"
            stroke="#012b36" stroke-linecap="round" stroke-linejoin="round" stroke-width="1"/>
        <text transform="translate(1188.5883 1939.0874)" fill="black">
          <tspan font-family="Roboto, sans-serif" font-size="16" fill="black" x="11.55032"
              y="15">aggregate
          </tspan>
        </text>
      </g>
      <g id="Graphic_20">
        <path
            d="M 894.6614 1791.2441 L 1018.7244 1791.2441 C 1022.0381 1791.2441 1024.7244 1793.9304 1024.7244 1797.2441 L 1024.7244 1833.433 C 1024.7244 1836.7468 1022.0381 1839.433 1018.7244 1839.433 L 894.6614 1839.433 C 891.3477 1839.433 888.6614 1836.7468 888.6614 1833.433 L 888.6614 1797.2441 C 888.6614 1793.9304 891.3477 1791.2441 894.6614 1791.2441 Z"
            fill="white" fill-opacity=".2"/>
        <path
            d="M 894.6614 1791.2441 L 1018.7244 1791.2441 C 1022.0381 1791.2441 1024.7244 1793.9304 1024.7244 1797.2441 L 1024.7244 1833.433 C 1024.7244 1836.7468 1022.0381 1839.433 1018.7244 1839.433 L 894.6614 1839.433 C 891.3477 1839.433 888.6614 1836.7468 888.6614 1833.433 L 888.6614 1797.2441 C 888.6614 1793.9304 891.3477 1791.2441 894.6614 1791.2441 Z"
            stroke="#012b36" stroke-linecap="round" stroke-linejoin="round" stroke-width="1"/>
        <text transform="translate(893.6614 1805.8386)" fill="black">
          <tspan font-family="Roboto, sans-serif" font-size="16" fill="black" x="10.566654"
              y="15">FHIR REST API
          </tspan>
        </text>
      </g>
      <g id="Graphic_37">
        <path
            d="M 1190.297 1986.8551 L 1255.5411 1986.8551 C 1258.8548 1986.8551 1261.5411 1989.5414 1261.5411 1992.8551 L 1261.5411 2029.044 C 1261.5411 2032.3578 1258.8548 2035.044 1255.5411 2035.044 L 1190.297 2035.044 C 1186.9833 2035.044 1184.297 2032.3578 1184.297 2029.044 L 1184.297 1992.8551 C 1184.297 1989.5414 1186.9833 1986.8551 1190.297 1986.8551 Z"
            fill="#d33682" fill-opacity=".5"/>
        <path
            d="M 1190.297 1986.8551 L 1255.5411 1986.8551 C 1258.8548 1986.8551 1261.5411 1989.5414 1261.5411 1992.8551 L 1261.5411 2029.044 C 1261.5411 2032.3578 1258.8548 2035.044 1255.5411 2035.044 L 1190.297 2035.044 C 1186.9833 2035.044 1184.297 2032.3578 1184.297 2029.044 L 1184.297 1992.8551 C 1184.297 1989.5414 1186.9833 1986.8551 1190.297 1986.8551 Z"
            stroke="#012b36" stroke-linecap="round" stroke-linejoin="round" stroke-width="1"/>
        <text transform="translate(1189.297 2001.4496)" fill="black">
          <tspan font-family="Roboto, sans-serif" font-size="16" fill="black" x="9.102516"
              y="15">extract
          </tspan>
        </text>
      </g>
      <g id="Graphic_51">
        <path
            d="M 974.1553 1923.3276 L 1044.36 1923.3276 C 1047.6737 1923.3276 1050.36 1926.0139 1050.36 1929.3276 L 1050.36 1965.5166 C 1050.36 1968.8303 1047.6737 1971.5166 1044.36 1971.5166 L 974.1553 1971.5166 C 970.8416 1971.5166 968.1553 1968.8303 968.1553 1965.5166 L 968.1553 1929.3276 C 968.1553 1926.0139 970.8416 1923.3276 974.1553 1923.3276 Z"
            fill="#cb4b16" fill-opacity=".5"/>
        <path
            d="M 974.1553 1923.3276 L 1044.36 1923.3276 C 1047.6737 1923.3276 1050.36 1926.0139 1050.36 1929.3276 L 1050.36 1965.5166 C 1050.36 1968.8303 1047.6737 1971.5166 1044.36 1971.5166 L 974.1553 1971.5166 C 970.8416 1971.5166 968.1553 1968.8303 968.1553 1965.5166 L 968.1553 1929.3276 C 968.1553 1926.0139 970.8416 1923.3276 974.1553 1923.3276 Z"
            stroke="#012b36" stroke-linecap="round" stroke-linejoin="round" stroke-width="1"/>
        <text transform="translate(973.1553 1937.922)" fill="black">
          <tspan font-family="Roboto, sans-serif" font-size="16" fill="black" x="11.489082"
              y="15">update
          </tspan>
        </text>
      </g>
      <g id="Graphic_48">
        <path
            d="M 973.4466 1985.6898 L 1033.7301 1985.6898 C 1037.0438 1985.6898 1039.7301 1988.376 1039.7301 1991.6898 L 1039.7301 2027.8788 C 1039.7301 2031.1925 1037.0438 2033.8788 1033.7301 2033.8788 L 973.4466 2033.8788 C 970.1329 2033.8788 967.4466 2031.1925 967.4466 2027.8788 L 967.4466 1991.6898 C 967.4466 1988.376 970.1329 1985.6898 973.4466 1985.6898 Z"
            fill="#cb4b16" fill-opacity=".5"/>
        <path
            d="M 973.4466 1985.6898 L 1033.7301 1985.6898 C 1037.0438 1985.6898 1039.7301 1988.376 1039.7301 1991.6898 L 1039.7301 2027.8788 C 1039.7301 2031.1925 1037.0438 2033.8788 1033.7301 2033.8788 L 973.4466 2033.8788 C 970.1329 2033.8788 967.4466 2031.1925 967.4466 2027.8788 L 967.4466 1991.6898 C 967.4466 1988.376 970.1329 1985.6898 973.4466 1985.6898 Z"
            stroke="#012b36" stroke-linecap="round" stroke-linejoin="round" stroke-width="1"/>
        <text transform="translate(972.4466 2000.2843)" fill="black">
          <tspan font-family="Roboto, sans-serif" font-size="16" fill="black" x="11.094858"
              y="15">batch
          </tspan>
        </text>
      </g>
      <g id="Graphic_60">
        <path
            d="M 1110.0945 1791.2441 L 1329.1181 1791.2441 C 1332.4318 1791.2441 1335.1181 1793.9304 1335.1181 1797.2441 L 1335.1181 1833.433 C 1335.1181 1836.7468 1332.4318 1839.433 1329.1181 1839.433 L 1110.0945 1839.433 C 1106.7808 1839.433 1104.0945 1836.7468 1104.0945 1833.433 L 1104.0945 1797.2441 C 1104.0945 1793.9304 1106.7808 1791.2441 1110.0945 1791.2441 Z"
            fill="white" fill-opacity=".2"/>
        <path
            d="M 1110.0945 1791.2441 L 1329.1181 1791.2441 C 1332.4318 1791.2441 1335.1181 1793.9304 1335.1181 1797.2441 L 1335.1181 1833.433 C 1335.1181 1836.7468 1332.4318 1839.433 1329.1181 1839.433 L 1110.0945 1839.433 C 1106.7808 1839.433 1104.0945 1836.7468 1104.0945 1833.433 L 1104.0945 1797.2441 C 1104.0945 1793.9304 1106.7808 1791.2441 1110.0945 1791.2441 Z"
            stroke="#012b36" stroke-linecap="round" stroke-linejoin="round" stroke-width="1"/>
        <text transform="translate(1109.0945 1805.8386)" fill="black">
          <tspan font-family="Roboto, sans-serif" font-size="16" fill="black" x="18.746185"
              y="15">FHIR extended operations
          </tspan>
        </text>
      </g>
      <g id="Line_74">
        <line x1="1024.7244" y1="1815.3386" x2="1104.0945" y2="1815.3386" stroke="black"
            stroke-linecap="round" stroke-linejoin="round" stroke-dasharray="4.0,4.0"
            stroke-width="1"/>
      </g>
      <g id="Group_77">
        <title>logos</title>
        <g id="Group_78">
          <title>logo-colour</title>
          <g id="Graphic_80">
            <title>Combined-Shape</title>
            <path
                d="M 846.5663 1705.7349 C 850.2931 1705.7349 853.387 1708.445 853.9844 1712.002 C 865.6418 1713.2726 865.6279 1731.2068 853.9436 1732.439 C 853.2551 1735.883 850.2139 1738.4792 846.5663 1738.4792 C 843.0102 1738.4792 840.0305 1736.0117 839.2459 1732.6954 C 832.06 1734.29 832.0445 1745.4929 839.1989 1747.1297 C 839.9048 1743.7071 842.9351 1741.1342 846.5663 1741.1342 C 850.7208 1741.1342 854.0887 1744.502 854.0887 1748.6565 C 854.0887 1752.811 850.7208 1756.179 846.5663 1756.179 C 842.8928 1756.179 839.8343 1753.5457 839.1754 1750.0638 C 828.246 1748.3501 828.233 1731.5267 839.1361 1729.7764 C 839.7024 1726.1828 842.8134 1723.4345 846.5663 1723.4345 C 850.2333 1723.4345 853.2874 1726.0584 853.9537 1729.531 C 861.8181 1728.3137 861.8033 1716.0733 853.9097 1714.8967 C 853.1607 1718.2633 850.1573 1720.7796 846.5663 1720.7796 C 842.4118 1720.7796 839.0439 1717.4117 839.0439 1713.2572 C 839.0439 1709.1027 842.4118 1705.7349 846.5663 1705.7349 Z M 846.5663 1744.0104 C 844.0003 1744.0104 841.9201 1746.0905 841.9201 1748.6565 C 841.9201 1751.2225 844.0003 1753.3027 846.5663 1753.3027 C 849.1323 1753.3027 851.2125 1751.2225 851.2125 1748.6565 C 851.2125 1746.0905 849.1323 1744.0104 846.5663 1744.0104 Z M 846.5663 1726.3107 C 844.0003 1726.3107 841.9201 1728.3909 841.9201 1730.9569 C 841.9201 1733.5229 844.0003 1735.603 846.5663 1735.603 C 849.1323 1735.603 851.2125 1733.5229 851.2125 1730.9569 C 851.2125 1728.3909 849.1323 1726.3107 846.5663 1726.3107 Z M 846.5663 1708.611 C 844.0003 1708.611 841.9201 1710.6912 841.9201 1713.2572 C 841.9201 1715.8232 844.0003 1717.9034 846.5663 1717.9034 C 849.1323 1717.9034 851.2125 1715.8232 851.2125 1713.2572 C 851.2125 1710.6912 849.1323 1708.611 846.5663 1708.611 Z"
                fill="#2ca0b6"/>
          </g>
          <g id="Graphic_79">
            <title>Pathling</title>
            <path
                d="M 861.655 1754.7408 L 861.655 1732.6025 L 868.6283 1732.6025 C 869.8469 1732.6025 870.9809 1732.7153 872.0302 1732.941 C 873.0796 1733.1667 873.9879 1733.5503 874.7552 1734.092 C 875.5225 1734.6335 876.1205 1735.3388 876.5493 1736.2076 C 876.9781 1737.0764 877.1925 1738.154 877.1925 1739.4403 C 877.1925 1740.659 876.9781 1741.7196 876.5493 1742.6223 C 876.1205 1743.525 875.5281 1744.2753 874.7721 1744.8734 C 874.0161 1745.4714 873.1248 1745.9114 872.0979 1746.1935 C 871.0711 1746.4756 869.9597 1746.6167 868.7637 1746.6167 L 865.5817 1746.6167 L 865.5817 1754.7408 Z M 865.5817 1743.4686 L 868.459 1743.4686 C 871.7087 1743.4686 873.3335 1742.1258 873.3335 1739.4403 C 873.3335 1738.0412 872.9104 1737.0764 872.0641 1736.546 C 871.2178 1736.0158 869.971 1735.7506 868.3236 1735.7506 L 865.5817 1735.7506 Z M 881.9895 1755.147 C 880.5226 1755.147 879.3379 1754.7013 878.4352 1753.81 C 877.5325 1752.9185 877.0812 1751.7394 877.0812 1750.2725 C 877.0812 1749.3924 877.2674 1748.6082 877.6397 1747.92 C 878.0121 1747.2316 878.5988 1746.6392 879.3999 1746.1427 C 880.2011 1745.6463 881.2166 1745.2288 882.4465 1744.8903 C 883.6764 1744.5518 885.1489 1744.2922 886.864 1744.1117 C 886.8414 1743.683 886.7794 1743.271 886.6778 1742.8762 C 886.5763 1742.4812 886.407 1742.1315 886.1701 1741.8268 C 885.9331 1741.5221 885.6228 1741.2852 885.2392 1741.116 C 884.8555 1740.9467 884.3816 1740.862 883.8174 1740.862 C 883.005 1740.862 882.2095 1741.02 881.431 1741.336 C 880.6524 1741.652 879.8908 1742.0355 879.1461 1742.4869 L 877.7243 1739.8804 C 878.6496 1739.2936 879.6877 1738.7859 880.8386 1738.3571 C 881.9895 1737.9283 883.2307 1737.714 884.5622 1737.714 C 886.6383 1737.714 888.1898 1738.3289 889.2166 1739.5588 C 890.2434 1740.7887 890.7568 1742.5659 890.7568 1744.8903 L 890.7568 1754.7408 L 887.541 1754.7408 L 887.2702 1752.9129 L 887.1348 1752.9129 C 886.3901 1753.5447 885.5946 1754.075 884.7483 1754.5038 C 883.9021 1754.9326 882.9825 1755.147 881.9895 1755.147 Z M 883.242 1752.1005 C 883.919 1752.1005 884.5339 1751.9425 885.0868 1751.6265 C 885.6397 1751.3106 886.2321 1750.8593 886.864 1750.2725 L 886.864 1746.549 C 885.7356 1746.6844 884.7878 1746.8649 884.0205 1747.0906 C 883.2533 1747.3162 882.6327 1747.5701 882.1588 1747.8522 C 881.6849 1748.1343 881.3464 1748.4559 881.1432 1748.817 C 880.9401 1749.178 880.8386 1749.5617 880.8386 1749.9679 C 880.8386 1750.7126 881.0643 1751.2542 881.5156 1751.5927 C 881.9669 1751.9312 882.5424 1752.1005 883.242 1752.1005 Z M 898.9728 1755.147 C 898.0024 1755.147 897.1843 1755.0003 896.5186 1754.707 C 895.8529 1754.4136 895.3113 1754.0017 894.8938 1753.4714 C 894.4763 1752.941 894.1716 1752.3092 893.9798 1751.5758 C 893.788 1750.8423 893.6921 1750.0243 893.6921 1749.1216 L 893.6921 1741.2006 L 891.3225 1741.2006 L 891.3225 1738.2894 L 893.8952 1738.1202 L 894.3691 1733.5842 L 897.6188 1733.5842 L 897.6188 1738.1202 L 901.8501 1738.1202 L 901.8501 1741.2006 L 897.6188 1741.2006 L 897.6188 1749.1216 C 897.6188 1751.0624 898.3973 1752.0328 899.9544 1752.0328 C 900.2478 1752.0328 900.5468 1751.999 900.8515 1751.9312 C 901.1561 1751.8635 901.4326 1751.7732 901.6808 1751.6604 L 902.3578 1754.5377 C 901.9065 1754.6957 901.3931 1754.8367 900.8176 1754.9608 C 900.2422 1755.085 899.6272 1755.147 898.9728 1755.147 Z M 903.5667 1754.7408 L 903.5667 1730.8423 L 907.4595 1730.8423 L 907.4595 1737.003 L 907.3241 1740.2189 C 908.0237 1739.5644 908.7966 1738.9833 909.6429 1738.4756 C 910.4892 1737.9678 911.4878 1737.714 912.6387 1737.714 C 914.4215 1737.714 915.7191 1738.2838 916.5315 1739.4234 C 917.3439 1740.563 917.7501 1742.1935 917.7501 1744.3148 L 917.7501 1754.7408 L 913.8573 1754.7408 L 913.8573 1744.8226 C 913.8573 1743.446 913.6542 1742.4756 913.248 1741.9114 C 912.8418 1741.3472 912.1761 1741.0652 911.2508 1741.0652 C 910.5287 1741.0652 909.8911 1741.24 909.3383 1741.5898 C 908.7854 1741.9396 908.1591 1742.453 907.4595 1743.13 L 907.4595 1754.7408 Z M 924.4767 1755.147 C 923.0775 1755.147 922.0958 1754.7295 921.5317 1753.8945 C 920.9675 1753.0595 920.6854 1751.92 920.6854 1750.4756 L 920.6854 1730.8423 L 924.5782 1730.8423 L 924.5782 1750.6787 C 924.5782 1751.1526 924.6685 1751.4855 924.849 1751.6773 C 925.0296 1751.8691 925.2214 1751.965 925.4245 1751.965 L 925.6784 1751.965 C 925.7573 1751.965 925.8758 1751.9425 926.0338 1751.8973 L 926.5415 1754.8085 C 926.0225 1755.0342 925.3342 1755.147 924.4767 1755.147 Z M 928.0889 1754.7408 L 928.0889 1738.1202 L 931.9818 1738.1202 L 931.9818 1754.7408 Z M 930.0523 1735.209 C 929.3527 1735.209 928.7772 1735.006 928.3259 1734.5997 C 927.8745 1734.1935 927.6489 1733.6632 927.6489 1733.0087 C 927.6489 1732.3543 927.8745 1731.8183 928.3259 1731.4008 C 928.7772 1730.9833 929.3527 1730.7746 930.0523 1730.7746 C 930.7519 1730.7746 931.3273 1730.9833 931.7787 1731.4008 C 932.23 1731.8183 932.4557 1732.3543 932.4557 1733.0087 C 932.4557 1733.6632 932.23 1734.1935 931.7787 1734.5997 C 931.3273 1735.006 930.7519 1735.209 930.0523 1735.209 Z M 935.1878 1754.7408 L 935.1878 1738.1202 L 938.4036 1738.1202 L 938.6744 1740.3543 L 938.8098 1740.3543 C 939.5546 1739.6321 940.3613 1739.0116 941.2302 1738.4925 C 942.099 1737.9735 943.1089 1737.714 944.2598 1737.714 C 946.0426 1737.714 947.3402 1738.2838 948.1526 1739.4234 C 948.965 1740.563 949.3712 1742.1935 949.3712 1744.3148 L 949.3712 1754.7408 L 945.4784 1754.7408 L 945.4784 1744.8226 C 945.4784 1743.446 945.2753 1742.4756 944.8691 1741.9114 C 944.4629 1741.3472 943.7972 1741.0652 942.8719 1741.0652 C 942.1498 1741.0652 941.5123 1741.24 940.9594 1741.5898 C 940.4065 1741.9396 939.7802 1742.453 939.0806 1743.13 L 939.0806 1754.7408 Z M 958.1626 1762.0864 C 957.1697 1762.0864 956.2501 1761.9961 955.4038 1761.8156 C 954.5576 1761.635 953.8298 1761.3642 953.2205 1761.0032 C 952.6111 1760.642 952.1316 1760.1907 951.7818 1759.6491 C 951.432 1759.1075 951.2571 1758.4757 951.2571 1757.7535 C 951.2571 1757.054 951.4602 1756.4051 951.8664 1755.807 C 952.2726 1755.209 952.8594 1754.673 953.6267 1754.1992 L 953.6267 1754.0638 C 953.1979 1753.793 952.8425 1753.432 952.5604 1752.9806 C 952.2783 1752.5292 952.1372 1751.965 952.1372 1751.288 C 952.1372 1750.6336 952.3234 1750.0412 952.6958 1749.5109 C 953.0681 1748.9806 953.4913 1748.5461 953.9652 1748.2076 L 953.9652 1748.0722 C 953.401 1747.6435 952.8989 1747.051 952.4588 1746.295 C 952.0188 1745.539 951.7987 1744.6646 951.7987 1743.6717 C 951.7987 1742.7238 951.9793 1741.8776 952.3403 1741.1329 C 952.7014 1740.3881 953.181 1739.762 953.779 1739.2542 C 954.377 1738.7464 955.071 1738.3628 955.8608 1738.1032 C 956.6507 1737.8437 957.4856 1737.714 958.3658 1737.714 C 958.8171 1737.714 959.2515 1737.7534 959.669 1737.8324 C 960.0865 1737.9114 960.4645 1738.0073 960.803 1738.1202 L 966.7607 1738.1202 L 966.7607 1740.9975 L 963.7141 1740.9975 C 963.985 1741.3134 964.2106 1741.714 964.3912 1742.1992 C 964.5717 1742.6843 964.662 1743.2203 964.662 1743.807 C 964.662 1744.7323 964.4984 1745.5447 964.1711 1746.2443 C 963.8439 1746.9439 963.3982 1747.5306 962.834 1748.0045 C 962.2699 1748.4784 961.6041 1748.8395 960.8368 1749.0877 C 960.0696 1749.336 959.2459 1749.4601 958.3658 1749.4601 C 958.0047 1749.4601 957.6323 1749.4263 957.2487 1749.3586 C 956.865 1749.2909 956.4814 1749.178 956.0978 1749.02 C 955.8495 1749.2457 955.6521 1749.4714 955.5054 1749.697 C 955.3587 1749.9227 955.2853 1750.2274 955.2853 1750.611 C 955.2853 1751.085 955.4828 1751.4573 955.8777 1751.728 C 956.2727 1751.999 956.9779 1752.1343 957.9934 1752.1343 L 960.9384 1752.1343 C 962.9469 1752.1343 964.4645 1752.4559 965.4913 1753.099 C 966.5181 1753.7422 967.0315 1754.786 967.0315 1756.2302 C 967.0315 1757.0426 966.8228 1757.81 966.4053 1758.532 C 965.9878 1759.2542 965.3954 1759.8748 964.6281 1760.3938 C 963.8608 1760.9129 962.93 1761.3247 961.8354 1761.6294 C 960.7409 1761.934 959.5167 1762.0864 958.1626 1762.0864 Z M 958.3658 1747.0229 C 959.1556 1747.0229 959.8326 1746.7351 960.3968 1746.1597 C 960.961 1745.5842 961.243 1744.7549 961.243 1743.6717 C 961.243 1742.6336 960.9666 1741.8268 960.4137 1741.2513 C 959.8608 1740.6759 959.1782 1740.3881 958.3658 1740.3881 C 957.5533 1740.3881 956.865 1740.6702 956.3009 1741.2344 C 955.7367 1741.7986 955.4546 1742.611 955.4546 1743.6717 C 955.4546 1744.7549 955.7367 1745.5842 956.3009 1746.1597 C 956.865 1746.7351 957.5533 1747.0229 958.3658 1747.0229 Z M 958.772 1759.5476 C 960.126 1759.5476 961.2148 1759.2824 962.0385 1758.752 C 962.8622 1758.2218 963.2741 1757.5955 963.2741 1756.8734 C 963.2741 1756.219 963.0202 1755.7789 962.5125 1755.5532 C 962.0047 1755.3275 961.2769 1755.2147 960.3291 1755.2147 L 958.0611 1755.2147 C 957.1584 1755.2147 956.4024 1755.1357 955.7931 1754.9778 C 954.9356 1755.6322 954.5068 1756.3656 954.5068 1757.178 C 954.5068 1757.9228 954.8848 1758.5039 955.6408 1758.9213 C 956.3968 1759.3388 957.4405 1759.5476 958.772 1759.5476 Z"
                fill="black"/>
          </g>
        </g>
      </g>
    </g>
  </g>
</svg>
