<?xml version="1.0" encoding="UTF-8" standalone="no"?>
<!DOCTYPE svg PUBLIC "-//W3C//DTD SVG 1.1//EN" "http://www.w3.org/Graphics/SVG/1.1/DTD/svg11.dtd">
<svg version="1.1" xmlns="http://www.w3.org/2000/svg" viewBox="535 1680 802 351" width="802"
    height="351">
  <defs>
    <marker orient="auto" overflow="visible" markerUnits="strokeWidth" id="StickArrow_Marker"
        stroke-linejoin="miter" stroke-miterlimit="10" viewBox="-1 -4 10 8" markerWidth="10"
        markerHeight="8" color="#424242">
      <g>
        <path d="M 8 0 L 0 0 M 0 -3 L 8 0 L 0 3" fill="none" stroke="currentColor"
            stroke-width="1"/>
      </g>
    </marker>
    <marker orient="auto" overflow="visible" markerUnits="strokeWidth" id="StickArrow_Marker_2"
        stroke-linejoin="miter" stroke-miterlimit="10" viewBox="-1 -4 10 8" markerWidth="10"
        markerHeight="8" color="black">
      <g>
        <path d="M 8 0 L 0 0 M 0 -3 L 8 0 L 0 3" fill="none" stroke="currentColor"
            stroke-width="1"/>
      </g>
    </marker>
    <marker orient="auto" overflow="visible" markerUnits="strokeWidth" id="StickArrow_Marker_3"
        stroke-linejoin="miter" stroke-miterlimit="10" viewBox="-1 -4 10 8" markerWidth="10"
        markerHeight="8" color="#424242">
      <g>
        <path d="M 8 0 L 0 0 M 0 -3 L 8 0 L 0 3" fill="none" stroke="currentColor"
            stroke-width="1"/>
      </g>
    </marker>
  </defs>
  <g id="Authorities" fill-opacity="1" stroke="none" stroke-opacity="1" stroke-dasharray="none"
      fill="none">
    <title>Authorities</title>
    <g id="Authorities_Layer_1">
      <title>Layer 1</title>
      <g id="Graphic_16">
        <path
            d="M 891.0903 1802.8347 L 964.711 1802.8347 C 968.0247 1802.8347 970.711 1805.521 970.711 1808.8347 L 970.711 1845.0236 C 970.711 1848.3373 968.0247 1851.0236 964.711 1851.0236 L 891.0903 1851.0236 C 887.7765 1851.0236 885.0903 1848.3373 885.0903 1845.0236 L 885.0903 1808.8347 C 885.0903 1805.521 887.7765 1802.8347 891.0903 1802.8347 Z"
            fill="#d33682" fill-opacity=".2"/>
        <path
            d="M 891.0903 1802.8347 L 964.711 1802.8347 C 968.0247 1802.8347 970.711 1805.521 970.711 1808.8347 L 970.711 1845.0236 C 970.711 1848.3373 968.0247 1851.0236 964.711 1851.0236 L 891.0903 1851.0236 C 887.7765 1851.0236 885.0903 1848.3373 885.0903 1845.0236 L 885.0903 1808.8347 C 885.0903 1805.521 887.7765 1802.8347 891.0903 1802.8347 Z"
            stroke="#012b36" stroke-linecap="round" stroke-linejoin="round" stroke-width="1"/>
        <text transform="translate(890.0903 1818.9292)" fill="black">
          <tspan font-family="Roboto, sans-serif" font-size="14" fill="black" x="12.746391"
              y="13">pathling
          </tspan>
        </text>
      </g>
      <g id="Graphic_21">
        <path
            d="M 802.9632 1895.811 L 911.8589 1895.811 C 915.1726 1895.811 917.8589 1898.4973 917.8589 1901.811 L 917.8589 1938 C 917.8589 1941.3137 915.1726 1944 911.8589 1944 L 802.9632 1944 C 799.6494 1944 796.9632 1941.3137 796.9632 1938 L 796.9632 1901.811 C 796.9632 1898.4973 799.6494 1895.811 802.9632 1895.811 Z"
            fill="#cb4b16" fill-opacity=".2"/>
        <path
            d="M 802.9632 1895.811 L 911.8589 1895.811 C 915.1726 1895.811 917.8589 1898.4973 917.8589 1901.811 L 917.8589 1938 C 917.8589 1941.3137 915.1726 1944 911.8589 1944 L 802.9632 1944 C 799.6494 1944 796.9632 1941.3137 796.9632 1938 L 796.9632 1901.811 C 796.9632 1898.4973 799.6494 1895.811 802.9632 1895.811 Z"
            stroke="#012b36" stroke-linecap="round" stroke-linejoin="round" stroke-width="1"/>
        <text transform="translate(801.9632 1911.9055)" fill="black">
          <tspan font-family="Roboto, sans-serif" font-size="14" fill="black" x="14.921005"
              y="13">pathling:read
          </tspan>
        </text>
      </g>
      <g id="Line_22">
        <path d="M 906.4954 1851.0236 C 899.5637 1863.6595 895.497 1870.649 890.482 1886.329"
            marker-end="url(#StickArrow_Marker)" stroke="#424242" stroke-linecap="round"
            stroke-linejoin="round" stroke-width="1"/>
      </g>
      <g id="Graphic_23">
        <path
            d="M 943.3137 1895.811 L 1061.8724 1895.811 C 1065.1861 1895.811 1067.8724 1898.4973 1067.8724 1901.811 L 1067.8724 1938 C 1067.8724 1941.3137 1065.1861 1944 1061.8724 1944 L 943.3137 1944 C 940 1944 937.3137 1941.3137 937.3137 1938 L 937.3137 1901.811 C 937.3137 1898.4973 940 1895.811 943.3137 1895.811 Z"
            fill="#cb4b16" fill-opacity=".2"/>
        <path
            d="M 943.3137 1895.811 L 1061.8724 1895.811 C 1065.1861 1895.811 1067.8724 1898.4973 1067.8724 1901.811 L 1067.8724 1938 C 1067.8724 1941.3137 1065.1861 1944 1061.8724 1944 L 943.3137 1944 C 940 1944 937.3137 1941.3137 937.3137 1938 L 937.3137 1901.811 C 937.3137 1898.4973 940 1895.811 943.3137 1895.811 Z"
            stroke="#012b36" stroke-linecap="round" stroke-linejoin="round" stroke-width="1"/>
        <text transform="translate(942.3137 1911.9055)" fill="black">
          <tspan font-family="Roboto, sans-serif" font-size="14" fill="black" x="18.197304"
              y="13">pathling:write
          </tspan>
        </text>
      </g>
      <g id="Line_24">
        <path d="M 949.3058 1851.0236 C 956.9478 1863.7484 961.6547 1870.0205 967.0615 1886.3396"
            marker-end="url(#StickArrow_Marker)" stroke="#424242" stroke-linecap="round"
            stroke-linejoin="round" stroke-width="1"/>
      </g>
      <g id="Graphic_25">
        <path
            d="M 570.2625 1895.811 L 771.5083 1895.811 C 774.822 1895.811 777.5083 1898.4973 777.5083 1901.811 L 777.5083 1938 C 777.5083 1941.3137 774.822 1944 771.5083 1944 L 570.2625 1944 C 566.9488 1944 564.2625 1941.3137 564.2625 1938 L 564.2625 1901.811 C 564.2625 1898.4973 566.9488 1895.811 570.2625 1895.811 Z"
            fill="#b58900" fill-opacity=".2"/>
        <path
            d="M 570.2625 1895.811 L 771.5083 1895.811 C 774.822 1895.811 777.5083 1898.4973 777.5083 1901.811 L 777.5083 1938 C 777.5083 1941.3137 774.822 1944 771.5083 1944 L 570.2625 1944 C 566.9488 1944 564.2625 1941.3137 564.2625 1938 L 564.2625 1901.811 C 564.2625 1898.4973 566.9488 1895.811 570.2625 1895.811 Z"
            stroke="#012b36" stroke-linecap="round" stroke-linejoin="round" stroke-width="1"/>
        <text transform="translate(569.2625 1911.9055)" fill="black">
          <tspan font-family="Roboto, sans-serif" font-size="14" fill="black" x="13.572617"
              y="13">pathling:read:[resource type]
          </tspan>
        </text>
      </g>
      <g id="Graphic_26">
        <path
            d="M 1093.3272 1895.811 L 1302.189 1895.811 C 1305.5027 1895.811 1308.189 1898.4973 1308.189 1901.811 L 1308.189 1938 C 1308.189 1941.3137 1305.5027 1944 1302.189 1944 L 1093.3272 1944 C 1090.0135 1944 1087.3272 1941.3137 1087.3272 1938 L 1087.3272 1901.811 C 1087.3272 1898.4973 1090.0135 1895.811 1093.3272 1895.811 Z"
            fill="#b58900" fill-opacity=".2"/>
        <path
            d="M 1093.3272 1895.811 L 1302.189 1895.811 C 1305.5027 1895.811 1308.189 1898.4973 1308.189 1901.811 L 1308.189 1938 C 1308.189 1941.3137 1305.5027 1944 1302.189 1944 L 1093.3272 1944 C 1090.0135 1944 1087.3272 1941.3137 1087.3272 1938 L 1087.3272 1901.811 C 1087.3272 1898.4973 1090.0135 1895.811 1093.3272 1895.811 Z"
            stroke="#012b36" stroke-linecap="round" stroke-linejoin="round" stroke-width="1"/>
        <text transform="translate(1092.3272 1911.9055)" fill="black">
          <tspan font-family="Roboto, sans-serif" font-size="14" fill="black" x="15.825409"
              y="13">pathling:write:[resource type]
          </tspan>
        </text>
      </g>
      <g id="Line_27">
        <line x1="796.9632" y1="1919.9055" x2="787.4083" y2="1919.9055"
            marker-end="url(#StickArrow_Marker)" stroke="#424242" stroke-linecap="round"
            stroke-linejoin="round" stroke-width="1"/>
      </g>
      <g id="Line_28">
        <line x1="1067.8724" y1="1919.9055" x2="1077.4272" y2="1919.9055"
            marker-end="url(#StickArrow_Marker)" stroke="#424242" stroke-linecap="round"
            stroke-linejoin="round" stroke-width="1"/>
      </g>
      <g id="Line_32">
        <path d="M 885.0903 1826.9292 C 799.675 1804.8598 742.4117 1822.5096 687.13215 1765.3467"
            marker-end="url(#StickArrow_Marker)" stroke="#424242" stroke-linecap="round"
            stroke-linejoin="round" stroke-width="1"/>
      </g>
      <g id="Line_33">
        <path d="M 885.0903 1814.882 C 849.0428 1797.3218 823.8942 1798.6698 800.9268 1766.348"
            marker-end="url(#StickArrow_Marker)" stroke="#424242" stroke-linecap="round"
            stroke-linejoin="round" stroke-width="1"/>
      </g>
      <g id="Line_34">
        <path d="M 927.9006 1802.8347 C 933.5054 1790.075 937.1667 1784.6373 941.0137 1767.7474"
            marker-end="url(#StickArrow_Marker)" stroke="#424242" stroke-linecap="round"
            stroke-linejoin="round" stroke-width="1"/>
      </g>
      <g id="Line_36">
        <line x1="564.2625" y1="1991.5827" x2="589.3625" y2="1991.5827"
            marker-end="url(#StickArrow_Marker_2)" stroke="black" stroke-linecap="round"
            stroke-linejoin="round" stroke-width="1"/>
      </g>
      <g id="Graphic_35">
        <text transform="translate(607.2625 1983.5827)" fill="black">
          <tspan font-family="Roboto, sans-serif" font-size="12" fill="black" x="0"
              y="11">includes
          </tspan>
        </text>
      </g>
      <g id="Graphic_29">
        <path
            d="M 595.7708 1709.8583 L 704.6665 1709.8583 C 707.9802 1709.8583 710.6665 1712.5446 710.6665 1715.8583 L 710.6665 1752.0473 C 710.6665 1755.361 707.9802 1758.0473 704.6665 1758.0473 L 595.7708 1758.0473 C 592.4571 1758.0473 589.7708 1755.361 589.7708 1752.0473 L 589.7708 1715.8583 C 589.7708 1712.5446 592.4571 1709.8583 595.7708 1709.8583 Z"
            fill="#6c71c4" fill-opacity=".2"/>
        <path
            d="M 595.7708 1709.8583 L 704.6665 1709.8583 C 707.9802 1709.8583 710.6665 1712.5446 710.6665 1715.8583 L 710.6665 1752.0473 C 710.6665 1755.361 707.9802 1758.0473 704.6665 1758.0473 L 595.7708 1758.0473 C 592.4571 1758.0473 589.7708 1755.361 589.7708 1752.0473 L 589.7708 1715.8583 C 589.7708 1712.5446 592.4571 1709.8583 595.7708 1709.8583 Z"
            stroke="#012b36" stroke-linecap="round" stroke-linejoin="round" stroke-width="1"/>
        <text transform="translate(594.7708 1725.9528)" fill="black">
          <tspan font-family="Roboto, sans-serif" font-size="14" fill="black" x="8.108994"
              y="13">pathling:import
          </tspan>
        </text>
      </g>
      <g id="Graphic_30">
        <path
            d="M 731.8983 1709.8583 L 859.1609 1709.8583 C 862.4746 1709.8583 865.1609 1712.5446 865.1609 1715.8583 L 865.1609 1752.0473 C 865.1609 1755.361 862.4746 1758.0473 859.1609 1758.0473 L 731.8983 1758.0473 C 728.5846 1758.0473 725.8983 1755.361 725.8983 1752.0473 L 725.8983 1715.8583 C 725.8983 1712.5446 728.5846 1709.8583 731.8983 1709.8583 Z"
            fill="#6c71c4" fill-opacity=".2"/>
        <path
            d="M 731.8983 1709.8583 L 859.1609 1709.8583 C 862.4746 1709.8583 865.1609 1712.5446 865.1609 1715.8583 L 865.1609 1752.0473 C 865.1609 1755.361 862.4746 1758.0473 859.1609 1758.0473 L 731.8983 1758.0473 C 728.5846 1758.0473 725.8983 1755.361 725.8983 1752.0473 L 725.8983 1715.8583 C 725.8983 1712.5446 728.5846 1709.8583 731.8983 1709.8583 Z"
            stroke="#012b36" stroke-linecap="round" stroke-linejoin="round" stroke-width="1"/>
        <text transform="translate(730.8983 1725.9528)" fill="black">
          <tspan font-family="Roboto, sans-serif" font-size="14" fill="black" x="6.4677124"
              y="13">pathling:aggregate
          </tspan>
        </text>
      </g>
      <g id="Graphic_31">
        <path
            d="M 886.3928 1709.8583 L 999.6122 1709.8583 C 1002.9259 1709.8583 1005.6122 1712.5446 1005.6122 1715.8583 L 1005.6122 1752.0473 C 1005.6122 1755.361 1002.9259 1758.0473 999.6122 1758.0473 L 886.3928 1758.0473 C 883.0791 1758.0473 880.3928 1755.361 880.3928 1752.0473 L 880.3928 1715.8583 C 880.3928 1712.5446 883.0791 1709.8583 886.3928 1709.8583 Z"
            fill="#6c71c4" fill-opacity=".2"/>
        <path
            d="M 886.3928 1709.8583 L 999.6122 1709.8583 C 1002.9259 1709.8583 1005.6122 1712.5446 1005.6122 1715.8583 L 1005.6122 1752.0473 C 1005.6122 1755.361 1002.9259 1758.0473 999.6122 1758.0473 L 886.3928 1758.0473 C 883.0791 1758.0473 880.3928 1755.361 880.3928 1752.0473 L 880.3928 1715.8583 C 880.3928 1712.5446 883.0791 1709.8583 886.3928 1709.8583 Z"
            stroke="#012b36" stroke-linecap="round" stroke-linejoin="round" stroke-width="1"/>
        <text transform="translate(885.3928 1725.9528)" fill="black">
          <tspan font-family="Roboto, sans-serif" font-size="14" fill="black" x="9.901718"
              y="13">pathling:search
          </tspan>
        </text>
      </g>
      <g id="Graphic_37">
        <path
            d="M 1026.8441 1709.2914 L 1140.0635 1709.2914 C 1143.3772 1709.2914 1146.0635 1711.9776 1146.0635 1715.2914 L 1146.0635 1751.4803 C 1146.0635 1754.794 1143.3772 1757.4803 1140.0635 1757.4803 L 1026.8441 1757.4803 C 1023.5304 1757.4803 1020.8441 1754.794 1020.8441 1751.4803 L 1020.8441 1715.2914 C 1020.8441 1711.9776 1023.5304 1709.2914 1026.8441 1709.2914 C 1026.8441 1709.2914 1026.8441 1709.2914 1026.8441 1709.2914 Z"
            fill="#6c71c4" fill-opacity=".2"/>
        <path
            d="M 1026.8441 1709.2914 L 1140.0635 1709.2914 C 1143.3772 1709.2914 1146.0635 1711.9776 1146.0635 1715.2914 L 1146.0635 1751.4803 C 1146.0635 1754.794 1143.3772 1757.4803 1140.0635 1757.4803 L 1026.8441 1757.4803 C 1023.5304 1757.4803 1020.8441 1754.794 1020.8441 1751.4803 L 1020.8441 1715.2914 C 1020.8441 1711.9776 1023.5304 1709.2914 1026.8441 1709.2914 C 1026.8441 1709.2914 1026.8441 1709.2914 1026.8441 1709.2914 Z"
            stroke="#012b36" stroke-linecap="round" stroke-linejoin="round" stroke-width="1"/>
        <text transform="translate(1025.8441 1725.3858)" fill="black">
          <tspan font-family="Roboto, sans-serif" font-size="14" fill="black" x="9.313828"
              y="13">pathling:update
          </tspan>
        </text>
      </g>
      <g id="Graphic_38">
        <path
            d="M 1167.2954 1709.2914 L 1276.1911 1709.2914 C 1279.5048 1709.2914 1282.1911 1711.9776 1282.1911 1715.2914 L 1282.1911 1751.4803 C 1282.1911 1754.794 1279.5048 1757.4803 1276.1911 1757.4803 L 1167.2954 1757.4803 C 1163.9817 1757.4803 1161.2954 1754.794 1161.2954 1751.4803 L 1161.2954 1715.2914 C 1161.2954 1711.9776 1163.9817 1709.2914 1167.2954 1709.2914 Z"
            fill="#6c71c4" fill-opacity=".2"/>
        <path
            d="M 1167.2954 1709.2914 L 1276.1911 1709.2914 C 1279.5048 1709.2914 1282.1911 1711.9776 1282.1911 1715.2914 L 1282.1911 1751.4803 C 1282.1911 1754.794 1279.5048 1757.4803 1276.1911 1757.4803 L 1167.2954 1757.4803 C 1163.9817 1757.4803 1161.2954 1754.794 1161.2954 1751.4803 L 1161.2954 1715.2914 C 1161.2954 1711.9776 1163.9817 1709.2914 1167.2954 1709.2914 Z"
            stroke="#012b36" stroke-linecap="round" stroke-linejoin="round" stroke-width="1"/>
        <text transform="translate(1166.2954 1725.3858)" fill="black">
          <tspan font-family="Roboto, sans-serif" font-size="14" fill="black" x="11.147568"
              y="13">pathling:batch
          </tspan>
        </text>
      </g>
      <g id="Line_39">
        <path d="M 970.711 1814.882 C 1003.2215 1797.2915 1031.4046 1797.7758 1048.0413 1766.4845"
            marker-end="url(#StickArrow_Marker_3)" stroke="#424242" stroke-linecap="round"
            stroke-linejoin="round" stroke-width="1"/>
      </g>
      <g id="Line_40">
        <path d="M 970.711 1826.9292 C 1076.0636 1804.5555 1156.4357 1836.7044 1215.6574 1765.2912"
            marker-end="url(#StickArrow_Marker_3)" stroke="#424242" stroke-linecap="round"
            stroke-linejoin="round" stroke-width="1"/>
      </g>
    </g>
  </g>
</svg>
