<?xml version="1.0" encoding="UTF-8" standalone="no"?>
<!DOCTYPE svg PUBLIC "-//W3C//DTD SVG 1.1//EN" "http://www.w3.org/Graphics/SVG/1.1/DTD/svg11.dtd">
<svg xmlns:dc="http://purl.org/dc/elements/1.1/" xmlns:xl="http://www.w3.org/1999/xlink" xmlns="http://www.w3.org/2000/svg" version="1.1" viewBox="435 1682 937 351" width="937" height="351">
  <defs>
    <marker orient="auto" overflow="visible" markerUnits="strokeWidth" id="StickArrow_Marker" stroke-linejoin="miter" stroke-miterlimit="10" viewBox="-1 -4 10 8" markerWidth="10" markerHeight="8" color="white">
      <g>
        <path d="M 8 0 L 0 0 M 0 -3 L 8 0 L 0 3" fill="none" stroke="currentColor" stroke-width="1"/>
      </g>
    </marker>
    <marker orient="auto" overflow="visible" markerUnits="strokeWidth" id="StickArrow_Marker_2" stroke-linejoin="miter" stroke-miterlimit="10" viewBox="-1 -4 10 8" markerWidth="10" markerHeight="8" color="white">
      <g>
        <path d="M 8 0 L 0 0 M 0 -3 L 8 0 L 0 3" fill="none" stroke="currentColor" stroke-width="1"/>
      </g>
    </marker>
  </defs>
  <g id="Authorities_(dark)" stroke="none" fill="none" stroke-dasharray="none" stroke-opacity="1" fill-opacity="1">
    <title>Authorities (dark)</title>
    <g id="Authorities_(dark)_Layer_1">
      <title>Layer 1</title>
      <g id="Graphic_16">
        <path d="M 865.269 1804.252 L 941.4997 1804.252 C 944.8134 1804.252 947.4997 1806.9383 947.4997 1810.252 L 947.4997 1846.441 C 947.4997 1849.7547 944.8134 1852.441 941.4997 1852.441 L 865.269 1852.441 C 861.9553 1852.441 859.269 1849.7547 859.269 1846.441 L 859.269 1810.252 C 859.269 1806.9383 861.9553 1804.252 865.269 1804.252 Z" fill="#d33682" fill-opacity=".2"/>
        <path d="M 865.269 1804.252 L 941.4997 1804.252 C 944.8134 1804.252 947.4997 1806.9383 947.4997 1810.252 L 947.4997 1846.441 C 947.4997 1849.7547 944.8134 1852.441 941.4997 1852.441 L 865.269 1852.441 C 861.9553 1852.441 859.269 1849.7547 859.269 1846.441 L 859.269 1810.252 C 859.269 1806.9383 861.9553 1804.252 865.269 1804.252 Z" stroke="#012b36" stroke-linecap="round" stroke-linejoin="round" stroke-width="1"/>
        <text transform="translate(864.269 1820.3465)" fill="white">
          <tspan font-family="Roboto, sans-serif" font-size="14" fill="white" x="14.051384" y="13">pathling</tspan>
        </text>
      </g>
      <g id="Graphic_21">
        <path d="M 774.4555 1897.2283 L 887.0365 1897.2283 C 890.3502 1897.2283 893.0365 1899.9146 893.0365 1903.2283 L 893.0365 1939.4173 C 893.0365 1942.731 890.3502 1945.4173 887.0365 1945.4173 L 774.4555 1945.4173 C 771.1418 1945.4173 768.4555 1942.731 768.4555 1939.4173 L 768.4555 1903.2283 C 768.4555 1899.9146 771.1418 1897.2283 774.4555 1897.2283 Z" fill="#cb4b16" fill-opacity=".2"/>
        <path d="M 774.4555 1897.2283 L 887.0365 1897.2283 C 890.3502 1897.2283 893.0365 1899.9146 893.0365 1903.2283 L 893.0365 1939.4173 C 893.0365 1942.731 890.3502 1945.4173 887.0365 1945.4173 L 774.4555 1945.4173 C 771.1418 1945.4173 768.4555 1942.731 768.4555 1939.4173 L 768.4555 1903.2283 C 768.4555 1899.9146 771.1418 1897.2283 774.4555 1897.2283 Z" stroke="#012b36" stroke-linecap="round" stroke-linejoin="round" stroke-width="1"/>
        <text transform="translate(773.4555 1913.3228)" fill="white">
          <tspan font-family="Roboto, sans-serif" font-size="14" fill="white" x="16.763641" y="13">pathling:read</tspan>
        </text>
      </g>
      <g id="Line_22">
        <path d="M 881.3267 1852.441 C 874.3933 1865.0797 869.9143 1872.0695 864.7713 1887.7572" marker-end="url(#StickArrow_Marker)" stroke="white" stroke-linecap="round" stroke-linejoin="round" stroke-width="1"/>
      </g>
      <g id="Graphic_23">
        <path d="M 919.0844 1897.2283 L 1041.6229 1897.2283 C 1044.9366 1897.2283 1047.6229 1899.9146 1047.6229 1903.2283 L 1047.6229 1939.4173 C 1047.6229 1942.731 1044.9366 1945.4173 1041.6229 1945.4173 L 919.0844 1945.4173 C 915.7707 1945.4173 913.0844 1942.731 913.0844 1939.4173 L 913.0844 1903.2283 C 913.0844 1899.9146 915.7707 1897.2283 919.0844 1897.2283 Z" fill="#cb4b16" fill-opacity=".2"/>
        <path d="M 919.0844 1897.2283 L 1041.6229 1897.2283 C 1044.9366 1897.2283 1047.6229 1899.9146 1047.6229 1903.2283 L 1047.6229 1939.4173 C 1047.6229 1942.731 1044.9366 1945.4173 1041.6229 1945.4173 L 919.0844 1945.4173 C 915.7707 1945.4173 913.0844 1942.731 913.0844 1939.4173 L 913.0844 1903.2283 C 913.0844 1899.9146 915.7707 1897.2283 919.0844 1897.2283 Z" stroke="#012b36" stroke-linecap="round" stroke-linejoin="round" stroke-width="1"/>
        <text transform="translate(918.0844 1913.3228)" fill="white">
          <tspan font-family="Roboto, sans-serif" font-size="14" fill="white" x="20.187218" y="13">pathling:write</tspan>
        </text>
      </g>
      <g id="Line_24">
        <path d="M 925.442 1852.441 C 933.0858 1865.1686 938.2506 1871.4407 943.7939 1887.7681" marker-end="url(#StickArrow_Marker)" stroke="white" stroke-linecap="round" stroke-linejoin="round" stroke-width="1"/>
      </g>
      <g id="Graphic_25">
        <path d="M 534.6614 1897.2283 L 742.4076 1897.2283 C 745.72134 1897.2283 748.4076 1899.9146 748.4076 1903.2283 L 748.4076 1939.4173 C 748.4076 1942.731 745.72134 1945.4173 742.4076 1945.4173 L 534.6614 1945.4173 C 531.3477 1945.4173 528.6614 1942.731 528.6614 1939.4173 L 528.6614 1903.2283 C 528.6614 1899.9146 531.3477 1897.2283 534.6614 1897.2283 Z" fill="#b58900" fill-opacity=".2"/>
        <path d="M 534.6614 1897.2283 L 742.4076 1897.2283 C 745.72134 1897.2283 748.4076 1899.9146 748.4076 1903.2283 L 748.4076 1939.4173 C 748.4076 1942.731 745.72134 1945.4173 742.4076 1945.4173 L 534.6614 1945.4173 C 531.3477 1945.4173 528.6614 1942.731 528.6614 1939.4173 L 528.6614 1903.2283 C 528.6614 1899.9146 531.3477 1897.2283 534.6614 1897.2283 Z" stroke="#012b36" stroke-linecap="round" stroke-linejoin="round" stroke-width="1"/>
        <text transform="translate(533.6614 1913.3228)" fill="white">
          <tspan font-family="Roboto, sans-serif" font-size="14" fill="white" x="16.822815" y="13">pathling:read:[resource type]</tspan>
        </text>
      </g>
      <g id="Graphic_26">
        <path d="M 1073.6708 1897.2283 L 1289.2651 1897.2283 C 1292.5788 1897.2283 1295.2651 1899.9146 1295.2651 1903.2283 L 1295.2651 1939.4173 C 1295.2651 1942.731 1292.5788 1945.4173 1289.2651 1945.4173 L 1073.6708 1945.4173 C 1070.3571 1945.4173 1067.6708 1942.731 1067.6708 1939.4173 L 1067.6708 1903.2283 C 1067.6708 1899.9146 1070.3571 1897.2283 1073.6708 1897.2283 Z" fill="#b58900" fill-opacity=".2"/>
        <path d="M 1073.6708 1897.2283 L 1289.2651 1897.2283 C 1292.5788 1897.2283 1295.2651 1899.9146 1295.2651 1903.2283 L 1295.2651 1939.4173 C 1295.2651 1942.731 1292.5788 1945.4173 1289.2651 1945.4173 L 1073.6708 1945.4173 C 1070.3571 1945.4173 1067.6708 1942.731 1067.6708 1939.4173 L 1067.6708 1903.2283 C 1067.6708 1899.9146 1070.3571 1897.2283 1073.6708 1897.2283 Z" stroke="#012b36" stroke-linecap="round" stroke-linejoin="round" stroke-width="1"/>
        <text transform="translate(1072.6708 1913.3228)" fill="white">
          <tspan font-family="Roboto, sans-serif" font-size="14" fill="white" x="19.19168" y="13">pathling:write:[resource type]</tspan>
        </text>
      </g>
      <g id="Line_27">
        <line x1="768.4555" y1="1921.3228" x2="758.3076" y2="1921.3228" marker-end="url(#StickArrow_Marker)" stroke="white" stroke-linecap="round" stroke-linejoin="round" stroke-width="1"/>
      </g>
      <g id="Line_28">
        <line x1="1047.6229" y1="1921.3228" x2="1057.7708" y2="1921.3228" marker-end="url(#StickArrow_Marker)" stroke="white" stroke-linecap="round" stroke-linejoin="round" stroke-width="1"/>
      </g>
      <g id="Line_32">
        <path d="M 859.269 1828.3465 C 773.754 1806.2514 626.35654 1823.9682 564.2243 1766.5633" marker-end="url(#StickArrow_Marker)" stroke="white" stroke-linecap="round" stroke-linejoin="round" stroke-width="1"/>
      </g>
      <g id="Line_33">
        <path d="M 859.269 1816.2992 C 823.0126 1798.6374 719.8701 1800.1034 686.2417 1767.2" marker-end="url(#StickArrow_Marker)" stroke="white" stroke-linecap="round" stroke-linejoin="round" stroke-width="1"/>
      </g>
      <g id="Line_34">
        <path d="M 881.3267 1804.252 C 886.9225 1791.5127 846.7111 1786.072 837.6817 1769.2457" marker-end="url(#StickArrow_Marker)" stroke="white" stroke-linecap="round" stroke-linejoin="round" stroke-width="1"/>
      </g>
      <g id="Line_36">
        <line x1="463.8884" y1="1993" x2="481.6747" y2="1993" marker-end="url(#StickArrow_Marker)" stroke="white" stroke-linecap="round" stroke-linejoin="round" stroke-width="1"/>
      </g>
      <g id="Graphic_35">
        <text transform="translate(498.9478 1985)" fill="white">
          <tspan font-family="Roboto, sans-serif" font-size="12" fill="white" x="0" y="11">includes</tspan>
        </text>
      </g>
      <g id="Graphic_29">
        <path d="M 469.8884 1711.2756 L 582.4694 1711.2756 C 585.7831 1711.2756 588.4694 1713.962 588.4694 1717.2756 L 588.4694 1753.4646 C 588.4694 1756.7783 585.7831 1759.4646 582.4694 1759.4646 L 469.8884 1759.4646 C 466.5747 1759.4646 463.8884 1756.7783 463.8884 1753.4646 L 463.8884 1717.2756 C 463.8884 1713.962 466.5747 1711.2756 469.8884 1711.2756 Z" fill="#6c71c4" fill-opacity=".2"/>
        <path d="M 469.8884 1711.2756 L 582.4694 1711.2756 C 585.7831 1711.2756 588.4694 1713.962 588.4694 1717.2756 L 588.4694 1753.4646 C 588.4694 1756.7783 585.7831 1759.4646 582.4694 1759.4646 L 469.8884 1759.4646 C 466.5747 1759.4646 463.8884 1756.7783 463.8884 1753.4646 L 463.8884 1717.2756 C 463.8884 1713.962 466.5747 1711.2756 469.8884 1711.2756 Z" stroke="#012b36" stroke-linecap="round" stroke-linejoin="round" stroke-width="1"/>
        <text transform="translate(468.8884 1727.3701)" fill="white">
          <tspan font-family="Roboto, sans-serif" font-size="14" fill="white" x="9.95163" y="13">pathling:import</tspan>
        </text>
      </g>
      <g id="Graphic_30">
        <path d="M 614.3119 1711.2756 L 745.8197 1711.2756 C 749.1334 1711.2756 751.8197 1713.962 751.8197 1717.2756 L 751.8197 1753.4646 C 751.8197 1756.7783 749.1334 1759.4646 745.8197 1759.4646 L 614.3119 1759.4646 C 610.9982 1759.4646 608.3119 1756.7783 608.3119 1753.4646 L 608.3119 1717.2756 C 608.3119 1713.962 610.9982 1711.2756 614.3119 1711.2756 Z" fill="#6c71c4" fill-opacity=".2"/>
        <path d="M 614.3119 1711.2756 L 745.8197 1711.2756 C 749.1334 1711.2756 751.8197 1713.962 751.8197 1717.2756 L 751.8197 1753.4646 C 751.8197 1756.7783 749.1334 1759.4646 745.8197 1759.4646 L 614.3119 1759.4646 C 610.9982 1759.4646 608.3119 1756.7783 608.3119 1753.4646 L 608.3119 1717.2756 C 608.3119 1713.962 610.9982 1711.2756 614.3119 1711.2756 Z" stroke="#012b36" stroke-linecap="round" stroke-linejoin="round" stroke-width="1"/>
        <text transform="translate(613.3119 1727.3701)" fill="white">
          <tspan font-family="Roboto, sans-serif" font-size="14" fill="white" x="8.590294" y="13">pathling:aggregate</tspan>
        </text>
      </g>
      <g id="Graphic_31">
        <path d="M 777.6622 1711.2756 L 894.6987 1711.2756 C 898.0124 1711.2756 900.6987 1713.962 900.6987 1717.2756 L 900.6987 1753.4646 C 900.6987 1756.7783 898.0124 1759.4646 894.6987 1759.4646 L 777.6622 1759.4646 C 774.3485 1759.4646 771.6622 1756.7783 771.6622 1753.4646 L 771.6622 1717.2756 C 771.6622 1713.962 774.3485 1711.2756 777.6622 1711.2756 Z" fill="#6c71c4" fill-opacity=".2"/>
        <path d="M 777.6622 1711.2756 L 894.6987 1711.2756 C 898.0124 1711.2756 900.6987 1713.962 900.6987 1717.2756 L 900.6987 1753.4646 C 900.6987 1756.7783 898.0124 1759.4646 894.6987 1759.4646 L 777.6622 1759.4646 C 774.3485 1759.4646 771.6622 1756.7783 771.6622 1753.4646 L 771.6622 1717.2756 C 771.6622 1713.962 774.3485 1711.2756 777.6622 1711.2756 Z" stroke="#012b36" stroke-linecap="round" stroke-linejoin="round" stroke-width="1"/>
        <text transform="translate(776.6622 1727.3701)" fill="white">
          <tspan font-family="Roboto, sans-serif" font-size="14" fill="white" x="11.810257" y="13">pathling:search</tspan>
        </text>
      </g>
      <g id="Graphic_37">
        <path d="M 1075.4203 1710.7087 L 1192.4568 1710.7087 C 1195.7705 1710.7087 1198.4568 1713.395 1198.4568 1716.7087 L 1198.4568 1752.8977 C 1198.4568 1756.2114 1195.7705 1758.8977 1192.4568 1758.8977 L 1075.4203 1758.8977 C 1072.1066 1758.8977 1069.4203 1756.2114 1069.4203 1752.8977 L 1069.4203 1716.7087 C 1069.4203 1713.395 1072.1066 1710.7087 1075.4203 1710.7087 Z" fill="#6c71c4" fill-opacity=".2"/>
        <path d="M 1075.4203 1710.7087 L 1192.4568 1710.7087 C 1195.7705 1710.7087 1198.4568 1713.395 1198.4568 1716.7087 L 1198.4568 1752.8977 C 1198.4568 1756.2114 1195.7705 1758.8977 1192.4568 1758.8977 L 1075.4203 1758.8977 C 1072.1066 1758.8977 1069.4203 1756.2114 1069.4203 1752.8977 L 1069.4203 1716.7087 C 1069.4203 1713.395 1072.1066 1710.7087 1075.4203 1710.7087 Z" stroke="#012b36" stroke-linecap="round" stroke-linejoin="round" stroke-width="1"/>
        <text transform="translate(1074.4203 1726.8032)" fill="white">
          <tspan font-family="Roboto, sans-serif" font-size="14" fill="white" x="11.222366" y="13">pathling:update</tspan>
        </text>
      </g>
      <g id="Graphic_38">
        <path d="M 1224.2993 1710.7087 L 1336.8803 1710.7087 C 1340.194 1710.7087 1342.8803 1713.395 1342.8803 1716.7087 L 1342.8803 1752.8977 C 1342.8803 1756.2114 1340.194 1758.8977 1336.8803 1758.8977 L 1224.2993 1758.8977 C 1220.9856 1758.8977 1218.2993 1756.2114 1218.2993 1752.8977 L 1218.2993 1716.7087 C 1218.2993 1713.395 1220.9856 1710.7087 1224.2993 1710.7087 Z" fill="#6c71c4" fill-opacity=".2"/>
        <path d="M 1224.2993 1710.7087 L 1336.8803 1710.7087 C 1340.194 1710.7087 1342.8803 1713.395 1342.8803 1716.7087 L 1342.8803 1752.8977 C 1342.8803 1756.2114 1340.194 1758.8977 1336.8803 1758.8977 L 1224.2993 1758.8977 C 1220.9856 1758.8977 1218.2993 1756.2114 1218.2993 1752.8977 L 1218.2993 1716.7087 C 1218.2993 1713.395 1220.9856 1710.7087 1224.2993 1710.7087 Z" stroke="#012b36" stroke-linecap="round" stroke-linejoin="round" stroke-width="1"/>
        <text transform="translate(1223.2993 1726.8032)" fill="white">
          <tspan font-family="Roboto, sans-serif" font-size="14" fill="white" x="12.990204" y="13">pathling:batch</tspan>
        </text>
      </g>
      <g id="Line_39">
        <path d="M 947.4997 1816.2992 C 980.1777 1798.6182 1070.5984 1799.1986 1096.6336 1767.4157" marker-end="url(#StickArrow_Marker)" stroke="white" stroke-linecap="round" stroke-linejoin="round" stroke-width="1"/>
      </g>
      <g id="Line_40">
        <path d="M 947.4997 1828.3465 C 1052.9135 1805.9599 1210.0557 1838.159 1274.3457 1766.584" marker-end="url(#StickArrow_Marker)" stroke="white" stroke-linecap="round" stroke-linejoin="round" stroke-width="1"/>
      </g>
      <g id="Graphic_41">
        <path d="M 926.5412 1711.2756 L 1043.5777 1711.2756 C 1046.8915 1711.2756 1049.5777 1713.962 1049.5777 1717.2756 L 1049.5777 1753.4646 C 1049.5777 1756.7783 1046.8915 1759.4646 1043.5777 1759.4646 L 926.5412 1759.4646 C 923.2275 1759.4646 920.5412 1756.7783 920.5412 1753.4646 L 920.5412 1717.2756 C 920.5412 1713.962 923.2275 1711.2756 926.5412 1711.2756 Z" fill="#6c71c4" fill-opacity=".2"/>
        <path d="M 926.5412 1711.2756 L 1043.5777 1711.2756 C 1046.8915 1711.2756 1049.5777 1713.962 1049.5777 1717.2756 L 1049.5777 1753.4646 C 1049.5777 1756.7783 1046.8915 1759.4646 1043.5777 1759.4646 L 926.5412 1759.4646 C 923.2275 1759.4646 920.5412 1756.7783 920.5412 1753.4646 L 920.5412 1717.2756 C 920.5412 1713.962 923.2275 1711.2756 926.5412 1711.2756 Z" stroke="#012b36" stroke-linecap="round" stroke-linejoin="round" stroke-width="1"/>
        <text transform="translate(925.5412 1727.3701)" fill="white">
          <tspan font-family="Roboto, sans-serif" font-size="14" fill="white" x="11.304398" y="13">pathling:extract</tspan>
        </text>
      </g>
      <g id="Line_42">
        <path d="M 925.442 1804.252 C 931.1192 1791.3275 968.1657 1785.9155 981.0275 1768.5048" marker-end="url(#StickArrow_Marker_2)" stroke="white" stroke-linecap="round" stroke-linejoin="round" stroke-width="1"/>
      </g>
    </g>
  </g>
</svg>
