<?xml version="1.0" encoding="UTF-8" standalone="no"?>
<!DOCTYPE svg PUBLIC "-//W3C//DTD SVG 1.1//EN" "http://www.w3.org/Graphics/SVG/1.1/DTD/svg11.dtd">
<svg version="1.1" xmlns="http://www.w3.org/2000/svg" viewBox="500 1682 824 351" width="824"
    height="351">
  <defs>
    <marker orient="auto" overflow="visible" markerUnits="strokeWidth" id="StickArrow_Marker"
        stroke-linejoin="miter" stroke-miterlimit="10" viewBox="-1 -4 10 8" markerWidth="10"
        markerHeight="8" color="white">
      <g>
        <path d="M 8 0 L 0 0 M 0 -3 L 8 0 L 0 3" fill="none" stroke="currentColor"
            stroke-width="1"/>
      </g>
    </marker>
  </defs>
  <g id="Authorities_(dark)" fill-opacity="1" stroke="none" stroke-opacity="1"
      stroke-dasharray="none" fill="none">
    <title>Authorities (dark)</title>
    <g id="Authorities_(dark)_Layer_1">
      <title>Layer 1</title>
      <g id="Graphic_16">
        <path
            d="M 865.269 1804.252 L 941.4997 1804.252 C 944.8134 1804.252 947.4997 1806.9383 947.4997 1810.252 L 947.4997 1846.441 C 947.4997 1849.7547 944.8134 1852.441 941.4997 1852.441 L 865.269 1852.441 C 861.9553 1852.441 859.269 1849.7547 859.269 1846.441 L 859.269 1810.252 C 859.269 1806.9383 861.9553 1804.252 865.269 1804.252 Z"
            fill="#d33682" fill-opacity=".2"/>
        <path
            d="M 865.269 1804.252 L 941.4997 1804.252 C 944.8134 1804.252 947.4997 1806.9383 947.4997 1810.252 L 947.4997 1846.441 C 947.4997 1849.7547 944.8134 1852.441 941.4997 1852.441 L 865.269 1852.441 C 861.9553 1852.441 859.269 1849.7547 859.269 1846.441 L 859.269 1810.252 C 859.269 1806.9383 861.9553 1804.252 865.269 1804.252 Z"
            stroke="#012b36" stroke-linecap="round" stroke-linejoin="round" stroke-width="1"/>
        <text transform="translate(864.269 1820.3465)" fill="white">
          <tspan font-family="Roboto, sans-serif" font-size="14" fill="white" x="14.051384"
              y="13">pathling
          </tspan>
        </text>
      </g>
      <g id="Graphic_21">
        <path
            d="M 774.4555 1897.2283 L 887.0365 1897.2283 C 890.3502 1897.2283 893.0365 1899.9146 893.0365 1903.2283 L 893.0365 1939.4173 C 893.0365 1942.731 890.3502 1945.4173 887.0365 1945.4173 L 774.4555 1945.4173 C 771.1418 1945.4173 768.4555 1942.731 768.4555 1939.4173 L 768.4555 1903.2283 C 768.4555 1899.9146 771.1418 1897.2283 774.4555 1897.2283 Z"
            fill="#cb4b16" fill-opacity=".2"/>
        <path
            d="M 774.4555 1897.2283 L 887.0365 1897.2283 C 890.3502 1897.2283 893.0365 1899.9146 893.0365 1903.2283 L 893.0365 1939.4173 C 893.0365 1942.731 890.3502 1945.4173 887.0365 1945.4173 L 774.4555 1945.4173 C 771.1418 1945.4173 768.4555 1942.731 768.4555 1939.4173 L 768.4555 1903.2283 C 768.4555 1899.9146 771.1418 1897.2283 774.4555 1897.2283 Z"
            stroke="#012b36" stroke-linecap="round" stroke-linejoin="round" stroke-width="1"/>
        <text transform="translate(773.4555 1913.3228)" fill="white">
          <tspan font-family="Roboto, sans-serif" font-size="14" fill="white" x="16.763641"
              y="13">pathling:read
          </tspan>
        </text>
      </g>
      <g id="Line_22">
        <path d="M 881.3267 1852.441 C 874.3933 1865.0797 869.9143 1872.0695 864.7713 1887.7572"
            marker-end="url(#StickArrow_Marker)" stroke="white" stroke-linecap="round"
            stroke-linejoin="round" stroke-width="1"/>
      </g>
      <g id="Graphic_23">
        <path
            d="M 919.0844 1897.2283 L 1041.6229 1897.2283 C 1044.9366 1897.2283 1047.6229 1899.9146 1047.6229 1903.2283 L 1047.6229 1939.4173 C 1047.6229 1942.731 1044.9366 1945.4173 1041.6229 1945.4173 L 919.0844 1945.4173 C 915.7707 1945.4173 913.0844 1942.731 913.0844 1939.4173 L 913.0844 1903.2283 C 913.0844 1899.9146 915.7707 1897.2283 919.0844 1897.2283 Z"
            fill="#cb4b16" fill-opacity=".2"/>
        <path
            d="M 919.0844 1897.2283 L 1041.6229 1897.2283 C 1044.9366 1897.2283 1047.6229 1899.9146 1047.6229 1903.2283 L 1047.6229 1939.4173 C 1047.6229 1942.731 1044.9366 1945.4173 1041.6229 1945.4173 L 919.0844 1945.4173 C 915.7707 1945.4173 913.0844 1942.731 913.0844 1939.4173 L 913.0844 1903.2283 C 913.0844 1899.9146 915.7707 1897.2283 919.0844 1897.2283 Z"
            stroke="#012b36" stroke-linecap="round" stroke-linejoin="round" stroke-width="1"/>
        <text transform="translate(918.0844 1913.3228)" fill="white">
          <tspan font-family="Roboto, sans-serif" font-size="14" fill="white" x="20.187218"
              y="13">pathling:write
          </tspan>
        </text>
      </g>
      <g id="Line_24">
        <path d="M 925.442 1852.441 C 933.0858 1865.1686 938.2506 1871.4407 943.7939 1887.7681"
            marker-end="url(#StickArrow_Marker)" stroke="white" stroke-linecap="round"
            stroke-linejoin="round" stroke-width="1"/>
      </g>
      <g id="Graphic_25">
        <path
            d="M 534.6614 1897.2283 L 742.4076 1897.2283 C 745.72134 1897.2283 748.4076 1899.9146 748.4076 1903.2283 L 748.4076 1939.4173 C 748.4076 1942.731 745.72134 1945.4173 742.4076 1945.4173 L 534.6614 1945.4173 C 531.3477 1945.4173 528.6614 1942.731 528.6614 1939.4173 L 528.6614 1903.2283 C 528.6614 1899.9146 531.3477 1897.2283 534.6614 1897.2283 Z"
            fill="#b58900" fill-opacity=".2"/>
        <path
            d="M 534.6614 1897.2283 L 742.4076 1897.2283 C 745.72134 1897.2283 748.4076 1899.9146 748.4076 1903.2283 L 748.4076 1939.4173 C 748.4076 1942.731 745.72134 1945.4173 742.4076 1945.4173 L 534.6614 1945.4173 C 531.3477 1945.4173 528.6614 1942.731 528.6614 1939.4173 L 528.6614 1903.2283 C 528.6614 1899.9146 531.3477 1897.2283 534.6614 1897.2283 Z"
            stroke="#012b36" stroke-linecap="round" stroke-linejoin="round" stroke-width="1"/>
        <text transform="translate(533.6614 1913.3228)" fill="white">
          <tspan font-family="Roboto, sans-serif" font-size="14" fill="white" x="16.822815"
              y="13">pathling:read:[resource type]
          </tspan>
        </text>
      </g>
      <g id="Graphic_26">
        <path
            d="M 1073.6708 1897.2283 L 1289.2651 1897.2283 C 1292.5788 1897.2283 1295.2651 1899.9146 1295.2651 1903.2283 L 1295.2651 1939.4173 C 1295.2651 1942.731 1292.5788 1945.4173 1289.2651 1945.4173 L 1073.6708 1945.4173 C 1070.3571 1945.4173 1067.6708 1942.731 1067.6708 1939.4173 L 1067.6708 1903.2283 C 1067.6708 1899.9146 1070.3571 1897.2283 1073.6708 1897.2283 Z"
            fill="#b58900" fill-opacity=".2"/>
        <path
            d="M 1073.6708 1897.2283 L 1289.2651 1897.2283 C 1292.5788 1897.2283 1295.2651 1899.9146 1295.2651 1903.2283 L 1295.2651 1939.4173 C 1295.2651 1942.731 1292.5788 1945.4173 1289.2651 1945.4173 L 1073.6708 1945.4173 C 1070.3571 1945.4173 1067.6708 1942.731 1067.6708 1939.4173 L 1067.6708 1903.2283 C 1067.6708 1899.9146 1070.3571 1897.2283 1073.6708 1897.2283 Z"
            stroke="#012b36" stroke-linecap="round" stroke-linejoin="round" stroke-width="1"/>
        <text transform="translate(1072.6708 1913.3228)" fill="white">
          <tspan font-family="Roboto, sans-serif" font-size="14" fill="white" x="19.19168"
              y="13">pathling:write:[resource type]
          </tspan>
        </text>
      </g>
      <g id="Line_27">
        <line x1="768.4555" y1="1921.3228" x2="758.3076" y2="1921.3228"
            marker-end="url(#StickArrow_Marker)" stroke="white" stroke-linecap="round"
            stroke-linejoin="round" stroke-width="1"/>
      </g>
      <g id="Line_28">
        <line x1="1047.6229" y1="1921.3228" x2="1057.7708" y2="1921.3228"
            marker-end="url(#StickArrow_Marker)" stroke="white" stroke-linecap="round"
            stroke-linejoin="round" stroke-width="1"/>
      </g>
      <g id="Line_32">
        <path d="M 859.269 1828.3465 C 773.8451 1806.275 710.8143 1823.9305 655.0831 1766.7465"
            marker-end="url(#StickArrow_Marker)" stroke="white" stroke-linecap="round"
            stroke-linejoin="round" stroke-width="1"/>
      </g>
      <g id="Line_33">
        <path d="M 859.269 1816.2992 C 823.2158 1798.7364 795.7187 1800.0876 772.4061 1767.75"
            marker-end="url(#StickArrow_Marker)" stroke="white" stroke-linecap="round"
            stroke-linejoin="round" stroke-width="1"/>
      </g>
      <g id="Line_34">
        <path d="M 903.3844 1804.252 C 908.9905 1791.4893 912.9886 1786.0522 916.9342 1769.1532"
            marker-end="url(#StickArrow_Marker)" stroke="white" stroke-linecap="round"
            stroke-linejoin="round" stroke-width="1"/>
      </g>
      <g id="Line_36">
        <line x1="528.6614" y1="1993" x2="546.4477" y2="1993" marker-end="url(#StickArrow_Marker)"
            stroke="white" stroke-linecap="round" stroke-linejoin="round" stroke-width="1"/>
      </g>
      <g id="Graphic_35">
        <text transform="translate(563.7208 1985)" fill="white">
          <tspan font-family="Roboto, sans-serif" font-size="12" fill="white" x="0"
              y="11">includes
          </tspan>
        </text>
      </g>
      <g id="Graphic_29">
        <path
            d="M 560.9473 1711.2756 L 673.5283 1711.2756 C 676.842 1711.2756 679.5283 1713.962 679.5283 1717.2756 L 679.5283 1753.4646 C 679.5283 1756.7783 676.842 1759.4646 673.5283 1759.4646 L 560.9473 1759.4646 C 557.6336 1759.4646 554.9473 1756.7783 554.9473 1753.4646 L 554.9473 1717.2756 C 554.9473 1713.962 557.6336 1711.2756 560.9473 1711.2756 Z"
            fill="#6c71c4" fill-opacity=".2"/>
        <path
            d="M 560.9473 1711.2756 L 673.5283 1711.2756 C 676.842 1711.2756 679.5283 1713.962 679.5283 1717.2756 L 679.5283 1753.4646 C 679.5283 1756.7783 676.842 1759.4646 673.5283 1759.4646 L 560.9473 1759.4646 C 557.6336 1759.4646 554.9473 1756.7783 554.9473 1753.4646 L 554.9473 1717.2756 C 554.9473 1713.962 557.6336 1711.2756 560.9473 1711.2756 Z"
            stroke="#012b36" stroke-linecap="round" stroke-linejoin="round" stroke-width="1"/>
        <text transform="translate(559.9473 1727.3701)" fill="white">
          <tspan font-family="Roboto, sans-serif" font-size="14" fill="white" x="9.95163"
              y="13">pathling:import
          </tspan>
        </text>
      </g>
      <g id="Graphic_30">
        <path
            d="M 701.2244 1711.2756 L 832.7322 1711.2756 C 836.0459 1711.2756 838.7322 1713.962 838.7322 1717.2756 L 838.7322 1753.4646 C 838.7322 1756.7783 836.0459 1759.4646 832.7322 1759.4646 L 701.2244 1759.4646 C 697.9107 1759.4646 695.2244 1756.7783 695.2244 1753.4646 L 695.2244 1717.2756 C 695.2244 1713.962 697.9107 1711.2756 701.2244 1711.2756 Z"
            fill="#6c71c4" fill-opacity=".2"/>
        <path
            d="M 701.2244 1711.2756 L 832.7322 1711.2756 C 836.0459 1711.2756 838.7322 1713.962 838.7322 1717.2756 L 838.7322 1753.4646 C 838.7322 1756.7783 836.0459 1759.4646 832.7322 1759.4646 L 701.2244 1759.4646 C 697.9107 1759.4646 695.2244 1756.7783 695.2244 1753.4646 L 695.2244 1717.2756 C 695.2244 1713.962 697.9107 1711.2756 701.2244 1711.2756 Z"
            stroke="#012b36" stroke-linecap="round" stroke-linejoin="round" stroke-width="1"/>
        <text transform="translate(700.2244 1727.3701)" fill="white">
          <tspan font-family="Roboto, sans-serif" font-size="14" fill="white" x="8.590294"
              y="13">pathling:aggregate
          </tspan>
        </text>
      </g>
      <g id="Graphic_31">
        <path
            d="M 860.4283 1711.2756 L 977.4649 1711.2756 C 980.7786 1711.2756 983.4649 1713.962 983.4649 1717.2756 L 983.4649 1753.4646 C 983.4649 1756.7783 980.7786 1759.4646 977.4649 1759.4646 L 860.4283 1759.4646 C 857.1146 1759.4646 854.4283 1756.7783 854.4283 1753.4646 L 854.4283 1717.2756 C 854.4283 1713.962 857.1146 1711.2756 860.4283 1711.2756 Z"
            fill="#6c71c4" fill-opacity=".2"/>
        <path
            d="M 860.4283 1711.2756 L 977.4649 1711.2756 C 980.7786 1711.2756 983.4649 1713.962 983.4649 1717.2756 L 983.4649 1753.4646 C 983.4649 1756.7783 980.7786 1759.4646 977.4649 1759.4646 L 860.4283 1759.4646 C 857.1146 1759.4646 854.4283 1756.7783 854.4283 1753.4646 L 854.4283 1717.2756 C 854.4283 1713.962 857.1146 1711.2756 860.4283 1711.2756 Z"
            stroke="#012b36" stroke-linecap="round" stroke-linejoin="round" stroke-width="1"/>
        <text transform="translate(859.4283 1727.3701)" fill="white">
          <tspan font-family="Roboto, sans-serif" font-size="14" fill="white" x="11.810257"
              y="13">pathling:search
          </tspan>
        </text>
      </g>
      <g id="Graphic_37">
        <path
            d="M 1005.161 1710.7087 L 1122.1975 1710.7087 C 1125.5113 1710.7087 1128.1975 1713.395 1128.1975 1716.7087 L 1128.1975 1752.8977 C 1128.1975 1756.2114 1125.5113 1758.8977 1122.1975 1758.8977 L 1005.161 1758.8977 C 1001.8473 1758.8977 999.161 1756.2114 999.161 1752.8977 L 999.161 1716.7087 C 999.161 1713.395 1001.8473 1710.7087 1005.161 1710.7087 Z"
            fill="#6c71c4" fill-opacity=".2"/>
        <path
            d="M 1005.161 1710.7087 L 1122.1975 1710.7087 C 1125.5113 1710.7087 1128.1975 1713.395 1128.1975 1716.7087 L 1128.1975 1752.8977 C 1128.1975 1756.2114 1125.5113 1758.8977 1122.1975 1758.8977 L 1005.161 1758.8977 C 1001.8473 1758.8977 999.161 1756.2114 999.161 1752.8977 L 999.161 1716.7087 C 999.161 1713.395 1001.8473 1710.7087 1005.161 1710.7087 Z"
            stroke="#012b36" stroke-linecap="round" stroke-linejoin="round" stroke-width="1"/>
        <text transform="translate(1004.161 1726.8032)" fill="white">
          <tspan font-family="Roboto, sans-serif" font-size="14" fill="white" x="11.222366"
              y="13">pathling:update
          </tspan>
        </text>
      </g>
      <g id="Graphic_38">
        <path
            d="M 1149.8937 1710.7087 L 1262.4747 1710.7087 C 1265.7884 1710.7087 1268.4747 1713.395 1268.4747 1716.7087 L 1268.4747 1752.8977 C 1268.4747 1756.2114 1265.7884 1758.8977 1262.4747 1758.8977 L 1149.8937 1758.8977 C 1146.58 1758.8977 1143.8937 1756.2114 1143.8937 1752.8977 L 1143.8937 1716.7087 C 1143.8937 1713.395 1146.58 1710.7087 1149.8937 1710.7087 Z"
            fill="#6c71c4" fill-opacity=".2"/>
        <path
            d="M 1149.8937 1710.7087 L 1262.4747 1710.7087 C 1265.7884 1710.7087 1268.4747 1713.395 1268.4747 1716.7087 L 1268.4747 1752.8977 C 1268.4747 1756.2114 1265.7884 1758.8977 1262.4747 1758.8977 L 1149.8937 1758.8977 C 1146.58 1758.8977 1143.8937 1756.2114 1143.8937 1752.8977 L 1143.8937 1716.7087 C 1143.8937 1713.395 1146.58 1710.7087 1149.8937 1710.7087 Z"
            stroke="#012b36" stroke-linecap="round" stroke-linejoin="round" stroke-width="1"/>
        <text transform="translate(1148.8937 1726.8032)" fill="white">
          <tspan font-family="Roboto, sans-serif" font-size="14" fill="white" x="12.990204"
              y="13">pathling:batch
          </tspan>
        </text>
      </g>
      <g id="Line_39">
        <path d="M 947.4997 1816.2992 C 980.0137 1798.707 1010.2979 1799.1933 1027.272 1767.8919"
            marker-end="url(#StickArrow_Marker)" stroke="white" stroke-linecap="round"
            stroke-linejoin="round" stroke-width="1"/>
      </g>
      <g id="Line_40">
        <path d="M 947.4997 1828.3465 C 1052.8603 1805.9712 1140.3855 1838.1266 1200.0867 1766.6922"
            marker-end="url(#StickArrow_Marker)" stroke="white" stroke-linecap="round"
            stroke-linejoin="round" stroke-width="1"/>
      </g>
    </g>
  </g>
</svg>
