<?xml version="1.0" encoding="UTF-8" standalone="no"?>
<!DOCTYPE svg PUBLIC "-//W3C//DTD SVG 1.1//EN" "http://www.w3.org/Graphics/SVG/1.1/DTD/svg11.dtd">
<svg version="1.1" xmlns="http://www.w3.org/2000/svg" viewBox="598 1074 374 305" width="374"
    height="305">
  <defs/>
  <g id="Simple_components" fill-opacity="1" stroke="none" stroke-opacity="1"
      stroke-dasharray="none" fill="none">
    <title>Simple components</title>
    <g id="Simple_components_Layer_1">
      <title>Layer 1</title>
      <g id="Graphic_3">
        <path
            d="M 808 1103 L 936.5 1103 C 939.8137 1103 942.5 1105.6863 942.5 1109 L 942.5 1215 C 942.5 1218.3137 939.8137 1221 936.5 1221 L 808 1221 C 804.6863 1221 802 1218.3137 802 1215 L 802 1109 C 802 1105.6863 804.6863 1103 808 1103 Z"
            fill="#d33682" fill-opacity=".2"/>
        <path
            d="M 808 1103 L 936.5 1103 C 939.8137 1103 942.5 1105.6863 942.5 1109 L 942.5 1215 C 942.5 1218.3137 939.8137 1221 936.5 1221 L 808 1221 C 804.6863 1221 802 1218.3137 802 1215 L 802 1109 C 802 1105.6863 804.6863 1103 808 1103 Z"
            stroke="#012b36" stroke-linecap="round" stroke-linejoin="round" stroke-width="2"/>
        <text transform="translate(822 1126)" fill="black">
          <tspan font-family="Roboto, sans-serif" font-size="20" fill="black" x="28.589844"
              y="19">FHIR
          </tspan>
          <tspan font-family="Roboto, sans-serif" font-size="20" fill="black" x="10.171875"
              y="43">analytics
          </tspan>
          <tspan font-family="Roboto, sans-serif" font-size="20" fill="black" x="22.354492"
              y="67">server
          </tspan>
        </text>
      </g>
      <g id="Graphic_6">
        <path
            d="M 633.5 1255 L 936.5 1255 C 939.8137 1255 942.5 1257.6863 942.5 1261 L 942.5 1343.5 C 942.5 1346.8137 939.8137 1349.5 936.5 1349.5 L 633.5 1349.5 C 630.1863 1349.5 627.5 1346.8137 627.5 1343.5 L 627.5 1261 C 627.5 1257.6863 630.1863 1255 633.5 1255 Z"
            fill="#2aa198" fill-opacity=".2"/>
        <path
            d="M 633.5 1255 L 936.5 1255 C 939.8137 1255 942.5 1257.6863 942.5 1261 L 942.5 1343.5 C 942.5 1346.8137 939.8137 1349.5 936.5 1349.5 L 633.5 1349.5 C 630.1863 1349.5 627.5 1346.8137 627.5 1343.5 L 627.5 1261 C 627.5 1257.6863 630.1863 1255 633.5 1255 Z"
            stroke="#012b36" stroke-linecap="round" stroke-linejoin="round" stroke-width="2"/>
        <text transform="translate(647.5 1290.25)" fill="black">
          <tspan font-family="Roboto, sans-serif" font-size="20" fill="black" x="28.26172"
              y="19">FHIR encoders for Spark
          </tspan>
        </text>
      </g>
      <g id="Graphic_7">
        <path
            d="M 633.5 1103 L 762 1103 C 765.3137 1103 768 1105.6863 768 1109 L 768 1215 C 768 1218.3137 765.3137 1221 762 1221 L 633.5 1221 C 630.1863 1221 627.5 1218.3137 627.5 1215 L 627.5 1109 C 627.5 1105.6863 630.1863 1103 633.5 1103 Z"
            fill="#cb4b16" fill-opacity=".2"/>
        <path
            d="M 633.5 1103 L 762 1103 C 765.3137 1103 768 1105.6863 768 1109 L 768 1215 C 768 1218.3137 765.3137 1221 762 1221 L 633.5 1221 C 630.1863 1221 627.5 1218.3137 627.5 1215 L 627.5 1109 C 627.5 1105.6863 630.1863 1103 633.5 1103 Z"
            stroke="#012b36" stroke-linecap="round" stroke-linejoin="round" stroke-width="2"/>
        <text transform="translate(647.5 1138)" fill="black">
          <tspan font-family="Roboto, sans-serif" font-size="20" fill="black" x="6.1972656"
              y="19">Language
          </tspan>
          <tspan font-family="Roboto, sans-serif" font-size="20" fill="black" x="14.136719"
              y="43">libraries
          </tspan>
        </text>
      </g>
    </g>
  </g>
</svg>
