<?xml version="1.0" encoding="UTF-8" standalone="no"?>
<!DOCTYPE svg PUBLIC "-//W3C//DTD SVG 1.1//EN" "http://www.w3.org/Graphics/SVG/1.1/DTD/svg11.dtd">
<svg version="1.1" xmlns="http://www.w3.org/2000/svg" viewBox="817 1700 533 350" width="533"
    height="350">
  <defs/>
  <g id="Pathling_features_(no_text)_(dark)" fill-opacity="1" stroke="none" stroke-opacity="1"
      stroke-dasharray="none" fill="none">
    <title>Pathling features (no text) (dark)</title>
    <g id="Pathling_features_(no_text)_(dark)_Features">
      <title>Features</title>
      <g id="Line_62">
        <path d="M 863.964 1770.3815 L 863.964 1814.936 L 888.6614 1814.936" stroke="white"
            stroke-linecap="round" stroke-linejoin="round" stroke-dasharray="4.0,4.0"
            stroke-width="1"/>
      </g>
      <g id="Line_4">
        <path d="M 1132.2949 1839.433 L 1132.2949 1886.2252 L 1183.5883 1886.2252" stroke="white"
            stroke-linecap="round" stroke-linejoin="round" stroke-dasharray="4.0,4.0"
            stroke-width="1"/>
      </g>
      <g id="Line_8">
        <path d="M 1132.2949 1839.433 L 1132.2949 1948.5874 L 1183.5883 1948.5874" stroke="white"
            stroke-linecap="round" stroke-linejoin="round" stroke-dasharray="4.0,4.0"
            stroke-width="1"/>
      </g>
      <g id="Line_9">
        <path d="M 915.8053 1839.433 L 915.8053 1885.0599 L 967.4466 1885.0599" stroke="white"
            stroke-linecap="round" stroke-linejoin="round" stroke-dasharray="4.0,4.0"
            stroke-width="1"/>
      </g>
      <g id="Line_40">
        <path d="M 1132.2949 1839.433 L 1132.2949 2010.9496 L 1184.297 2010.9496" stroke="white"
            stroke-linecap="round" stroke-linejoin="round" stroke-dasharray="4.0,4.0"
            stroke-width="1"/>
      </g>
      <g id="Line_57">
        <path d="M 915.8053 1839.433 L 915.8053 1947.422 L 968.1553 1947.422" stroke="white"
            stroke-linecap="round" stroke-linejoin="round" stroke-dasharray="4.0,4.0"
            stroke-width="1"/>
      </g>
      <g id="Line_58">
        <path d="M 915.8053 1839.433 L 915.8053 2009.7843 L 967.4466 2009.7843" stroke="white"
            stroke-linecap="round" stroke-linejoin="round" stroke-dasharray="4.0,4.0"
            stroke-width="1"/>
      </g>
      <g id="Graphic_3">
        <path
            d="M 1189.5883 1862.1307 L 1260.5017 1862.1307 C 1263.8154 1862.1307 1266.5017 1864.817 1266.5017 1868.1307 L 1266.5017 1904.3197 C 1266.5017 1907.6334 1263.8154 1910.3197 1260.5017 1910.3197 L 1189.5883 1910.3197 C 1186.2746 1910.3197 1183.5883 1907.6334 1183.5883 1904.3197 L 1183.5883 1868.1307 C 1183.5883 1864.817 1186.2746 1862.1307 1189.5883 1862.1307 Z"
            fill="#d33682" fill-opacity=".5"/>
        <path
            d="M 1189.5883 1862.1307 L 1260.5017 1862.1307 C 1263.8154 1862.1307 1266.5017 1864.817 1266.5017 1868.1307 L 1266.5017 1904.3197 C 1266.5017 1907.6334 1263.8154 1910.3197 1260.5017 1910.3197 L 1189.5883 1910.3197 C 1186.2746 1910.3197 1183.5883 1907.6334 1183.5883 1904.3197 L 1183.5883 1868.1307 C 1183.5883 1864.817 1186.2746 1862.1307 1189.5883 1862.1307 Z"
            stroke="#012b36" stroke-linecap="round" stroke-linejoin="round" stroke-width="1"/>
        <text transform="translate(1188.5883 1876.7252)" fill="white">
          <tspan font-family="Roboto, sans-serif" font-size="16" fill="white" x="12.93716"
              y="15">import
          </tspan>
        </text>
      </g>
      <g id="Graphic_6">
        <path
            d="M 973.4466 1860.9654 L 1038.6907 1860.9654 C 1042.0044 1860.9654 1044.6907 1863.6517 1044.6907 1866.9654 L 1044.6907 1903.1543 C 1044.6907 1906.468 1042.0044 1909.1543 1038.6907 1909.1543 L 973.4466 1909.1543 C 970.1329 1909.1543 967.4466 1906.468 967.4466 1903.1543 L 967.4466 1866.9654 C 967.4466 1863.6517 970.1329 1860.9654 973.4466 1860.9654 Z"
            fill="#cb4b16" fill-opacity=".5"/>
        <path
            d="M 973.4466 1860.9654 L 1038.6907 1860.9654 C 1042.0044 1860.9654 1044.6907 1863.6517 1044.6907 1866.9654 L 1044.6907 1903.1543 C 1044.6907 1906.468 1042.0044 1909.1543 1038.6907 1909.1543 L 973.4466 1909.1543 C 970.1329 1909.1543 967.4466 1906.468 967.4466 1903.1543 L 967.4466 1866.9654 C 967.4466 1863.6517 970.1329 1860.9654 973.4466 1860.9654 Z"
            stroke="#012b36" stroke-linecap="round" stroke-linejoin="round" stroke-width="1"/>
        <text transform="translate(972.4466 1875.5599)" fill="white">
          <tspan font-family="Roboto, sans-serif" font-size="16" fill="white" x="9.680641"
              y="15">search
          </tspan>
        </text>
      </g>
      <g id="Graphic_5">
        <path
            d="M 1189.5883 1924.493 L 1282.4702 1924.493 C 1285.784 1924.493 1288.4702 1927.1792 1288.4702 1930.493 L 1288.4702 1966.682 C 1288.4702 1969.9956 1285.784 1972.682 1282.4702 1972.682 L 1189.5883 1972.682 C 1186.2746 1972.682 1183.5883 1969.9956 1183.5883 1966.682 L 1183.5883 1930.493 C 1183.5883 1927.1792 1186.2746 1924.493 1189.5883 1924.493 Z"
            fill="#d33682" fill-opacity=".5"/>
        <path
            d="M 1189.5883 1924.493 L 1282.4702 1924.493 C 1285.784 1924.493 1288.4702 1927.1792 1288.4702 1930.493 L 1288.4702 1966.682 C 1288.4702 1969.9956 1285.784 1972.682 1282.4702 1972.682 L 1189.5883 1972.682 C 1186.2746 1972.682 1183.5883 1969.9956 1183.5883 1966.682 L 1183.5883 1930.493 C 1183.5883 1927.1792 1186.2746 1924.493 1189.5883 1924.493 Z"
            stroke="#012b36" stroke-linecap="round" stroke-linejoin="round" stroke-width="1"/>
        <text transform="translate(1188.5883 1939.0874)" fill="white">
          <tspan font-family="Roboto, sans-serif" font-size="16" fill="white" x="11.55032"
              y="15">aggregate
          </tspan>
        </text>
      </g>
      <g id="Graphic_20">
        <path
            d="M 894.6614 1791.2441 L 1018.7244 1791.2441 C 1022.0381 1791.2441 1024.7244 1793.9304 1024.7244 1797.2441 L 1024.7244 1833.433 C 1024.7244 1836.7468 1022.0381 1839.433 1018.7244 1839.433 L 894.6614 1839.433 C 891.3477 1839.433 888.6614 1836.7468 888.6614 1833.433 L 888.6614 1797.2441 C 888.6614 1793.9304 891.3477 1791.2441 894.6614 1791.2441 Z"
            fill="white" fill-opacity=".2"/>
        <path
            d="M 894.6614 1791.2441 L 1018.7244 1791.2441 C 1022.0381 1791.2441 1024.7244 1793.9304 1024.7244 1797.2441 L 1024.7244 1833.433 C 1024.7244 1836.7468 1022.0381 1839.433 1018.7244 1839.433 L 894.6614 1839.433 C 891.3477 1839.433 888.6614 1836.7468 888.6614 1833.433 L 888.6614 1797.2441 C 888.6614 1793.9304 891.3477 1791.2441 894.6614 1791.2441 Z"
            stroke="#012b36" stroke-linecap="round" stroke-linejoin="round" stroke-width="1"/>
        <text transform="translate(893.6614 1805.8386)" fill="white">
          <tspan font-family="Roboto, sans-serif" font-size="16" fill="white" x="10.566654"
              y="15">FHIR REST API
          </tspan>
        </text>
      </g>
      <g id="Graphic_37">
        <path
            d="M 1190.297 1986.8551 L 1255.5411 1986.8551 C 1258.8548 1986.8551 1261.5411 1989.5414 1261.5411 1992.8551 L 1261.5411 2029.044 C 1261.5411 2032.3578 1258.8548 2035.044 1255.5411 2035.044 L 1190.297 2035.044 C 1186.9833 2035.044 1184.297 2032.3578 1184.297 2029.044 L 1184.297 1992.8551 C 1184.297 1989.5414 1186.9833 1986.8551 1190.297 1986.8551 Z"
            fill="#d33682" fill-opacity=".5"/>
        <path
            d="M 1190.297 1986.8551 L 1255.5411 1986.8551 C 1258.8548 1986.8551 1261.5411 1989.5414 1261.5411 1992.8551 L 1261.5411 2029.044 C 1261.5411 2032.3578 1258.8548 2035.044 1255.5411 2035.044 L 1190.297 2035.044 C 1186.9833 2035.044 1184.297 2032.3578 1184.297 2029.044 L 1184.297 1992.8551 C 1184.297 1989.5414 1186.9833 1986.8551 1190.297 1986.8551 Z"
            stroke="#012b36" stroke-linecap="round" stroke-linejoin="round" stroke-width="1"/>
        <text transform="translate(1189.297 2001.4496)" fill="white">
          <tspan font-family="Roboto, sans-serif" font-size="16" fill="white" x="9.102516"
              y="15">extract
          </tspan>
        </text>
      </g>
      <g id="Graphic_51">
        <path
            d="M 974.1553 1923.3276 L 1044.36 1923.3276 C 1047.6737 1923.3276 1050.36 1926.0139 1050.36 1929.3276 L 1050.36 1965.5166 C 1050.36 1968.8303 1047.6737 1971.5166 1044.36 1971.5166 L 974.1553 1971.5166 C 970.8416 1971.5166 968.1553 1968.8303 968.1553 1965.5166 L 968.1553 1929.3276 C 968.1553 1926.0139 970.8416 1923.3276 974.1553 1923.3276 Z"
            fill="#cb4b16" fill-opacity=".5"/>
        <path
            d="M 974.1553 1923.3276 L 1044.36 1923.3276 C 1047.6737 1923.3276 1050.36 1926.0139 1050.36 1929.3276 L 1050.36 1965.5166 C 1050.36 1968.8303 1047.6737 1971.5166 1044.36 1971.5166 L 974.1553 1971.5166 C 970.8416 1971.5166 968.1553 1968.8303 968.1553 1965.5166 L 968.1553 1929.3276 C 968.1553 1926.0139 970.8416 1923.3276 974.1553 1923.3276 Z"
            stroke="#012b36" stroke-linecap="round" stroke-linejoin="round" stroke-width="1"/>
        <text transform="translate(973.1553 1937.922)" fill="white">
          <tspan font-family="Roboto, sans-serif" font-size="16" fill="white" x="11.489082"
              y="15">update
          </tspan>
        </text>
      </g>
      <g id="Graphic_48">
        <path
            d="M 973.4466 1985.6898 L 1033.7301 1985.6898 C 1037.0438 1985.6898 1039.7301 1988.376 1039.7301 1991.6898 L 1039.7301 2027.8788 C 1039.7301 2031.1925 1037.0438 2033.8788 1033.7301 2033.8788 L 973.4466 2033.8788 C 970.1329 2033.8788 967.4466 2031.1925 967.4466 2027.8788 L 967.4466 1991.6898 C 967.4466 1988.376 970.1329 1985.6898 973.4466 1985.6898 Z"
            fill="#cb4b16" fill-opacity=".5"/>
        <path
            d="M 973.4466 1985.6898 L 1033.7301 1985.6898 C 1037.0438 1985.6898 1039.7301 1988.376 1039.7301 1991.6898 L 1039.7301 2027.8788 C 1039.7301 2031.1925 1037.0438 2033.8788 1033.7301 2033.8788 L 973.4466 2033.8788 C 970.1329 2033.8788 967.4466 2031.1925 967.4466 2027.8788 L 967.4466 1991.6898 C 967.4466 1988.376 970.1329 1985.6898 973.4466 1985.6898 Z"
            stroke="#012b36" stroke-linecap="round" stroke-linejoin="round" stroke-width="1"/>
        <text transform="translate(972.4466 2000.2843)" fill="white">
          <tspan font-family="Roboto, sans-serif" font-size="16" fill="white" x="11.094858"
              y="15">batch
          </tspan>
        </text>
      </g>
      <g id="Graphic_60">
        <path
            d="M 1110.0945 1791.2441 L 1329.1181 1791.2441 C 1332.4318 1791.2441 1335.1181 1793.9304 1335.1181 1797.2441 L 1335.1181 1833.433 C 1335.1181 1836.7468 1332.4318 1839.433 1329.1181 1839.433 L 1110.0945 1839.433 C 1106.7808 1839.433 1104.0945 1836.7468 1104.0945 1833.433 L 1104.0945 1797.2441 C 1104.0945 1793.9304 1106.7808 1791.2441 1110.0945 1791.2441 Z"
            fill="white" fill-opacity=".2"/>
        <path
            d="M 1110.0945 1791.2441 L 1329.1181 1791.2441 C 1332.4318 1791.2441 1335.1181 1793.9304 1335.1181 1797.2441 L 1335.1181 1833.433 C 1335.1181 1836.7468 1332.4318 1839.433 1329.1181 1839.433 L 1110.0945 1839.433 C 1106.7808 1839.433 1104.0945 1836.7468 1104.0945 1833.433 L 1104.0945 1797.2441 C 1104.0945 1793.9304 1106.7808 1791.2441 1110.0945 1791.2441 Z"
            stroke="#012b36" stroke-linecap="round" stroke-linejoin="round" stroke-width="1"/>
        <text transform="translate(1109.0945 1805.8386)" fill="white">
          <tspan font-family="Roboto, sans-serif" font-size="16" fill="white" x="18.746185"
              y="15">FHIR extended operations
          </tspan>
        </text>
      </g>
      <g id="Line_74">
        <line x1="1024.7244" y1="1815.3386" x2="1104.0945" y2="1815.3386" stroke="white"
            stroke-linecap="round" stroke-linejoin="round" stroke-dasharray="4.0,4.0"
            stroke-width="1"/>
      </g>
      <g id="Group_84">
        <title>logos</title>
        <g id="Group_85">
          <title>logo-colour</title>
          <g id="Graphic_87">
            <title>Combined-Shape</title>
            <path
                d="M 847.3741 1714.03 C 851.1009 1714.03 854.1947 1716.7402 854.7922 1720.2972 C 866.4495 1721.5677 866.4357 1739.502 854.7514 1740.7341 C 854.0628 1744.1782 851.0216 1746.7743 847.3741 1746.7743 C 843.818 1746.7743 840.8382 1744.3068 840.0536 1740.9905 C 832.8677 1742.585 832.8523 1753.788 840.0067 1755.4248 C 840.7126 1752.0022 843.7428 1749.4293 847.3741 1749.4293 C 851.5285 1749.4293 854.8964 1752.7972 854.8964 1756.9516 C 854.8964 1761.1061 851.5285 1764.474 847.3741 1764.474 C 843.7005 1764.474 840.642 1761.8408 839.9831 1758.3589 C 829.0537 1756.6452 829.0407 1739.8218 839.9438 1738.0715 C 840.5101 1734.4779 843.6212 1731.7296 847.3741 1731.7296 C 851.0411 1731.7296 854.0952 1734.3535 854.7615 1737.8262 C 862.6259 1736.6088 862.611 1724.3684 854.7175 1723.1918 C 853.9684 1726.5584 850.9651 1729.0747 847.3741 1729.0747 C 843.2196 1729.0747 839.8517 1725.7068 839.8517 1721.5523 C 839.8517 1717.3978 843.2196 1714.03 847.3741 1714.03 Z M 847.3741 1752.3055 C 844.8081 1752.3055 842.7279 1754.3856 842.7279 1756.9516 C 842.7279 1759.5176 844.8081 1761.5978 847.3741 1761.5978 C 849.9401 1761.5978 852.0202 1759.5176 852.0202 1756.9516 C 852.0202 1754.3856 849.9401 1752.3055 847.3741 1752.3055 Z M 847.3741 1734.6058 C 844.8081 1734.6058 842.7279 1736.686 842.7279 1739.252 C 842.7279 1741.818 844.8081 1743.8981 847.3741 1743.8981 C 849.9401 1743.8981 852.0202 1741.818 852.0202 1739.252 C 852.0202 1736.686 849.9401 1734.6058 847.3741 1734.6058 Z M 847.3741 1716.9062 C 844.8081 1716.9062 842.7279 1718.9863 842.7279 1721.5523 C 842.7279 1724.1183 844.8081 1726.1985 847.3741 1726.1985 C 849.9401 1726.1985 852.0202 1724.1183 852.0202 1721.5523 C 852.0202 1718.9863 849.9401 1716.9062 847.3741 1716.9062 Z"
                fill="#2ca0b6"/>
          </g>
          <g id="Graphic_86">
            <title>Pathling</title>
            <path
                d="M 862.4628 1763.036 L 862.4628 1740.8976 L 869.436 1740.8976 C 870.6546 1740.8976 871.7886 1741.0104 872.838 1741.2361 C 873.8874 1741.4618 874.7957 1741.8454 875.563 1742.387 C 876.3303 1742.9287 876.9283 1743.6339 877.3571 1744.5027 C 877.7858 1745.3715 878.0002 1746.449 878.0002 1747.7354 C 878.0002 1748.954 877.7858 1750.0147 877.3571 1750.9174 C 876.9283 1751.82 876.3359 1752.5704 875.5799 1753.1685 C 874.8239 1753.7665 873.9325 1754.2065 872.9057 1754.4886 C 871.8789 1754.7707 870.7675 1754.9118 869.5714 1754.9118 L 866.3895 1754.9118 L 866.3895 1763.036 Z M 866.3895 1751.7637 L 869.2668 1751.7637 C 872.5164 1751.7637 874.1413 1750.421 874.1413 1747.7354 C 874.1413 1746.3363 873.7181 1745.3715 872.8719 1744.8412 C 872.0256 1744.3109 870.7788 1744.0457 869.1314 1744.0457 L 866.3895 1744.0457 Z M 882.7973 1763.4421 C 881.3304 1763.4421 880.1456 1762.9964 879.243 1762.105 C 878.3403 1761.2136 877.8889 1760.0345 877.8889 1758.5676 C 877.8889 1757.6875 878.0751 1756.9033 878.4475 1756.215 C 878.8198 1755.5267 879.4066 1754.9343 880.2077 1754.4379 C 881.0088 1753.9414 882.0243 1753.5239 883.2543 1753.1854 C 884.4842 1752.8469 885.9567 1752.5874 887.6718 1752.4068 C 887.6492 1751.978 887.5871 1751.5662 887.4856 1751.1713 C 887.384 1750.7763 887.2148 1750.4266 886.9778 1750.122 C 886.7409 1749.8172 886.4306 1749.5803 886.0469 1749.411 C 885.6633 1749.2418 885.1894 1749.1572 884.6252 1749.1572 C 883.8128 1749.1572 883.0173 1749.3151 882.2387 1749.631 C 881.4602 1749.947 880.6985 1750.3306 879.9538 1750.782 L 878.5321 1748.1755 C 879.4574 1747.5887 880.4954 1747.081 881.6464 1746.6522 C 882.7973 1746.2234 884.0385 1746.009 885.3699 1746.009 C 887.4461 1746.009 888.9976 1746.624 890.0244 1747.854 C 891.0512 1749.0838 891.5646 1750.861 891.5646 1753.1854 L 891.5646 1763.036 L 888.3488 1763.036 L 888.078 1761.208 L 887.9426 1761.208 C 887.1978 1761.8399 886.4024 1762.3702 885.5561 1762.799 C 884.7098 1763.2277 883.7902 1763.4421 882.7973 1763.4421 Z M 884.0497 1760.3956 C 884.7268 1760.3956 885.3417 1760.2376 885.8946 1759.9216 C 886.4475 1759.6057 887.0399 1759.1544 887.6718 1758.5676 L 887.6718 1754.844 C 886.5434 1754.9795 885.5956 1755.16 884.8283 1755.3857 C 884.061 1755.6113 883.4404 1755.8652 882.9665 1756.1473 C 882.4926 1756.4294 882.1541 1756.751 881.951 1757.112 C 881.7479 1757.4731 881.6464 1757.8568 881.6464 1758.263 C 881.6464 1759.0077 881.872 1759.5493 882.3234 1759.8878 C 882.7747 1760.2263 883.3502 1760.3956 884.0497 1760.3956 Z M 899.7805 1763.4421 C 898.8101 1763.4421 897.9921 1763.2954 897.3264 1763.002 C 896.6606 1762.7087 896.119 1762.2968 895.7015 1761.7665 C 895.284 1761.2362 894.9794 1760.6043 894.7876 1759.8709 C 894.5958 1759.1374 894.4998 1758.3194 894.4998 1757.4167 L 894.4998 1749.4957 L 892.1303 1749.4957 L 892.1303 1746.5845 L 894.703 1746.4153 L 895.1769 1741.8793 L 898.4265 1741.8793 L 898.4265 1746.4153 L 902.6578 1746.4153 L 902.6578 1749.4957 L 898.4265 1749.4957 L 898.4265 1757.4167 C 898.4265 1759.3575 899.2051 1760.3279 900.7622 1760.3279 C 901.0556 1760.3279 901.3546 1760.294 901.6592 1760.2263 C 901.9639 1760.1586 902.2403 1760.0683 902.4886 1759.9555 L 903.1656 1762.8328 C 902.7143 1762.9908 902.2009 1763.1318 901.6254 1763.256 C 901.0499 1763.38 900.435 1763.4421 899.7805 1763.4421 Z M 904.3745 1763.036 L 904.3745 1739.1374 L 908.2673 1739.1374 L 908.2673 1745.2982 L 908.1319 1748.514 C 908.8315 1747.8595 909.6044 1747.2785 910.4507 1746.7707 C 911.2969 1746.263 912.2955 1746.009 913.4464 1746.009 C 915.2293 1746.009 916.5268 1746.5789 917.3393 1747.7185 C 918.1517 1748.8581 918.5579 1750.4886 918.5579 1752.61 L 918.5579 1763.036 L 914.6651 1763.036 L 914.6651 1753.1177 C 914.6651 1751.741 914.462 1750.7707 914.0558 1750.2065 C 913.6495 1749.6423 912.9838 1749.3603 912.0586 1749.3603 C 911.3364 1749.3603 910.6989 1749.5352 910.146 1749.885 C 909.5931 1750.2347 908.9669 1750.7481 908.2673 1751.4251 L 908.2673 1763.036 Z M 925.2844 1763.4421 C 923.8853 1763.4421 922.9036 1763.0246 922.3394 1762.1896 C 921.7752 1761.3547 921.4932 1760.215 921.4932 1758.7707 L 921.4932 1739.1374 L 925.386 1739.1374 L 925.386 1758.9738 C 925.386 1759.4477 925.4762 1759.7806 925.6568 1759.9724 C 925.8373 1760.1642 926.0291 1760.2602 926.2322 1760.2602 L 926.4861 1760.2602 C 926.5651 1760.2602 926.6836 1760.2376 926.8415 1760.1925 L 927.3493 1763.1036 C 926.8303 1763.3293 926.142 1763.4421 925.2844 1763.4421 Z M 928.8967 1763.036 L 928.8967 1746.4153 L 932.7895 1746.4153 L 932.7895 1763.036 Z M 930.86 1743.5041 C 930.1604 1743.5041 929.585 1743.301 929.1337 1742.8948 C 928.6823 1742.4886 928.4566 1741.9583 928.4566 1741.3038 C 928.4566 1740.6494 928.6823 1740.1134 929.1337 1739.696 C 929.585 1739.2784 930.1604 1739.0697 930.86 1739.0697 C 931.5596 1739.0697 932.1351 1739.2784 932.5864 1739.696 C 933.0378 1740.1134 933.2634 1740.6494 933.2634 1741.3038 C 933.2634 1741.9583 933.0378 1742.4886 932.5864 1742.8948 C 932.1351 1743.301 931.5596 1743.5041 930.86 1743.5041 Z M 935.9956 1763.036 L 935.9956 1746.4153 L 939.2114 1746.4153 L 939.4822 1748.6494 L 939.6176 1748.6494 C 940.3623 1747.9272 941.1691 1747.3067 942.0379 1746.7876 C 942.9068 1746.2686 943.9166 1746.009 945.0675 1746.009 C 946.8504 1746.009 948.148 1746.5789 948.9604 1747.7185 C 949.7728 1748.8581 950.179 1750.4886 950.179 1752.61 L 950.179 1763.036 L 946.2862 1763.036 L 946.2862 1753.1177 C 946.2862 1751.741 946.0831 1750.7707 945.6769 1750.2065 C 945.2706 1749.6423 944.6049 1749.3603 943.6797 1749.3603 C 942.9575 1749.3603 942.32 1749.5352 941.7671 1749.885 C 941.2142 1750.2347 940.588 1750.7481 939.8884 1751.4251 L 939.8884 1763.036 Z M 958.9704 1770.3815 C 957.9775 1770.3815 957.0579 1770.2912 956.2116 1770.1107 C 955.3653 1769.9301 954.6375 1769.6593 954.0282 1769.2983 C 953.4189 1768.9372 952.9394 1768.4859 952.5896 1767.9442 C 952.2398 1767.4026 952.0649 1766.7708 952.0649 1766.0486 C 952.0649 1765.349 952.268 1764.7002 952.6742 1764.1022 C 953.0804 1763.5042 953.6671 1762.9682 954.4344 1762.4943 L 954.4344 1762.3589 C 954.0057 1762.088 953.6502 1761.727 953.3681 1761.2757 C 953.086 1760.8243 952.945 1760.2602 952.945 1759.5831 C 952.945 1758.9287 953.1312 1758.3363 953.5035 1757.806 C 953.8759 1757.2757 954.299 1756.8412 954.7729 1756.5027 L 954.7729 1756.3673 C 954.2088 1755.9386 953.7066 1755.3462 953.2666 1754.5902 C 952.8265 1753.8342 952.6065 1752.9597 952.6065 1751.9668 C 952.6065 1751.019 952.787 1750.1727 953.1481 1749.428 C 953.5092 1748.6832 953.9887 1748.057 954.5868 1747.5493 C 955.1848 1747.0415 955.8787 1746.6579 956.6686 1746.3983 C 957.4584 1746.1388 958.2934 1746.009 959.1735 1746.009 C 959.6249 1746.009 960.0593 1746.0485 960.4768 1746.1275 C 960.8943 1746.2065 961.2722 1746.3024 961.6108 1746.4153 L 967.5685 1746.4153 L 967.5685 1749.2926 L 964.5219 1749.2926 C 964.7927 1749.6085 965.0184 1750.009 965.1989 1750.4943 C 965.3795 1750.9795 965.4697 1751.5154 965.4697 1752.1022 C 965.4697 1753.0274 965.3061 1753.8398 964.9789 1754.5394 C 964.6517 1755.239 964.206 1755.8257 963.6418 1756.2996 C 963.0776 1756.7735 962.4119 1757.1346 961.6446 1757.3829 C 960.8773 1757.631 960.0536 1757.7552 959.1735 1757.7552 C 958.8124 1757.7552 958.4401 1757.7214 958.0564 1757.6537 C 957.6728 1757.586 957.2892 1757.4731 956.9055 1757.3152 C 956.6573 1757.5408 956.4598 1757.7665 956.3131 1757.9922 C 956.1665 1758.2178 956.0931 1758.5225 956.0931 1758.9061 C 956.0931 1759.38 956.2906 1759.7524 956.6855 1760.0232 C 957.0804 1760.294 957.7856 1760.4294 958.8012 1760.4294 L 961.7462 1760.4294 C 963.7546 1760.4294 965.2723 1760.751 966.2991 1761.3941 C 967.3259 1762.0373 967.8393 1763.081 967.8393 1764.5253 C 967.8393 1765.3377 967.6305 1766.105 967.213 1766.8272 C 966.7955 1767.5493 966.2032 1768.17 965.4359 1768.689 C 964.6686 1769.208 963.7377 1769.6198 962.6432 1769.9245 C 961.5487 1770.2292 960.3244 1770.3815 958.9704 1770.3815 Z M 959.1735 1755.318 C 959.9634 1755.318 960.6404 1755.0302 961.2045 1754.4548 C 961.7687 1753.8793 962.0508 1753.05 962.0508 1751.9668 C 962.0508 1750.9287 961.7744 1750.122 961.2215 1749.5464 C 960.6686 1748.971 959.9859 1748.6832 959.1735 1748.6832 C 958.3611 1748.6832 957.6728 1748.9653 957.1086 1749.5295 C 956.5444 1750.0937 956.2624 1750.906 956.2624 1751.9668 C 956.2624 1753.05 956.5444 1753.8793 957.1086 1754.4548 C 957.6728 1755.0302 958.3611 1755.318 959.1735 1755.318 Z M 959.5797 1767.8427 C 960.9338 1767.8427 962.0226 1767.5775 962.8463 1767.0472 C 963.67 1766.5169 964.0818 1765.8906 964.0818 1765.1685 C 964.0818 1764.514 963.828 1764.074 963.3202 1763.8483 C 962.8124 1763.6226 962.0847 1763.5098 961.1368 1763.5098 L 958.8689 1763.5098 C 957.9662 1763.5098 957.2102 1763.4308 956.6009 1763.2729 C 955.7433 1763.9273 955.3145 1764.6607 955.3145 1765.4731 C 955.3145 1766.2179 955.6925 1766.799 956.4485 1767.2165 C 957.2045 1767.634 958.2483 1767.8427 959.5797 1767.8427 Z"
                fill="white"/>
          </g>
        </g>
      </g>
    </g>
  </g>
</svg>
